<ttFont>
    <TTGlyph name=".notdef" xMin="56" yMin="0" xMax="614" yMax="531">
      <contour>
        <pt x="600" y="506" on="1"/>
        <pt x="348" y="266" on="1"/>
        <pt x="600" y="25" on="1"/>
      </contour>
      <contour>
        <pt x="83" y="13" on="1"/>
        <pt x="590" y="13" on="1"/>
        <pt x="337" y="256" on="1"/>
      </contour>
      <contour>
        <pt x="70" y="22" on="1"/>
        <pt x="326" y="266" on="1"/>
        <pt x="70" y="507" on="1"/>
      </contour>
      <contour>
        <pt x="591" y="518" on="1"/>
        <pt x="80" y="518" on="1"/>
        <pt x="337" y="276" on="1"/>
      </contour>
      <contour>
        <pt x="56" y="0" on="1"/>
        <pt x="56" y="531" on="1"/>
        <pt x="614" y="531" on="1"/>
        <pt x="614" y="0" on="1"/>
      </contour>
    </TTGlyph>
    <TTGlyph name="A" xMin="25" yMin="0" xMax="705" yMax="732">
      <contour>
        <pt x="25" y="0" on="1"/>
        <pt x="254" y="732" on="1"/>
        <pt x="483" y="732" on="1"/>
        <pt x="705" y="0" on="1"/>
        <pt x="506" y="0" on="1"/>
        <pt x="463" y="128" on="1"/>
        <pt x="266" y="128" on="1"/>
        <pt x="224" y="0" on="1"/>
      </contour>
      <contour>
        <pt x="310" y="293" on="1"/>
        <pt x="424" y="293" on="1"/>
        <pt x="371" y="489" on="1"/>
      </contour>
    </TTGlyph>
    <TTGlyph name="AE" xMin="17" yMin="-4" xMax="956" yMax="734">
      <contour>
        <pt x="448" y="706" on="1"/>
        <pt x="497" y="724" on="0"/>
        <pt x="574" y="733" on="0"/>
        <pt x="629" y="733" on="0"/>
        <pt x="649" y="732" on="1"/>
        <pt x="839" y="732" on="0"/>
        <pt x="956" y="716" on="1"/>
        <pt x="956" y="553" on="1"/>
        <pt x="709" y="553" on="1"/>
        <pt x="685" y="553" on="0"/>
        <pt x="660" y="534" on="0"/>
        <pt x="657" y="515" on="0"/>
        <pt x="657" y="497" on="1"/>
        <pt x="657" y="453" on="1"/>
        <pt x="906" y="442" on="1"/>
        <pt x="906" y="281" on="1"/>
        <pt x="657" y="272" on="1"/>
        <pt x="657" y="228" on="1"/>
        <pt x="657" y="190" on="0"/>
        <pt x="678" y="182" on="1"/>
        <pt x="694" y="176" on="0"/>
        <pt x="719" y="176" on="1"/>
        <pt x="956" y="176" on="1"/>
        <pt x="956" y="14" on="1"/>
        <pt x="855" y="1" on="0"/>
        <pt x="710" y="-2" on="1"/>
        <pt x="659" y="-3" on="1"/>
        <pt x="649" y="-4" on="0"/>
        <pt x="618" y="-4" on="0"/>
        <pt x="568" y="3" on="0"/>
        <pt x="503" y="26" on="0"/>
        <pt x="463" y="81" on="0"/>
        <pt x="463" y="121" on="1"/>
        <pt x="463" y="167" on="1"/>
        <pt x="316" y="167" on="1"/>
        <pt x="232" y="0" on="1"/>
        <pt x="17" y="0" on="1"/>
        <pt x="288" y="552" on="1"/>
        <pt x="346" y="670" on="0"/>
      </contour>
      <contour>
        <pt x="463" y="331" on="1"/>
        <pt x="463" y="482" on="1"/>
        <pt x="394" y="331" on="1"/>
      </contour>
    </TTGlyph>
    <TTGlyph name="Aacute" xMin="25" yMin="0" xMax="705" yMax="940">
      <contour>
        <pt x="314" y="797" on="1"/>
        <pt x="391" y="940" on="1"/>
        <pt x="536" y="940" on="1"/>
        <pt x="423" y="797" on="1"/>
      </contour>
      <contour>
        <pt x="25" y="0" on="1"/>
        <pt x="254" y="732" on="1"/>
        <pt x="483" y="732" on="1"/>
        <pt x="705" y="0" on="1"/>
        <pt x="506" y="0" on="1"/>
        <pt x="463" y="128" on="1"/>
        <pt x="266" y="128" on="1"/>
        <pt x="224" y="0" on="1"/>
      </contour>
      <contour>
        <pt x="310" y="293" on="1"/>
        <pt x="424" y="293" on="1"/>
        <pt x="371" y="489" on="1"/>
      </contour>
    </TTGlyph>
    <TTGlyph name="Abreve" xMin="25" yMin="0" xMax="705" yMax="911">
      <contour>
        <pt x="320" y="911" on="1"/>
        <pt x="320" y="864" on="0"/>
        <pt x="416" y="864" on="0"/>
        <pt x="416" y="911" on="1"/>
        <pt x="484" y="911" on="1"/>
        <pt x="484" y="841" on="0"/>
        <pt x="429" y="811" on="1"/>
        <pt x="403" y="797" on="0"/>
        <pt x="342" y="797" on="0"/>
        <pt x="299" y="814" on="0"/>
        <pt x="285" y="828" on="1"/>
        <pt x="254" y="860" on="0"/>
        <pt x="254" y="911" on="1"/>
      </contour>
      <contour>
        <pt x="25" y="0" on="1"/>
        <pt x="254" y="732" on="1"/>
        <pt x="483" y="732" on="1"/>
        <pt x="705" y="0" on="1"/>
        <pt x="506" y="0" on="1"/>
        <pt x="463" y="128" on="1"/>
        <pt x="266" y="128" on="1"/>
        <pt x="224" y="0" on="1"/>
      </contour>
      <contour>
        <pt x="310" y="293" on="1"/>
        <pt x="424" y="293" on="1"/>
        <pt x="371" y="489" on="1"/>
      </contour>
    </TTGlyph>
    <TTGlyph name="Acircumflex" xMin="25" yMin="0" xMax="705" yMax="937">
      <contour>
        <pt x="208" y="797" on="1"/>
        <pt x="308" y="937" on="1"/>
        <pt x="438" y="937" on="1"/>
        <pt x="530" y="797" on="1"/>
        <pt x="418" y="797" on="1"/>
        <pt x="370" y="848" on="1"/>
        <pt x="320" y="797" on="1"/>
      </contour>
      <contour>
        <pt x="25" y="0" on="1"/>
        <pt x="254" y="732" on="1"/>
        <pt x="483" y="732" on="1"/>
        <pt x="705" y="0" on="1"/>
        <pt x="506" y="0" on="1"/>
        <pt x="463" y="128" on="1"/>
        <pt x="266" y="128" on="1"/>
        <pt x="224" y="0" on="1"/>
      </contour>
      <contour>
        <pt x="310" y="293" on="1"/>
        <pt x="424" y="293" on="1"/>
        <pt x="371" y="489" on="1"/>
      </contour>
    </TTGlyph>
    <TTGlyph name="Adieresis" xMin="25" yMin="0" xMax="705" yMax="928">
      <contour>
        <pt x="176" y="836" on="0"/>
        <pt x="176" y="890" on="0"/>
        <pt x="214" y="928" on="0"/>
        <pt x="268" y="928" on="0"/>
        <pt x="306" y="890" on="0"/>
        <pt x="306" y="836" on="0"/>
        <pt x="268" y="797" on="0"/>
        <pt x="214" y="797" on="0"/>
      </contour>
      <contour>
        <pt x="430" y="836" on="0"/>
        <pt x="430" y="890" on="0"/>
        <pt x="469" y="928" on="0"/>
        <pt x="524" y="928" on="0"/>
        <pt x="562" y="890" on="0"/>
        <pt x="562" y="836" on="0"/>
        <pt x="523" y="797" on="0"/>
        <pt x="470" y="797" on="0"/>
      </contour>
      <contour>
        <pt x="25" y="0" on="1"/>
        <pt x="254" y="732" on="1"/>
        <pt x="483" y="732" on="1"/>
        <pt x="705" y="0" on="1"/>
        <pt x="506" y="0" on="1"/>
        <pt x="463" y="128" on="1"/>
        <pt x="266" y="128" on="1"/>
        <pt x="224" y="0" on="1"/>
      </contour>
      <contour>
        <pt x="310" y="293" on="1"/>
        <pt x="424" y="293" on="1"/>
        <pt x="371" y="489" on="1"/>
      </contour>
    </TTGlyph>
    <TTGlyph name="Agrave" xMin="25" yMin="0" xMax="705" yMax="940">
      <contour>
        <pt x="201" y="940" on="1"/>
        <pt x="346" y="940" on="1"/>
        <pt x="423" y="797" on="1"/>
        <pt x="314" y="797" on="1"/>
      </contour>
      <contour>
        <pt x="25" y="0" on="1"/>
        <pt x="254" y="732" on="1"/>
        <pt x="483" y="732" on="1"/>
        <pt x="705" y="0" on="1"/>
        <pt x="506" y="0" on="1"/>
        <pt x="463" y="128" on="1"/>
        <pt x="266" y="128" on="1"/>
        <pt x="224" y="0" on="1"/>
      </contour>
      <contour>
        <pt x="310" y="293" on="1"/>
        <pt x="424" y="293" on="1"/>
        <pt x="371" y="489" on="1"/>
      </contour>
    </TTGlyph>
    <TTGlyph name="Amacron" xMin="25" yMin="0" xMax="705" yMax="890">
      <contour>
        <pt x="222" y="797" on="1"/>
        <pt x="222" y="890" on="1"/>
        <pt x="514" y="890" on="1"/>
        <pt x="514" y="797" on="1"/>
      </contour>
      <contour>
        <pt x="25" y="0" on="1"/>
        <pt x="254" y="732" on="1"/>
        <pt x="483" y="732" on="1"/>
        <pt x="705" y="0" on="1"/>
        <pt x="506" y="0" on="1"/>
        <pt x="463" y="128" on="1"/>
        <pt x="266" y="128" on="1"/>
        <pt x="224" y="0" on="1"/>
      </contour>
      <contour>
        <pt x="310" y="293" on="1"/>
        <pt x="424" y="293" on="1"/>
        <pt x="371" y="489" on="1"/>
      </contour>
    </TTGlyph>
    <TTGlyph name="Aogonek" xMin="25" yMin="-195" xMax="705" yMax="732">
      <contour>
        <pt x="575" y="2" on="1"/>
        <pt x="644" y="2" on="1"/>
        <pt x="583" y="-40" on="0"/>
        <pt x="615" y="-82" on="1"/>
        <pt x="632" y="-104" on="0"/>
        <pt x="657" y="-99" on="1"/>
        <pt x="657" y="-189" on="1"/>
        <pt x="642" y="-194" on="0"/>
        <pt x="620" y="-194" on="0"/>
        <pt x="592" y="-192" on="0"/>
        <pt x="574" y="-180" on="1"/>
        <pt x="514" y="-142" on="0"/>
        <pt x="514" y="-33" on="0"/>
      </contour>
      <contour>
        <pt x="25" y="0" on="1"/>
        <pt x="254" y="732" on="1"/>
        <pt x="483" y="732" on="1"/>
        <pt x="705" y="0" on="1"/>
        <pt x="506" y="0" on="1"/>
        <pt x="463" y="128" on="1"/>
        <pt x="266" y="128" on="1"/>
        <pt x="224" y="0" on="1"/>
      </contour>
      <contour>
        <pt x="310" y="293" on="1"/>
        <pt x="424" y="293" on="1"/>
        <pt x="371" y="489" on="1"/>
      </contour>
    </TTGlyph>
    <TTGlyph name="Aring" xMin="25" yMin="0" xMax="705" yMax="936">
      <contour>
        <pt x="267" y="804" on="0"/>
        <pt x="294" y="757" on="0"/>
        <pt x="341" y="730" on="0"/>
        <pt x="397" y="730" on="0"/>
        <pt x="443" y="757" on="0"/>
        <pt x="470" y="804" on="0"/>
        <pt x="470" y="875" on="0"/>
        <pt x="411" y="935" on="0"/>
        <pt x="327" y="935" on="0"/>
        <pt x="267" y="875" on="0"/>
      </contour>
      <contour>
        <pt x="335" y="818" on="0"/>
        <pt x="335" y="846" on="0"/>
        <pt x="355" y="866" on="0"/>
        <pt x="383" y="866" on="0"/>
        <pt x="402" y="847" on="0"/>
        <pt x="402" y="818" on="0"/>
        <pt x="383" y="799" on="0"/>
        <pt x="355" y="799" on="0"/>
      </contour>
      <contour>
        <pt x="25" y="0" on="1"/>
        <pt x="254" y="732" on="1"/>
        <pt x="483" y="732" on="1"/>
        <pt x="705" y="0" on="1"/>
        <pt x="506" y="0" on="1"/>
        <pt x="463" y="128" on="1"/>
        <pt x="266" y="128" on="1"/>
        <pt x="224" y="0" on="1"/>
      </contour>
      <contour>
        <pt x="310" y="293" on="1"/>
        <pt x="424" y="293" on="1"/>
        <pt x="371" y="489" on="1"/>
      </contour>
    </TTGlyph>
    <TTGlyph name="Atilde" xMin="25" yMin="0" xMax="705" yMax="943">
      <contour>
        <pt x="318" y="938" on="1"/>
        <pt x="340" y="938" on="0"/>
        <pt x="404" y="903" on="0"/>
        <pt x="424" y="903" on="1"/>
        <pt x="427" y="903" on="0"/>
        <pt x="429" y="903" on="1"/>
        <pt x="478" y="903" on="0"/>
        <pt x="516" y="943" on="1"/>
        <pt x="542" y="869" on="1"/>
        <pt x="494" y="797" on="0"/>
        <pt x="430" y="797" on="1"/>
        <pt x="408" y="797" on="0"/>
        <pt x="334" y="832" on="0"/>
        <pt x="310" y="832" on="1"/>
        <pt x="267" y="832" on="0"/>
        <pt x="222" y="797" on="1"/>
        <pt x="194" y="864" on="1"/>
        <pt x="246" y="938" on="0"/>
      </contour>
      <contour>
        <pt x="25" y="0" on="1"/>
        <pt x="254" y="732" on="1"/>
        <pt x="483" y="732" on="1"/>
        <pt x="705" y="0" on="1"/>
        <pt x="506" y="0" on="1"/>
        <pt x="463" y="128" on="1"/>
        <pt x="266" y="128" on="1"/>
        <pt x="224" y="0" on="1"/>
      </contour>
      <contour>
        <pt x="310" y="293" on="1"/>
        <pt x="424" y="293" on="1"/>
        <pt x="371" y="489" on="1"/>
      </contour>
    </TTGlyph>
    <TTGlyph name="B" xMin="45" yMin="0" xMax="601" yMax="732">
      <contour>
        <pt x="45" y="0" on="1"/>
        <pt x="45" y="732" on="1"/>
        <pt x="363" y="732" on="1"/>
        <pt x="583" y="732" on="0"/>
        <pt x="583" y="532" on="1"/>
        <pt x="583" y="479" on="0"/>
        <pt x="526" y="384" on="0"/>
        <pt x="476" y="380" on="1"/>
        <pt x="531" y="371" on="0"/>
        <pt x="601" y="282" on="0"/>
        <pt x="601" y="224" on="1"/>
        <pt x="601" y="104" on="0"/>
        <pt x="487" y="0" on="0"/>
        <pt x="368" y="0" on="1"/>
      </contour>
      <contour>
        <pt x="239" y="164" on="1"/>
        <pt x="358" y="164" on="1"/>
        <pt x="385" y="164" on="0"/>
        <pt x="407" y="199" on="0"/>
        <pt x="407" y="234" on="1"/>
        <pt x="407" y="306" on="0"/>
        <pt x="358" y="306" on="1"/>
        <pt x="239" y="306" on="1"/>
      </contour>
      <contour>
        <pt x="239" y="460" on="1"/>
        <pt x="348" y="460" on="1"/>
        <pt x="370" y="460" on="0"/>
        <pt x="393" y="489" on="0"/>
        <pt x="393" y="511" on="1"/>
        <pt x="393" y="568" on="0"/>
        <pt x="348" y="568" on="1"/>
        <pt x="239" y="568" on="1"/>
      </contour>
    </TTGlyph>
    <TTGlyph name="C" xMin="31" yMin="-7" xMax="548" yMax="740">
      <contour>
        <pt x="548" y="549" on="1"/>
        <pt x="446" y="566" on="0"/>
        <pt x="285" y="566" on="0"/>
        <pt x="267" y="555" on="1"/>
        <pt x="225" y="530" on="0"/>
        <pt x="225" y="366" on="1"/>
        <pt x="225" y="242" on="0"/>
        <pt x="270" y="168" on="0"/>
        <pt x="345" y="168" on="1"/>
        <pt x="449" y="168" on="0"/>
        <pt x="520" y="174" on="1"/>
        <pt x="548" y="177" on="1"/>
        <pt x="548" y="26" on="1"/>
        <pt x="500" y="6" on="0"/>
        <pt x="404" y="-6" on="0"/>
        <pt x="308" y="-6" on="0"/>
        <pt x="284" y="-6" on="1"/>
        <pt x="148" y="-4" on="0"/>
        <pt x="31" y="179" on="0"/>
        <pt x="31" y="556" on="0"/>
        <pt x="142" y="740" on="0"/>
        <pt x="284" y="740" on="1"/>
        <pt x="388" y="740" on="0"/>
        <pt x="481" y="725" on="0"/>
        <pt x="548" y="700" on="1"/>
      </contour>
    </TTGlyph>
    <TTGlyph name="Cacute" xMin="31" yMin="-7" xMax="548" yMax="943">
      <contour>
        <pt x="280" y="800" on="1"/>
        <pt x="356" y="943" on="1"/>
        <pt x="502" y="943" on="1"/>
        <pt x="388" y="800" on="1"/>
      </contour>
      <contour>
        <pt x="548" y="549" on="1"/>
        <pt x="446" y="566" on="0"/>
        <pt x="285" y="566" on="0"/>
        <pt x="267" y="555" on="1"/>
        <pt x="225" y="530" on="0"/>
        <pt x="225" y="366" on="1"/>
        <pt x="225" y="242" on="0"/>
        <pt x="270" y="168" on="0"/>
        <pt x="345" y="168" on="1"/>
        <pt x="449" y="168" on="0"/>
        <pt x="520" y="174" on="1"/>
        <pt x="548" y="177" on="1"/>
        <pt x="548" y="26" on="1"/>
        <pt x="500" y="6" on="0"/>
        <pt x="404" y="-6" on="0"/>
        <pt x="308" y="-6" on="0"/>
        <pt x="284" y="-6" on="1"/>
        <pt x="148" y="-4" on="0"/>
        <pt x="31" y="179" on="0"/>
        <pt x="31" y="556" on="0"/>
        <pt x="142" y="740" on="0"/>
        <pt x="284" y="740" on="1"/>
        <pt x="388" y="740" on="0"/>
        <pt x="481" y="725" on="0"/>
        <pt x="548" y="700" on="1"/>
      </contour>
    </TTGlyph>
    <TTGlyph name="Ccaron" xMin="31" yMin="-7" xMax="548" yMax="940">
      <contour>
        <pt x="181" y="940" on="1"/>
        <pt x="292" y="940" on="1"/>
        <pt x="341" y="889" on="1"/>
        <pt x="391" y="940" on="1"/>
        <pt x="503" y="940" on="1"/>
        <pt x="403" y="800" on="1"/>
        <pt x="272" y="800" on="1"/>
      </contour>
      <contour>
        <pt x="548" y="549" on="1"/>
        <pt x="446" y="566" on="0"/>
        <pt x="285" y="566" on="0"/>
        <pt x="267" y="555" on="1"/>
        <pt x="225" y="530" on="0"/>
        <pt x="225" y="366" on="1"/>
        <pt x="225" y="242" on="0"/>
        <pt x="270" y="168" on="0"/>
        <pt x="345" y="168" on="1"/>
        <pt x="449" y="168" on="0"/>
        <pt x="520" y="174" on="1"/>
        <pt x="548" y="177" on="1"/>
        <pt x="548" y="26" on="1"/>
        <pt x="500" y="6" on="0"/>
        <pt x="404" y="-6" on="0"/>
        <pt x="308" y="-6" on="0"/>
        <pt x="284" y="-6" on="1"/>
        <pt x="148" y="-4" on="0"/>
        <pt x="31" y="179" on="0"/>
        <pt x="31" y="556" on="0"/>
        <pt x="142" y="740" on="0"/>
        <pt x="284" y="740" on="1"/>
        <pt x="388" y="740" on="0"/>
        <pt x="481" y="725" on="0"/>
        <pt x="548" y="700" on="1"/>
      </contour>
    </TTGlyph>
    <TTGlyph name="Ccedilla" xMin="31" yMin="-182" xMax="548" yMax="740">
      <contour>
        <pt x="548" y="549" on="1"/>
        <pt x="446" y="566" on="0"/>
        <pt x="285" y="566" on="0"/>
        <pt x="267" y="555" on="1"/>
        <pt x="225" y="530" on="0"/>
        <pt x="225" y="366" on="1"/>
        <pt x="225" y="242" on="0"/>
        <pt x="270" y="168" on="0"/>
        <pt x="345" y="168" on="1"/>
        <pt x="449" y="168" on="0"/>
        <pt x="520" y="174" on="1"/>
        <pt x="548" y="177" on="1"/>
        <pt x="548" y="26" on="1"/>
        <pt x="500" y="6" on="0"/>
        <pt x="404" y="-6" on="0"/>
        <pt x="308" y="-6" on="0"/>
        <pt x="284" y="-6" on="1"/>
        <pt x="148" y="-4" on="0"/>
        <pt x="31" y="179" on="0"/>
        <pt x="31" y="556" on="0"/>
        <pt x="142" y="740" on="0"/>
        <pt x="284" y="740" on="1"/>
        <pt x="388" y="740" on="0"/>
        <pt x="481" y="725" on="0"/>
        <pt x="548" y="700" on="1"/>
      </contour>
      <contour>
        <pt x="252" y="-36" on="1"/>
        <pt x="369" y="-36" on="1"/>
        <pt x="369" y="-114" on="0"/>
        <pt x="316" y="-182" on="0"/>
        <pt x="248" y="-182" on="1"/>
        <pt x="187" y="-182" on="1"/>
        <pt x="187" y="-103" on="1"/>
        <pt x="224" y="-88" on="1"/>
        <pt x="245" y="-79" on="0"/>
        <pt x="252" y="-65" on="0"/>
      </contour>
    </TTGlyph>
    <TTGlyph name="Ccircumflex" xMin="31" yMin="-7" xMax="548" yMax="940">
      <contour>
        <pt x="171" y="800" on="1"/>
        <pt x="271" y="940" on="1"/>
        <pt x="402" y="940" on="1"/>
        <pt x="493" y="800" on="1"/>
        <pt x="382" y="800" on="1"/>
        <pt x="333" y="851" on="1"/>
        <pt x="283" y="800" on="1"/>
      </contour>
      <contour>
        <pt x="548" y="549" on="1"/>
        <pt x="446" y="566" on="0"/>
        <pt x="285" y="566" on="0"/>
        <pt x="267" y="555" on="1"/>
        <pt x="225" y="530" on="0"/>
        <pt x="225" y="366" on="1"/>
        <pt x="225" y="242" on="0"/>
        <pt x="270" y="168" on="0"/>
        <pt x="345" y="168" on="1"/>
        <pt x="449" y="168" on="0"/>
        <pt x="520" y="174" on="1"/>
        <pt x="548" y="177" on="1"/>
        <pt x="548" y="26" on="1"/>
        <pt x="500" y="6" on="0"/>
        <pt x="404" y="-6" on="0"/>
        <pt x="308" y="-6" on="0"/>
        <pt x="284" y="-6" on="1"/>
        <pt x="148" y="-4" on="0"/>
        <pt x="31" y="179" on="0"/>
        <pt x="31" y="556" on="0"/>
        <pt x="142" y="740" on="0"/>
        <pt x="284" y="740" on="1"/>
        <pt x="388" y="740" on="0"/>
        <pt x="481" y="725" on="0"/>
        <pt x="548" y="700" on="1"/>
      </contour>
    </TTGlyph>
    <TTGlyph name="Cdotaccent" xMin="31" yMin="-7" xMax="548" yMax="942">
      <contour>
        <pt x="256" y="823" on="1"/>
        <pt x="256" y="917" on="1"/>
        <pt x="256" y="942" on="0"/>
        <pt x="280" y="942" on="1"/>
        <pt x="370" y="942" on="1"/>
        <pt x="393" y="942" on="0"/>
        <pt x="393" y="917" on="1"/>
        <pt x="393" y="823" on="1"/>
        <pt x="393" y="800" on="0"/>
        <pt x="370" y="800" on="1"/>
        <pt x="280" y="800" on="1"/>
        <pt x="256" y="800" on="0"/>
      </contour>
      <contour>
        <pt x="548" y="549" on="1"/>
        <pt x="446" y="566" on="0"/>
        <pt x="285" y="566" on="0"/>
        <pt x="267" y="555" on="1"/>
        <pt x="225" y="530" on="0"/>
        <pt x="225" y="366" on="1"/>
        <pt x="225" y="242" on="0"/>
        <pt x="270" y="168" on="0"/>
        <pt x="345" y="168" on="1"/>
        <pt x="449" y="168" on="0"/>
        <pt x="520" y="174" on="1"/>
        <pt x="548" y="177" on="1"/>
        <pt x="548" y="26" on="1"/>
        <pt x="500" y="6" on="0"/>
        <pt x="404" y="-6" on="0"/>
        <pt x="308" y="-6" on="0"/>
        <pt x="284" y="-6" on="1"/>
        <pt x="148" y="-4" on="0"/>
        <pt x="31" y="179" on="0"/>
        <pt x="31" y="556" on="0"/>
        <pt x="142" y="740" on="0"/>
        <pt x="284" y="740" on="1"/>
        <pt x="388" y="740" on="0"/>
        <pt x="481" y="725" on="0"/>
        <pt x="548" y="700" on="1"/>
      </contour>
    </TTGlyph>
    <TTGlyph name="D" xMin="45" yMin="0" xMax="637" yMax="732">
      <contour>
        <pt x="45" y="0" on="1"/>
        <pt x="45" y="732" on="1"/>
        <pt x="388" y="732" on="1"/>
        <pt x="599" y="732" on="0"/>
        <pt x="630" y="482" on="1"/>
        <pt x="637" y="429" on="0"/>
        <pt x="637" y="363" on="1"/>
        <pt x="637" y="173" on="0"/>
        <pt x="515" y="0" on="0"/>
        <pt x="388" y="0" on="1"/>
      </contour>
      <contour>
        <pt x="239" y="164" on="1"/>
        <pt x="368" y="164" on="1"/>
        <pt x="410" y="164" on="0"/>
        <pt x="443" y="256" on="0"/>
        <pt x="443" y="451" on="0"/>
        <pt x="424" y="543" on="0"/>
        <pt x="394" y="568" on="0"/>
        <pt x="368" y="568" on="1"/>
        <pt x="239" y="568" on="1"/>
      </contour>
    </TTGlyph>
    <TTGlyph name="Dcaron" xMin="45" yMin="0" xMax="637" yMax="937">
      <contour>
        <pt x="157" y="937" on="1"/>
        <pt x="268" y="937" on="1"/>
        <pt x="317" y="886" on="1"/>
        <pt x="367" y="937" on="1"/>
        <pt x="479" y="937" on="1"/>
        <pt x="379" y="797" on="1"/>
        <pt x="248" y="797" on="1"/>
      </contour>
      <contour>
        <pt x="45" y="0" on="1"/>
        <pt x="45" y="732" on="1"/>
        <pt x="388" y="732" on="1"/>
        <pt x="599" y="732" on="0"/>
        <pt x="630" y="482" on="1"/>
        <pt x="637" y="429" on="0"/>
        <pt x="637" y="363" on="1"/>
        <pt x="637" y="173" on="0"/>
        <pt x="515" y="0" on="0"/>
        <pt x="388" y="0" on="1"/>
      </contour>
      <contour>
        <pt x="239" y="164" on="1"/>
        <pt x="368" y="164" on="1"/>
        <pt x="410" y="164" on="0"/>
        <pt x="443" y="256" on="0"/>
        <pt x="443" y="451" on="0"/>
        <pt x="424" y="543" on="0"/>
        <pt x="394" y="568" on="0"/>
        <pt x="368" y="568" on="1"/>
        <pt x="239" y="568" on="1"/>
      </contour>
    </TTGlyph>
    <TTGlyph name="Dcroat" xMin="-20" yMin="0" xMax="637" yMax="732">
      <contour>
        <pt x="-20" y="336" on="1"/>
        <pt x="-20" y="410" on="1"/>
        <pt x="45" y="410" on="1"/>
        <pt x="45" y="732" on="1"/>
        <pt x="388" y="732" on="1"/>
        <pt x="599" y="732" on="0"/>
        <pt x="630" y="482" on="1"/>
        <pt x="637" y="429" on="0"/>
        <pt x="637" y="363" on="1"/>
        <pt x="637" y="173" on="0"/>
        <pt x="515" y="0" on="0"/>
        <pt x="388" y="0" on="1"/>
        <pt x="45" y="0" on="1"/>
        <pt x="45" y="336" on="1"/>
      </contour>
      <contour>
        <pt x="239" y="164" on="1"/>
        <pt x="368" y="164" on="1"/>
        <pt x="410" y="164" on="0"/>
        <pt x="443" y="256" on="0"/>
        <pt x="443" y="451" on="0"/>
        <pt x="424" y="543" on="0"/>
        <pt x="394" y="568" on="0"/>
        <pt x="368" y="568" on="1"/>
        <pt x="239" y="568" on="1"/>
        <pt x="239" y="410" on="1"/>
        <pt x="328" y="410" on="1"/>
        <pt x="328" y="336" on="1"/>
        <pt x="239" y="336" on="1"/>
      </contour>
    </TTGlyph>
    <TTGlyph name="E" xMin="40" yMin="-4" xMax="553" yMax="732">
      <contour>
        <pt x="40" y="161" on="1"/>
        <pt x="40" y="562" on="1"/>
        <pt x="40" y="732" on="0"/>
        <pt x="226" y="732" on="1"/>
        <pt x="436" y="732" on="0"/>
        <pt x="553" y="716" on="1"/>
        <pt x="553" y="553" on="1"/>
        <pt x="286" y="553" on="1"/>
        <pt x="262" y="553" on="0"/>
        <pt x="237" y="534" on="0"/>
        <pt x="234" y="515" on="0"/>
        <pt x="234" y="497" on="1"/>
        <pt x="234" y="453" on="1"/>
        <pt x="503" y="442" on="1"/>
        <pt x="503" y="281" on="1"/>
        <pt x="234" y="272" on="1"/>
        <pt x="234" y="228" on="1"/>
        <pt x="234" y="190" on="0"/>
        <pt x="255" y="182" on="1"/>
        <pt x="272" y="176" on="0"/>
        <pt x="296" y="176" on="1"/>
        <pt x="553" y="176" on="1"/>
        <pt x="553" y="14" on="1"/>
        <pt x="452" y="1" on="0"/>
        <pt x="292" y="-2" on="1"/>
        <pt x="236" y="-3" on="1"/>
        <pt x="228" y="-3" on="0"/>
        <pt x="205" y="-3" on="0"/>
        <pt x="168" y="0" on="0"/>
        <pt x="111" y="20" on="0"/>
        <pt x="69" y="53" on="0"/>
        <pt x="40" y="117" on="0"/>
      </contour>
    </TTGlyph>
    <TTGlyph name="Eacute" xMin="40" yMin="-4" xMax="553" yMax="940">
      <contour>
        <pt x="266" y="797" on="1"/>
        <pt x="343" y="940" on="1"/>
        <pt x="488" y="940" on="1"/>
        <pt x="375" y="797" on="1"/>
      </contour>
      <contour>
        <pt x="40" y="161" on="1"/>
        <pt x="40" y="562" on="1"/>
        <pt x="40" y="732" on="0"/>
        <pt x="226" y="732" on="1"/>
        <pt x="436" y="732" on="0"/>
        <pt x="553" y="716" on="1"/>
        <pt x="553" y="553" on="1"/>
        <pt x="286" y="553" on="1"/>
        <pt x="262" y="553" on="0"/>
        <pt x="237" y="534" on="0"/>
        <pt x="234" y="515" on="0"/>
        <pt x="234" y="497" on="1"/>
        <pt x="234" y="453" on="1"/>
        <pt x="503" y="442" on="1"/>
        <pt x="503" y="281" on="1"/>
        <pt x="234" y="272" on="1"/>
        <pt x="234" y="228" on="1"/>
        <pt x="234" y="190" on="0"/>
        <pt x="255" y="182" on="1"/>
        <pt x="272" y="176" on="0"/>
        <pt x="296" y="176" on="1"/>
        <pt x="553" y="176" on="1"/>
        <pt x="553" y="14" on="1"/>
        <pt x="452" y="1" on="0"/>
        <pt x="292" y="-2" on="1"/>
        <pt x="236" y="-3" on="1"/>
        <pt x="228" y="-3" on="0"/>
        <pt x="205" y="-3" on="0"/>
        <pt x="168" y="0" on="0"/>
        <pt x="111" y="20" on="0"/>
        <pt x="69" y="53" on="0"/>
        <pt x="40" y="117" on="0"/>
      </contour>
    </TTGlyph>
    <TTGlyph name="Ecaron" xMin="40" yMin="-4" xMax="553" yMax="937">
      <contour>
        <pt x="162" y="937" on="1"/>
        <pt x="273" y="937" on="1"/>
        <pt x="322" y="886" on="1"/>
        <pt x="372" y="937" on="1"/>
        <pt x="484" y="937" on="1"/>
        <pt x="384" y="797" on="1"/>
        <pt x="253" y="797" on="1"/>
      </contour>
      <contour>
        <pt x="40" y="161" on="1"/>
        <pt x="40" y="562" on="1"/>
        <pt x="40" y="732" on="0"/>
        <pt x="226" y="732" on="1"/>
        <pt x="436" y="732" on="0"/>
        <pt x="553" y="716" on="1"/>
        <pt x="553" y="553" on="1"/>
        <pt x="286" y="553" on="1"/>
        <pt x="262" y="553" on="0"/>
        <pt x="237" y="534" on="0"/>
        <pt x="234" y="515" on="0"/>
        <pt x="234" y="497" on="1"/>
        <pt x="234" y="453" on="1"/>
        <pt x="503" y="442" on="1"/>
        <pt x="503" y="281" on="1"/>
        <pt x="234" y="272" on="1"/>
        <pt x="234" y="228" on="1"/>
        <pt x="234" y="190" on="0"/>
        <pt x="255" y="182" on="1"/>
        <pt x="272" y="176" on="0"/>
        <pt x="296" y="176" on="1"/>
        <pt x="553" y="176" on="1"/>
        <pt x="553" y="14" on="1"/>
        <pt x="452" y="1" on="0"/>
        <pt x="292" y="-2" on="1"/>
        <pt x="236" y="-3" on="1"/>
        <pt x="228" y="-3" on="0"/>
        <pt x="205" y="-3" on="0"/>
        <pt x="168" y="0" on="0"/>
        <pt x="111" y="20" on="0"/>
        <pt x="69" y="53" on="0"/>
        <pt x="40" y="117" on="0"/>
      </contour>
    </TTGlyph>
    <TTGlyph name="Ecircumflex" xMin="40" yMin="-4" xMax="553" yMax="937">
      <contour>
        <pt x="158" y="797" on="1"/>
        <pt x="258" y="937" on="1"/>
        <pt x="389" y="937" on="1"/>
        <pt x="480" y="797" on="1"/>
        <pt x="369" y="797" on="1"/>
        <pt x="320" y="848" on="1"/>
        <pt x="270" y="797" on="1"/>
      </contour>
      <contour>
        <pt x="40" y="161" on="1"/>
        <pt x="40" y="562" on="1"/>
        <pt x="40" y="732" on="0"/>
        <pt x="226" y="732" on="1"/>
        <pt x="436" y="732" on="0"/>
        <pt x="553" y="716" on="1"/>
        <pt x="553" y="553" on="1"/>
        <pt x="286" y="553" on="1"/>
        <pt x="262" y="553" on="0"/>
        <pt x="237" y="534" on="0"/>
        <pt x="234" y="515" on="0"/>
        <pt x="234" y="497" on="1"/>
        <pt x="234" y="453" on="1"/>
        <pt x="503" y="442" on="1"/>
        <pt x="503" y="281" on="1"/>
        <pt x="234" y="272" on="1"/>
        <pt x="234" y="228" on="1"/>
        <pt x="234" y="190" on="0"/>
        <pt x="255" y="182" on="1"/>
        <pt x="272" y="176" on="0"/>
        <pt x="296" y="176" on="1"/>
        <pt x="553" y="176" on="1"/>
        <pt x="553" y="14" on="1"/>
        <pt x="452" y="1" on="0"/>
        <pt x="292" y="-2" on="1"/>
        <pt x="236" y="-3" on="1"/>
        <pt x="228" y="-3" on="0"/>
        <pt x="205" y="-3" on="0"/>
        <pt x="168" y="0" on="0"/>
        <pt x="111" y="20" on="0"/>
        <pt x="69" y="53" on="0"/>
        <pt x="40" y="117" on="0"/>
      </contour>
    </TTGlyph>
    <TTGlyph name="Edieresis" xMin="40" yMin="-4" xMax="553" yMax="928">
      <contour>
        <pt x="116" y="836" on="0"/>
        <pt x="116" y="890" on="0"/>
        <pt x="155" y="928" on="0"/>
        <pt x="209" y="928" on="0"/>
        <pt x="247" y="890" on="0"/>
        <pt x="247" y="836" on="0"/>
        <pt x="209" y="797" on="0"/>
        <pt x="155" y="797" on="0"/>
      </contour>
      <contour>
        <pt x="371" y="836" on="0"/>
        <pt x="371" y="890" on="0"/>
        <pt x="410" y="928" on="0"/>
        <pt x="464" y="928" on="0"/>
        <pt x="502" y="890" on="0"/>
        <pt x="502" y="836" on="0"/>
        <pt x="464" y="797" on="0"/>
        <pt x="410" y="797" on="0"/>
      </contour>
      <contour>
        <pt x="40" y="161" on="1"/>
        <pt x="40" y="562" on="1"/>
        <pt x="40" y="732" on="0"/>
        <pt x="226" y="732" on="1"/>
        <pt x="436" y="732" on="0"/>
        <pt x="553" y="716" on="1"/>
        <pt x="553" y="553" on="1"/>
        <pt x="286" y="553" on="1"/>
        <pt x="262" y="553" on="0"/>
        <pt x="237" y="534" on="0"/>
        <pt x="234" y="515" on="0"/>
        <pt x="234" y="497" on="1"/>
        <pt x="234" y="453" on="1"/>
        <pt x="503" y="442" on="1"/>
        <pt x="503" y="281" on="1"/>
        <pt x="234" y="272" on="1"/>
        <pt x="234" y="228" on="1"/>
        <pt x="234" y="190" on="0"/>
        <pt x="255" y="182" on="1"/>
        <pt x="272" y="176" on="0"/>
        <pt x="296" y="176" on="1"/>
        <pt x="553" y="176" on="1"/>
        <pt x="553" y="14" on="1"/>
        <pt x="452" y="1" on="0"/>
        <pt x="292" y="-2" on="1"/>
        <pt x="236" y="-3" on="1"/>
        <pt x="228" y="-3" on="0"/>
        <pt x="205" y="-3" on="0"/>
        <pt x="168" y="0" on="0"/>
        <pt x="111" y="20" on="0"/>
        <pt x="69" y="53" on="0"/>
        <pt x="40" y="117" on="0"/>
      </contour>
    </TTGlyph>
    <TTGlyph name="Edotaccent" xMin="40" yMin="-4" xMax="553" yMax="939">
      <contour>
        <pt x="260" y="820" on="1"/>
        <pt x="260" y="914" on="1"/>
        <pt x="260" y="939" on="0"/>
        <pt x="284" y="939" on="1"/>
        <pt x="374" y="939" on="1"/>
        <pt x="397" y="939" on="0"/>
        <pt x="397" y="914" on="1"/>
        <pt x="397" y="820" on="1"/>
        <pt x="397" y="797" on="0"/>
        <pt x="374" y="797" on="1"/>
        <pt x="284" y="797" on="1"/>
        <pt x="260" y="797" on="0"/>
      </contour>
      <contour>
        <pt x="40" y="161" on="1"/>
        <pt x="40" y="562" on="1"/>
        <pt x="40" y="732" on="0"/>
        <pt x="226" y="732" on="1"/>
        <pt x="436" y="732" on="0"/>
        <pt x="553" y="716" on="1"/>
        <pt x="553" y="553" on="1"/>
        <pt x="286" y="553" on="1"/>
        <pt x="262" y="553" on="0"/>
        <pt x="237" y="534" on="0"/>
        <pt x="234" y="515" on="0"/>
        <pt x="234" y="497" on="1"/>
        <pt x="234" y="453" on="1"/>
        <pt x="503" y="442" on="1"/>
        <pt x="503" y="281" on="1"/>
        <pt x="234" y="272" on="1"/>
        <pt x="234" y="228" on="1"/>
        <pt x="234" y="190" on="0"/>
        <pt x="255" y="182" on="1"/>
        <pt x="272" y="176" on="0"/>
        <pt x="296" y="176" on="1"/>
        <pt x="553" y="176" on="1"/>
        <pt x="553" y="14" on="1"/>
        <pt x="452" y="1" on="0"/>
        <pt x="292" y="-2" on="1"/>
        <pt x="236" y="-3" on="1"/>
        <pt x="228" y="-3" on="0"/>
        <pt x="205" y="-3" on="0"/>
        <pt x="168" y="0" on="0"/>
        <pt x="111" y="20" on="0"/>
        <pt x="69" y="53" on="0"/>
        <pt x="40" y="117" on="0"/>
      </contour>
    </TTGlyph>
    <TTGlyph name="Egrave" xMin="40" yMin="-4" xMax="553" yMax="941">
      <contour>
        <pt x="155" y="941" on="1"/>
        <pt x="300" y="941" on="1"/>
        <pt x="377" y="798" on="1"/>
        <pt x="268" y="798" on="1"/>
      </contour>
      <contour>
        <pt x="40" y="161" on="1"/>
        <pt x="40" y="562" on="1"/>
        <pt x="40" y="732" on="0"/>
        <pt x="226" y="732" on="1"/>
        <pt x="436" y="732" on="0"/>
        <pt x="553" y="716" on="1"/>
        <pt x="553" y="553" on="1"/>
        <pt x="286" y="553" on="1"/>
        <pt x="262" y="553" on="0"/>
        <pt x="237" y="534" on="0"/>
        <pt x="234" y="515" on="0"/>
        <pt x="234" y="497" on="1"/>
        <pt x="234" y="453" on="1"/>
        <pt x="503" y="442" on="1"/>
        <pt x="503" y="281" on="1"/>
        <pt x="234" y="272" on="1"/>
        <pt x="234" y="228" on="1"/>
        <pt x="234" y="190" on="0"/>
        <pt x="255" y="182" on="1"/>
        <pt x="272" y="176" on="0"/>
        <pt x="296" y="176" on="1"/>
        <pt x="553" y="176" on="1"/>
        <pt x="553" y="14" on="1"/>
        <pt x="452" y="1" on="0"/>
        <pt x="292" y="-2" on="1"/>
        <pt x="236" y="-3" on="1"/>
        <pt x="228" y="-3" on="0"/>
        <pt x="205" y="-3" on="0"/>
        <pt x="168" y="0" on="0"/>
        <pt x="111" y="20" on="0"/>
        <pt x="69" y="53" on="0"/>
        <pt x="40" y="117" on="0"/>
      </contour>
    </TTGlyph>
    <TTGlyph name="Emacron" xMin="40" yMin="-4" xMax="553" yMax="890">
      <contour>
        <pt x="160" y="797" on="1"/>
        <pt x="160" y="890" on="1"/>
        <pt x="452" y="890" on="1"/>
        <pt x="452" y="797" on="1"/>
      </contour>
      <contour>
        <pt x="40" y="161" on="1"/>
        <pt x="40" y="562" on="1"/>
        <pt x="40" y="732" on="0"/>
        <pt x="226" y="732" on="1"/>
        <pt x="436" y="732" on="0"/>
        <pt x="553" y="716" on="1"/>
        <pt x="553" y="553" on="1"/>
        <pt x="286" y="553" on="1"/>
        <pt x="262" y="553" on="0"/>
        <pt x="237" y="534" on="0"/>
        <pt x="234" y="515" on="0"/>
        <pt x="234" y="497" on="1"/>
        <pt x="234" y="453" on="1"/>
        <pt x="503" y="442" on="1"/>
        <pt x="503" y="281" on="1"/>
        <pt x="234" y="272" on="1"/>
        <pt x="234" y="228" on="1"/>
        <pt x="234" y="190" on="0"/>
        <pt x="255" y="182" on="1"/>
        <pt x="272" y="176" on="0"/>
        <pt x="296" y="176" on="1"/>
        <pt x="553" y="176" on="1"/>
        <pt x="553" y="14" on="1"/>
        <pt x="452" y="1" on="0"/>
        <pt x="292" y="-2" on="1"/>
        <pt x="236" y="-3" on="1"/>
        <pt x="228" y="-3" on="0"/>
        <pt x="205" y="-3" on="0"/>
        <pt x="168" y="0" on="0"/>
        <pt x="111" y="20" on="0"/>
        <pt x="69" y="53" on="0"/>
        <pt x="40" y="117" on="0"/>
      </contour>
    </TTGlyph>
    <TTGlyph name="Eng" xMin="45" yMin="-261" xMax="644" yMax="732">
      <contour>
        <pt x="45" y="0" on="1"/>
        <pt x="45" y="732" on="1"/>
        <pt x="241" y="732" on="1"/>
        <pt x="450" y="358" on="1"/>
        <pt x="450" y="732" on="1"/>
        <pt x="644" y="732" on="1"/>
        <pt x="644" y="-64" on="1"/>
        <pt x="644" y="-261" on="0"/>
        <pt x="425" y="-261" on="1"/>
        <pt x="395" y="-261" on="0"/>
        <pt x="360" y="-257" on="1"/>
        <pt x="360" y="-120" on="1"/>
        <pt x="431" y="-120" on="0"/>
        <pt x="444" y="-94" on="1"/>
        <pt x="450" y="-81" on="0"/>
        <pt x="450" y="-60" on="1"/>
        <pt x="450" y="0" on="1"/>
        <pt x="240" y="364" on="1"/>
        <pt x="240" y="0" on="1"/>
      </contour>
    </TTGlyph>
    <TTGlyph name="Eogonek" xMin="40" yMin="-181" xMax="566" yMax="732">
      <contour>
        <pt x="484" y="15" on="1"/>
        <pt x="553" y="15" on="1"/>
        <pt x="492" y="-27" on="0"/>
        <pt x="524" y="-68" on="1"/>
        <pt x="541" y="-90" on="0"/>
        <pt x="566" y="-86" on="1"/>
        <pt x="566" y="-176" on="1"/>
        <pt x="551" y="-181" on="0"/>
        <pt x="529" y="-181" on="0"/>
        <pt x="501" y="-178" on="0"/>
        <pt x="483" y="-167" on="1"/>
        <pt x="423" y="-129" on="0"/>
        <pt x="423" y="-20" on="0"/>
      </contour>
      <contour>
        <pt x="40" y="161" on="1"/>
        <pt x="40" y="562" on="1"/>
        <pt x="40" y="732" on="0"/>
        <pt x="226" y="732" on="1"/>
        <pt x="436" y="732" on="0"/>
        <pt x="553" y="716" on="1"/>
        <pt x="553" y="553" on="1"/>
        <pt x="286" y="553" on="1"/>
        <pt x="262" y="553" on="0"/>
        <pt x="237" y="534" on="0"/>
        <pt x="234" y="515" on="0"/>
        <pt x="234" y="497" on="1"/>
        <pt x="234" y="453" on="1"/>
        <pt x="503" y="442" on="1"/>
        <pt x="503" y="281" on="1"/>
        <pt x="234" y="272" on="1"/>
        <pt x="234" y="228" on="1"/>
        <pt x="234" y="190" on="0"/>
        <pt x="255" y="182" on="1"/>
        <pt x="272" y="176" on="0"/>
        <pt x="296" y="176" on="1"/>
        <pt x="553" y="176" on="1"/>
        <pt x="553" y="14" on="1"/>
        <pt x="452" y="1" on="0"/>
        <pt x="292" y="-2" on="1"/>
        <pt x="236" y="-3" on="1"/>
        <pt x="228" y="-3" on="0"/>
        <pt x="205" y="-3" on="0"/>
        <pt x="168" y="0" on="0"/>
        <pt x="111" y="20" on="0"/>
        <pt x="69" y="53" on="0"/>
        <pt x="40" y="117" on="0"/>
      </contour>
    </TTGlyph>
    <TTGlyph name="Eth" xMin="-20" yMin="0" xMax="637" yMax="732">
      <contour>
        <pt x="-20" y="336" on="1"/>
        <pt x="-20" y="410" on="1"/>
        <pt x="45" y="410" on="1"/>
        <pt x="45" y="732" on="1"/>
        <pt x="388" y="732" on="1"/>
        <pt x="599" y="732" on="0"/>
        <pt x="630" y="482" on="1"/>
        <pt x="637" y="429" on="0"/>
        <pt x="637" y="363" on="1"/>
        <pt x="637" y="173" on="0"/>
        <pt x="515" y="0" on="0"/>
        <pt x="388" y="0" on="1"/>
        <pt x="45" y="0" on="1"/>
        <pt x="45" y="336" on="1"/>
      </contour>
      <contour>
        <pt x="239" y="164" on="1"/>
        <pt x="368" y="164" on="1"/>
        <pt x="410" y="164" on="0"/>
        <pt x="443" y="256" on="0"/>
        <pt x="443" y="451" on="0"/>
        <pt x="424" y="543" on="0"/>
        <pt x="394" y="568" on="0"/>
        <pt x="368" y="568" on="1"/>
        <pt x="239" y="568" on="1"/>
        <pt x="239" y="410" on="1"/>
        <pt x="328" y="410" on="1"/>
        <pt x="328" y="336" on="1"/>
        <pt x="239" y="336" on="1"/>
      </contour>
    </TTGlyph>
    <TTGlyph name="Euro" xMin="11" yMin="-6" xMax="612" yMax="740">
      <contour>
        <pt x="163" y="698" on="0"/>
        <pt x="264" y="740" on="0"/>
        <pt x="389" y="740" on="0"/>
        <pt x="551" y="721" on="0"/>
        <pt x="608" y="700" on="1"/>
        <pt x="608" y="561" on="1"/>
        <pt x="475" y="576" on="0"/>
        <pt x="348" y="576" on="0"/>
        <pt x="298" y="567" on="0"/>
        <pt x="277" y="537" on="0"/>
        <pt x="273" y="512" on="0"/>
        <pt x="273" y="480" on="1"/>
        <pt x="507" y="473" on="1"/>
        <pt x="507" y="387" on="1"/>
        <pt x="273" y="380" on="1"/>
        <pt x="273" y="339" on="1"/>
        <pt x="507" y="332" on="1"/>
        <pt x="507" y="245" on="1"/>
        <pt x="476" y="245" on="0"/>
        <pt x="272" y="239" on="0"/>
        <pt x="273" y="238" on="1"/>
        <pt x="273" y="190" on="0"/>
        <pt x="298" y="167" on="1"/>
        <pt x="315" y="150" on="0"/>
        <pt x="358" y="148" on="1"/>
        <pt x="369" y="148" on="0"/>
        <pt x="400" y="148" on="1"/>
        <pt x="465" y="148" on="0"/>
        <pt x="576" y="168" on="1"/>
        <pt x="612" y="175" on="1"/>
        <pt x="612" y="39" on="1"/>
        <pt x="565" y="12" on="0"/>
        <pt x="436" y="-6" on="0"/>
        <pt x="303" y="-6" on="0"/>
        <pt x="249" y="1" on="0"/>
        <pt x="173" y="30" on="0"/>
        <pt x="118" y="79" on="0"/>
        <pt x="79" y="174" on="0"/>
        <pt x="79" y="238" on="1"/>
        <pt x="11" y="245" on="1"/>
        <pt x="11" y="332" on="1"/>
        <pt x="79" y="339" on="1"/>
        <pt x="79" y="380" on="1"/>
        <pt x="11" y="388" on="1"/>
        <pt x="11" y="471" on="1"/>
        <pt x="79" y="480" on="1"/>
        <pt x="79" y="510" on="0"/>
        <pt x="84" y="561" on="0"/>
        <pt x="113" y="642" on="0"/>
      </contour>
    </TTGlyph>
    <TTGlyph name="Euro.smcp" xMin="9" yMin="-5" xMax="504" yMax="577">
      <contour>
        <pt x="294" y="577" on="1"/>
        <pt x="374" y="577" on="0"/>
        <pt x="501" y="554" on="1"/>
        <pt x="501" y="412" on="1"/>
        <pt x="384" y="423" on="0"/>
        <pt x="343" y="423" on="1"/>
        <pt x="297" y="423" on="1"/>
        <pt x="270" y="423" on="0"/>
        <pt x="265" y="417" on="1"/>
        <pt x="252" y="402" on="0"/>
        <pt x="252" y="382" on="1"/>
        <pt x="417" y="376" on="1"/>
        <pt x="417" y="300" on="1"/>
        <pt x="252" y="295" on="1"/>
        <pt x="252" y="276" on="1"/>
        <pt x="417" y="271" on="1"/>
        <pt x="417" y="194" on="1"/>
        <pt x="406" y="194" on="0"/>
        <pt x="372" y="193" on="0"/>
        <pt x="336" y="192" on="1"/>
        <pt x="250" y="190" on="0"/>
        <pt x="252" y="188" on="1"/>
        <pt x="252" y="165" on="0"/>
        <pt x="266" y="158" on="1"/>
        <pt x="280" y="152" on="0"/>
        <pt x="290" y="152" on="1"/>
        <pt x="305" y="152" on="0"/>
        <pt x="328" y="152" on="1"/>
        <pt x="393" y="152" on="0"/>
        <pt x="474" y="162" on="1"/>
        <pt x="504" y="165" on="1"/>
        <pt x="504" y="23" on="1"/>
        <pt x="448" y="-5" on="0"/>
        <pt x="270" y="-5" on="1"/>
        <pt x="151" y="-5" on="0"/>
        <pt x="104" y="44" on="1"/>
        <pt x="57" y="92" on="0"/>
        <pt x="57" y="188" on="1"/>
        <pt x="9" y="194" on="1"/>
        <pt x="9" y="271" on="1"/>
        <pt x="57" y="276" on="1"/>
        <pt x="57" y="295" on="1"/>
        <pt x="9" y="301" on="1"/>
        <pt x="9" y="375" on="1"/>
        <pt x="57" y="382" on="1"/>
        <pt x="57" y="476" on="0"/>
        <pt x="108" y="525" on="1"/>
        <pt x="161" y="577" on="0"/>
      </contour>
    </TTGlyph>
    <TTGlyph name="F" xMin="40" yMin="0" xMax="553" yMax="732">
      <contour>
        <pt x="40" y="0" on="1"/>
        <pt x="40" y="558" on="1"/>
        <pt x="40" y="656" on="0"/>
        <pt x="102" y="697" on="1"/>
        <pt x="154" y="732" on="0"/>
        <pt x="226" y="732" on="1"/>
        <pt x="436" y="732" on="0"/>
        <pt x="553" y="716" on="1"/>
        <pt x="553" y="553" on="1"/>
        <pt x="286" y="553" on="1"/>
        <pt x="262" y="553" on="0"/>
        <pt x="237" y="534" on="0"/>
        <pt x="234" y="515" on="0"/>
        <pt x="234" y="497" on="1"/>
        <pt x="234" y="453" on="1"/>
        <pt x="503" y="442" on="1"/>
        <pt x="503" y="281" on="1"/>
        <pt x="234" y="272" on="1"/>
        <pt x="234" y="0" on="1"/>
      </contour>
    </TTGlyph>
    <TTGlyph name="G" xMin="31" yMin="-6" xMax="585" yMax="740">
      <contour>
        <pt x="40" y="198" on="0"/>
        <pt x="31" y="301" on="0"/>
        <pt x="31" y="460" on="0"/>
        <pt x="52" y="586" on="0"/>
        <pt x="78" y="638" on="1"/>
        <pt x="130" y="740" on="0"/>
        <pt x="274" y="740" on="1"/>
        <pt x="396" y="740" on="0"/>
        <pt x="479" y="730" on="0"/>
        <pt x="578" y="703" on="1"/>
        <pt x="578" y="554" on="1"/>
        <pt x="577" y="554" on="0"/>
        <pt x="549" y="559" on="0"/>
        <pt x="502" y="565" on="0"/>
        <pt x="474" y="568" on="1"/>
        <pt x="398" y="576" on="0"/>
        <pt x="266" y="576" on="0"/>
        <pt x="225" y="493" on="0"/>
        <pt x="225" y="241" on="0"/>
        <pt x="255" y="173" on="0"/>
        <pt x="319" y="173" on="1"/>
        <pt x="347" y="173" on="0"/>
        <pt x="383" y="196" on="0"/>
        <pt x="387" y="208" on="1"/>
        <pt x="391" y="219" on="1"/>
        <pt x="391" y="294" on="1"/>
        <pt x="342" y="294" on="1"/>
        <pt x="342" y="414" on="1"/>
        <pt x="389" y="439" on="0"/>
        <pt x="517" y="439" on="1"/>
        <pt x="549" y="439" on="0"/>
        <pt x="585" y="436" on="1"/>
        <pt x="585" y="0" on="1"/>
        <pt x="448" y="0" on="1"/>
        <pt x="393" y="49" on="1"/>
        <pt x="371" y="20" on="0"/>
        <pt x="348" y="10" on="1"/>
        <pt x="316" y="-6" on="0"/>
        <pt x="201" y="-6" on="0"/>
        <pt x="121" y="29" on="0"/>
        <pt x="70" y="94" on="0"/>
      </contour>
    </TTGlyph>
    <TTGlyph name="Gbreve" xMin="31" yMin="-6" xMax="585" yMax="914">
      <contour>
        <pt x="204" y="914" on="1"/>
        <pt x="271" y="914" on="1"/>
        <pt x="271" y="867" on="0"/>
        <pt x="367" y="867" on="0"/>
        <pt x="367" y="914" on="1"/>
        <pt x="434" y="914" on="1"/>
        <pt x="434" y="863" on="0"/>
        <pt x="371" y="800" on="0"/>
        <pt x="266" y="800" on="0"/>
        <pt x="204" y="863" on="0"/>
      </contour>
      <contour>
        <pt x="40" y="198" on="0"/>
        <pt x="31" y="301" on="0"/>
        <pt x="31" y="460" on="0"/>
        <pt x="52" y="586" on="0"/>
        <pt x="78" y="638" on="1"/>
        <pt x="130" y="740" on="0"/>
        <pt x="274" y="740" on="1"/>
        <pt x="396" y="740" on="0"/>
        <pt x="479" y="730" on="0"/>
        <pt x="578" y="703" on="1"/>
        <pt x="578" y="554" on="1"/>
        <pt x="577" y="554" on="0"/>
        <pt x="549" y="559" on="0"/>
        <pt x="502" y="565" on="0"/>
        <pt x="474" y="568" on="1"/>
        <pt x="398" y="576" on="0"/>
        <pt x="266" y="576" on="0"/>
        <pt x="225" y="493" on="0"/>
        <pt x="225" y="241" on="0"/>
        <pt x="255" y="173" on="0"/>
        <pt x="319" y="173" on="1"/>
        <pt x="347" y="173" on="0"/>
        <pt x="383" y="196" on="0"/>
        <pt x="387" y="208" on="1"/>
        <pt x="391" y="219" on="1"/>
        <pt x="391" y="294" on="1"/>
        <pt x="342" y="294" on="1"/>
        <pt x="342" y="414" on="1"/>
        <pt x="389" y="439" on="0"/>
        <pt x="517" y="439" on="1"/>
        <pt x="549" y="439" on="0"/>
        <pt x="585" y="436" on="1"/>
        <pt x="585" y="0" on="1"/>
        <pt x="448" y="0" on="1"/>
        <pt x="393" y="49" on="1"/>
        <pt x="371" y="20" on="0"/>
        <pt x="348" y="10" on="1"/>
        <pt x="316" y="-6" on="0"/>
        <pt x="201" y="-6" on="0"/>
        <pt x="121" y="29" on="0"/>
        <pt x="70" y="94" on="0"/>
      </contour>
    </TTGlyph>
    <TTGlyph name="Gcircumflex" xMin="31" yMin="-6" xMax="585" yMax="940">
      <contour>
        <pt x="171" y="800" on="1"/>
        <pt x="271" y="940" on="1"/>
        <pt x="402" y="940" on="1"/>
        <pt x="493" y="800" on="1"/>
        <pt x="382" y="800" on="1"/>
        <pt x="333" y="851" on="1"/>
        <pt x="283" y="800" on="1"/>
      </contour>
      <contour>
        <pt x="40" y="198" on="0"/>
        <pt x="31" y="301" on="0"/>
        <pt x="31" y="460" on="0"/>
        <pt x="52" y="586" on="0"/>
        <pt x="78" y="638" on="1"/>
        <pt x="130" y="740" on="0"/>
        <pt x="274" y="740" on="1"/>
        <pt x="396" y="740" on="0"/>
        <pt x="479" y="730" on="0"/>
        <pt x="578" y="703" on="1"/>
        <pt x="578" y="554" on="1"/>
        <pt x="577" y="554" on="0"/>
        <pt x="549" y="559" on="0"/>
        <pt x="502" y="565" on="0"/>
        <pt x="474" y="568" on="1"/>
        <pt x="398" y="576" on="0"/>
        <pt x="266" y="576" on="0"/>
        <pt x="225" y="493" on="0"/>
        <pt x="225" y="241" on="0"/>
        <pt x="255" y="173" on="0"/>
        <pt x="319" y="173" on="1"/>
        <pt x="347" y="173" on="0"/>
        <pt x="383" y="196" on="0"/>
        <pt x="387" y="208" on="1"/>
        <pt x="391" y="219" on="1"/>
        <pt x="391" y="294" on="1"/>
        <pt x="342" y="294" on="1"/>
        <pt x="342" y="414" on="1"/>
        <pt x="389" y="439" on="0"/>
        <pt x="517" y="439" on="1"/>
        <pt x="549" y="439" on="0"/>
        <pt x="585" y="436" on="1"/>
        <pt x="585" y="0" on="1"/>
        <pt x="448" y="0" on="1"/>
        <pt x="393" y="49" on="1"/>
        <pt x="371" y="20" on="0"/>
        <pt x="348" y="10" on="1"/>
        <pt x="316" y="-6" on="0"/>
        <pt x="201" y="-6" on="0"/>
        <pt x="121" y="29" on="0"/>
        <pt x="70" y="94" on="0"/>
      </contour>
    </TTGlyph>
    <TTGlyph name="Gcommaaccent" xMin="31" yMin="-315" xMax="585" yMax="740">
      <contour>
        <pt x="234" y="-206" on="1"/>
        <pt x="234" y="-103" on="1"/>
        <pt x="234" y="-79" on="0"/>
        <pt x="257" y="-79" on="1"/>
        <pt x="357" y="-79" on="1"/>
        <pt x="378" y="-79" on="0"/>
        <pt x="378" y="-103" on="1"/>
        <pt x="378" y="-238" on="1"/>
        <pt x="378" y="-269" on="0"/>
        <pt x="349" y="-306" on="0"/>
        <pt x="309" y="-315" on="0"/>
        <pt x="290" y="-315" on="1"/>
        <pt x="288" y="-315" on="1"/>
        <pt x="267" y="-315" on="0"/>
        <pt x="253" y="-311" on="1"/>
        <pt x="239" y="-307" on="1"/>
        <pt x="239" y="-251" on="1"/>
        <pt x="262" y="-252" on="0"/>
        <pt x="265" y="-242" on="1"/>
        <pt x="267" y="-238" on="0"/>
        <pt x="267" y="-232" on="1"/>
        <pt x="267" y="-228" on="1"/>
        <pt x="257" y="-228" on="1"/>
        <pt x="234" y="-228" on="0"/>
      </contour>
      <contour>
        <pt x="40" y="198" on="0"/>
        <pt x="31" y="301" on="0"/>
        <pt x="31" y="460" on="0"/>
        <pt x="52" y="586" on="0"/>
        <pt x="78" y="638" on="1"/>
        <pt x="130" y="740" on="0"/>
        <pt x="274" y="740" on="1"/>
        <pt x="396" y="740" on="0"/>
        <pt x="479" y="730" on="0"/>
        <pt x="578" y="703" on="1"/>
        <pt x="578" y="554" on="1"/>
        <pt x="577" y="554" on="0"/>
        <pt x="549" y="559" on="0"/>
        <pt x="502" y="565" on="0"/>
        <pt x="474" y="568" on="1"/>
        <pt x="398" y="576" on="0"/>
        <pt x="266" y="576" on="0"/>
        <pt x="225" y="493" on="0"/>
        <pt x="225" y="241" on="0"/>
        <pt x="255" y="173" on="0"/>
        <pt x="319" y="173" on="1"/>
        <pt x="347" y="173" on="0"/>
        <pt x="383" y="196" on="0"/>
        <pt x="387" y="208" on="1"/>
        <pt x="391" y="219" on="1"/>
        <pt x="391" y="294" on="1"/>
        <pt x="342" y="294" on="1"/>
        <pt x="342" y="414" on="1"/>
        <pt x="389" y="439" on="0"/>
        <pt x="517" y="439" on="1"/>
        <pt x="549" y="439" on="0"/>
        <pt x="585" y="436" on="1"/>
        <pt x="585" y="0" on="1"/>
        <pt x="448" y="0" on="1"/>
        <pt x="393" y="49" on="1"/>
        <pt x="371" y="20" on="0"/>
        <pt x="348" y="10" on="1"/>
        <pt x="316" y="-6" on="0"/>
        <pt x="201" y="-6" on="0"/>
        <pt x="121" y="29" on="0"/>
        <pt x="70" y="94" on="0"/>
      </contour>
    </TTGlyph>
    <TTGlyph name="Gdotaccent" xMin="31" yMin="-6" xMax="585" yMax="942">
      <contour>
        <pt x="256" y="823" on="1"/>
        <pt x="256" y="917" on="1"/>
        <pt x="256" y="942" on="0"/>
        <pt x="280" y="942" on="1"/>
        <pt x="370" y="942" on="1"/>
        <pt x="393" y="942" on="0"/>
        <pt x="393" y="917" on="1"/>
        <pt x="393" y="823" on="1"/>
        <pt x="393" y="800" on="0"/>
        <pt x="370" y="800" on="1"/>
        <pt x="280" y="800" on="1"/>
        <pt x="256" y="800" on="0"/>
      </contour>
      <contour>
        <pt x="40" y="198" on="0"/>
        <pt x="31" y="301" on="0"/>
        <pt x="31" y="460" on="0"/>
        <pt x="52" y="586" on="0"/>
        <pt x="78" y="638" on="1"/>
        <pt x="130" y="740" on="0"/>
        <pt x="274" y="740" on="1"/>
        <pt x="396" y="740" on="0"/>
        <pt x="479" y="730" on="0"/>
        <pt x="578" y="703" on="1"/>
        <pt x="578" y="554" on="1"/>
        <pt x="577" y="554" on="0"/>
        <pt x="549" y="559" on="0"/>
        <pt x="502" y="565" on="0"/>
        <pt x="474" y="568" on="1"/>
        <pt x="398" y="576" on="0"/>
        <pt x="266" y="576" on="0"/>
        <pt x="225" y="493" on="0"/>
        <pt x="225" y="241" on="0"/>
        <pt x="255" y="173" on="0"/>
        <pt x="319" y="173" on="1"/>
        <pt x="347" y="173" on="0"/>
        <pt x="383" y="196" on="0"/>
        <pt x="387" y="208" on="1"/>
        <pt x="391" y="219" on="1"/>
        <pt x="391" y="294" on="1"/>
        <pt x="342" y="294" on="1"/>
        <pt x="342" y="414" on="1"/>
        <pt x="389" y="439" on="0"/>
        <pt x="517" y="439" on="1"/>
        <pt x="549" y="439" on="0"/>
        <pt x="585" y="436" on="1"/>
        <pt x="585" y="0" on="1"/>
        <pt x="448" y="0" on="1"/>
        <pt x="393" y="49" on="1"/>
        <pt x="371" y="20" on="0"/>
        <pt x="348" y="10" on="1"/>
        <pt x="316" y="-6" on="0"/>
        <pt x="201" y="-6" on="0"/>
        <pt x="121" y="29" on="0"/>
        <pt x="70" y="94" on="0"/>
      </contour>
    </TTGlyph>
    <TTGlyph name="H" xMin="45" yMin="0" xMax="603" yMax="732">
      <contour>
        <pt x="45" y="0" on="1"/>
        <pt x="45" y="732" on="1"/>
        <pt x="239" y="732" on="1"/>
        <pt x="239" y="441" on="1"/>
        <pt x="409" y="441" on="1"/>
        <pt x="409" y="732" on="1"/>
        <pt x="603" y="732" on="1"/>
        <pt x="603" y="0" on="1"/>
        <pt x="409" y="0" on="1"/>
        <pt x="409" y="267" on="1"/>
        <pt x="239" y="267" on="1"/>
        <pt x="239" y="0" on="1"/>
      </contour>
    </TTGlyph>
    <TTGlyph name="Hbar" xMin="11" yMin="0" xMax="699" yMax="732">
      <contour>
        <pt x="11" y="516" on="1"/>
        <pt x="11" y="590" on="1"/>
        <pt x="76" y="590" on="1"/>
        <pt x="76" y="732" on="1"/>
        <pt x="270" y="732" on="1"/>
        <pt x="270" y="590" on="1"/>
        <pt x="440" y="590" on="1"/>
        <pt x="440" y="732" on="1"/>
        <pt x="634" y="732" on="1"/>
        <pt x="634" y="590" on="1"/>
        <pt x="699" y="590" on="1"/>
        <pt x="699" y="516" on="1"/>
        <pt x="634" y="516" on="1"/>
        <pt x="634" y="0" on="1"/>
        <pt x="440" y="0" on="1"/>
        <pt x="440" y="267" on="1"/>
        <pt x="270" y="267" on="1"/>
        <pt x="270" y="0" on="1"/>
        <pt x="76" y="0" on="1"/>
        <pt x="76" y="516" on="1"/>
      </contour>
      <contour>
        <pt x="270" y="441" on="1"/>
        <pt x="440" y="441" on="1"/>
        <pt x="440" y="516" on="1"/>
        <pt x="270" y="516" on="1"/>
      </contour>
    </TTGlyph>
    <TTGlyph name="Hcircumflex" xMin="45" yMin="0" xMax="603" yMax="937">
      <contour>
        <pt x="163" y="797" on="1"/>
        <pt x="263" y="937" on="1"/>
        <pt x="394" y="937" on="1"/>
        <pt x="485" y="797" on="1"/>
        <pt x="374" y="797" on="1"/>
        <pt x="325" y="848" on="1"/>
        <pt x="275" y="797" on="1"/>
      </contour>
      <contour>
        <pt x="45" y="0" on="1"/>
        <pt x="45" y="732" on="1"/>
        <pt x="239" y="732" on="1"/>
        <pt x="239" y="441" on="1"/>
        <pt x="409" y="441" on="1"/>
        <pt x="409" y="732" on="1"/>
        <pt x="603" y="732" on="1"/>
        <pt x="603" y="0" on="1"/>
        <pt x="409" y="0" on="1"/>
        <pt x="409" y="267" on="1"/>
        <pt x="239" y="267" on="1"/>
        <pt x="239" y="0" on="1"/>
      </contour>
    </TTGlyph>
    <TTGlyph name="I" xMin="45" yMin="0" xMax="239" yMax="732">
      <contour>
        <pt x="45" y="0" on="1"/>
        <pt x="45" y="732" on="1"/>
        <pt x="239" y="732" on="1"/>
        <pt x="239" y="0" on="1"/>
      </contour>
    </TTGlyph>
    <TTGlyph name="Iacute" xMin="45" yMin="0" xMax="310" yMax="940">
      <contour>
        <pt x="88" y="797" on="1"/>
        <pt x="164" y="940" on="1"/>
        <pt x="310" y="940" on="1"/>
        <pt x="196" y="797" on="1"/>
      </contour>
      <contour>
        <pt x="45" y="0" on="1"/>
        <pt x="45" y="732" on="1"/>
        <pt x="239" y="732" on="1"/>
        <pt x="239" y="0" on="1"/>
      </contour>
    </TTGlyph>
    <TTGlyph name="Icircumflex" xMin="-19" yMin="0" xMax="303" yMax="937">
      <contour>
        <pt x="-19" y="797" on="1"/>
        <pt x="81" y="937" on="1"/>
        <pt x="212" y="937" on="1"/>
        <pt x="303" y="797" on="1"/>
        <pt x="192" y="797" on="1"/>
        <pt x="143" y="848" on="1"/>
        <pt x="93" y="797" on="1"/>
      </contour>
      <contour>
        <pt x="45" y="0" on="1"/>
        <pt x="45" y="732" on="1"/>
        <pt x="239" y="732" on="1"/>
        <pt x="239" y="0" on="1"/>
      </contour>
    </TTGlyph>
    <TTGlyph name="Idieresis" xMin="-51" yMin="0" xMax="335" yMax="928">
      <contour>
        <pt x="-51" y="836" on="0"/>
        <pt x="-51" y="890" on="0"/>
        <pt x="-12" y="928" on="0"/>
        <pt x="42" y="928" on="0"/>
        <pt x="80" y="890" on="0"/>
        <pt x="80" y="836" on="0"/>
        <pt x="42" y="797" on="0"/>
        <pt x="-12" y="797" on="0"/>
      </contour>
      <contour>
        <pt x="204" y="836" on="0"/>
        <pt x="204" y="890" on="0"/>
        <pt x="243" y="928" on="0"/>
        <pt x="297" y="928" on="0"/>
        <pt x="335" y="890" on="0"/>
        <pt x="335" y="836" on="0"/>
        <pt x="297" y="797" on="0"/>
        <pt x="243" y="797" on="0"/>
      </contour>
      <contour>
        <pt x="45" y="0" on="1"/>
        <pt x="45" y="732" on="1"/>
        <pt x="239" y="732" on="1"/>
        <pt x="239" y="0" on="1"/>
      </contour>
    </TTGlyph>
    <TTGlyph name="Idotaccent" xMin="45" yMin="0" xMax="239" yMax="939">
      <contour>
        <pt x="74" y="820" on="1"/>
        <pt x="74" y="914" on="1"/>
        <pt x="74" y="939" on="0"/>
        <pt x="98" y="939" on="1"/>
        <pt x="188" y="939" on="1"/>
        <pt x="198" y="939" on="0"/>
        <pt x="210" y="925" on="0"/>
        <pt x="210" y="914" on="1"/>
        <pt x="210" y="820" on="1"/>
        <pt x="210" y="797" on="0"/>
        <pt x="188" y="797" on="1"/>
        <pt x="98" y="797" on="1"/>
        <pt x="87" y="797" on="0"/>
        <pt x="74" y="810" on="0"/>
      </contour>
      <contour>
        <pt x="45" y="0" on="1"/>
        <pt x="45" y="732" on="1"/>
        <pt x="239" y="732" on="1"/>
        <pt x="239" y="0" on="1"/>
      </contour>
    </TTGlyph>
    <TTGlyph name="Idotaccent.smcp" xMin="29" yMin="0" xMax="223" yMax="773">
      <contour>
        <pt x="29" y="0" on="1"/>
        <pt x="29" y="570" on="1"/>
        <pt x="223" y="570" on="1"/>
        <pt x="223" y="0" on="1"/>
      </contour>
      <contour>
        <pt x="59" y="654" on="1"/>
        <pt x="59" y="748" on="1"/>
        <pt x="59" y="773" on="0"/>
        <pt x="83" y="773" on="1"/>
        <pt x="173" y="773" on="1"/>
        <pt x="196" y="773" on="0"/>
        <pt x="196" y="748" on="1"/>
        <pt x="196" y="654" on="1"/>
        <pt x="196" y="631" on="0"/>
        <pt x="173" y="631" on="1"/>
        <pt x="83" y="631" on="1"/>
        <pt x="59" y="631" on="0"/>
      </contour>
    </TTGlyph>
    <TTGlyph name="Igrave" xMin="-26" yMin="0" xMax="239" yMax="940">
      <contour>
        <pt x="-26" y="940" on="1"/>
        <pt x="120" y="940" on="1"/>
        <pt x="196" y="797" on="1"/>
        <pt x="88" y="797" on="1"/>
      </contour>
      <contour>
        <pt x="45" y="0" on="1"/>
        <pt x="45" y="732" on="1"/>
        <pt x="239" y="732" on="1"/>
        <pt x="239" y="0" on="1"/>
      </contour>
    </TTGlyph>
    <TTGlyph name="Imacron" xMin="-4" yMin="0" xMax="288" yMax="890">
      <contour>
        <pt x="-4" y="797" on="1"/>
        <pt x="-4" y="890" on="1"/>
        <pt x="288" y="890" on="1"/>
        <pt x="288" y="797" on="1"/>
      </contour>
      <contour>
        <pt x="45" y="0" on="1"/>
        <pt x="45" y="732" on="1"/>
        <pt x="239" y="732" on="1"/>
        <pt x="239" y="0" on="1"/>
      </contour>
    </TTGlyph>
    <TTGlyph name="Iogonek" xMin="45" yMin="-196" xMax="239" yMax="732">
      <contour>
        <pt x="118" y="1" on="1"/>
        <pt x="186" y="1" on="1"/>
        <pt x="126" y="-41" on="0"/>
        <pt x="157" y="-83" on="1"/>
        <pt x="174" y="-105" on="0"/>
        <pt x="200" y="-100" on="1"/>
        <pt x="200" y="-190" on="1"/>
        <pt x="184" y="-195" on="0"/>
        <pt x="162" y="-195" on="0"/>
        <pt x="134" y="-193" on="0"/>
        <pt x="116" y="-181" on="1"/>
        <pt x="57" y="-143" on="0"/>
        <pt x="57" y="-34" on="0"/>
      </contour>
      <contour>
        <pt x="45" y="0" on="1"/>
        <pt x="45" y="732" on="1"/>
        <pt x="239" y="732" on="1"/>
        <pt x="239" y="0" on="1"/>
      </contour>
    </TTGlyph>
    <TTGlyph name="Itilde" xMin="-32" yMin="0" xMax="316" yMax="943">
      <contour>
        <pt x="91" y="938" on="1"/>
        <pt x="114" y="938" on="0"/>
        <pt x="178" y="903" on="0"/>
        <pt x="197" y="903" on="1"/>
        <pt x="200" y="903" on="0"/>
        <pt x="204" y="903" on="1"/>
        <pt x="252" y="903" on="0"/>
        <pt x="290" y="943" on="1"/>
        <pt x="316" y="869" on="1"/>
        <pt x="268" y="797" on="0"/>
        <pt x="204" y="797" on="1"/>
        <pt x="182" y="797" on="0"/>
        <pt x="107" y="832" on="0"/>
        <pt x="88" y="832" on="1"/>
        <pt x="40" y="832" on="0"/>
        <pt x="-5" y="797" on="1"/>
        <pt x="-32" y="864" on="1"/>
        <pt x="19" y="938" on="0"/>
      </contour>
      <contour>
        <pt x="45" y="0" on="1"/>
        <pt x="45" y="732" on="1"/>
        <pt x="239" y="732" on="1"/>
        <pt x="239" y="0" on="1"/>
      </contour>
    </TTGlyph>
    <TTGlyph name="J" xMin="20" yMin="-5" xMax="322" yMax="732">
      <contour>
        <pt x="268" y="18" on="1"/>
        <pt x="231" y="-4" on="0"/>
        <pt x="65" y="-4" on="0"/>
        <pt x="20" y="25" on="1"/>
        <pt x="20" y="179" on="1"/>
        <pt x="60" y="179" on="0"/>
        <pt x="103" y="186" on="0"/>
        <pt x="124" y="213" on="0"/>
        <pt x="128" y="242" on="0"/>
        <pt x="128" y="276" on="1"/>
        <pt x="128" y="732" on="1"/>
        <pt x="322" y="732" on="1"/>
        <pt x="322" y="165" on="1"/>
        <pt x="322" y="53" on="0"/>
      </contour>
    </TTGlyph>
    <TTGlyph name="Jcircumflex" xMin="20" yMin="-5" xMax="386" yMax="937">
      <contour>
        <pt x="64" y="797" on="1"/>
        <pt x="164" y="937" on="1"/>
        <pt x="295" y="937" on="1"/>
        <pt x="386" y="797" on="1"/>
        <pt x="275" y="797" on="1"/>
        <pt x="226" y="848" on="1"/>
        <pt x="176" y="797" on="1"/>
      </contour>
      <contour>
        <pt x="268" y="18" on="1"/>
        <pt x="231" y="-4" on="0"/>
        <pt x="65" y="-4" on="0"/>
        <pt x="20" y="25" on="1"/>
        <pt x="20" y="179" on="1"/>
        <pt x="60" y="179" on="0"/>
        <pt x="103" y="186" on="0"/>
        <pt x="124" y="213" on="0"/>
        <pt x="128" y="242" on="0"/>
        <pt x="128" y="276" on="1"/>
        <pt x="128" y="732" on="1"/>
        <pt x="322" y="732" on="1"/>
        <pt x="322" y="165" on="1"/>
        <pt x="322" y="53" on="0"/>
      </contour>
    </TTGlyph>
    <TTGlyph name="K" xMin="45" yMin="0" xMax="641" yMax="732">
      <contour>
        <pt x="45" y="0" on="1"/>
        <pt x="45" y="732" on="1"/>
        <pt x="229" y="732" on="1"/>
        <pt x="229" y="444" on="1"/>
        <pt x="269" y="444" on="1"/>
        <pt x="418" y="732" on="1"/>
        <pt x="641" y="732" on="1"/>
        <pt x="440" y="364" on="1"/>
        <pt x="641" y="0" on="1"/>
        <pt x="418" y="0" on="1"/>
        <pt x="269" y="280" on="1"/>
        <pt x="230" y="280" on="1"/>
        <pt x="230" y="0" on="1"/>
      </contour>
    </TTGlyph>
    <TTGlyph name="Kcommaaccent" xMin="45" yMin="-310" xMax="641" yMax="732">
      <contour>
        <pt x="245" y="-200" on="1"/>
        <pt x="245" y="-98" on="1"/>
        <pt x="245" y="-74" on="0"/>
        <pt x="268" y="-74" on="1"/>
        <pt x="368" y="-74" on="1"/>
        <pt x="389" y="-74" on="0"/>
        <pt x="389" y="-98" on="1"/>
        <pt x="389" y="-233" on="1"/>
        <pt x="389" y="-264" on="0"/>
        <pt x="360" y="-301" on="0"/>
        <pt x="320" y="-310" on="0"/>
        <pt x="301" y="-310" on="1"/>
        <pt x="299" y="-310" on="1"/>
        <pt x="278" y="-310" on="0"/>
        <pt x="264" y="-306" on="1"/>
        <pt x="250" y="-302" on="1"/>
        <pt x="250" y="-246" on="1"/>
        <pt x="273" y="-247" on="0"/>
        <pt x="276" y="-237" on="1"/>
        <pt x="278" y="-233" on="0"/>
        <pt x="278" y="-228" on="1"/>
        <pt x="278" y="-223" on="1"/>
        <pt x="268" y="-223" on="1"/>
        <pt x="245" y="-223" on="0"/>
      </contour>
      <contour>
        <pt x="45" y="0" on="1"/>
        <pt x="45" y="732" on="1"/>
        <pt x="229" y="732" on="1"/>
        <pt x="229" y="444" on="1"/>
        <pt x="269" y="444" on="1"/>
        <pt x="418" y="732" on="1"/>
        <pt x="641" y="732" on="1"/>
        <pt x="440" y="364" on="1"/>
        <pt x="641" y="0" on="1"/>
        <pt x="418" y="0" on="1"/>
        <pt x="269" y="280" on="1"/>
        <pt x="230" y="280" on="1"/>
        <pt x="230" y="0" on="1"/>
      </contour>
    </TTGlyph>
    <TTGlyph name="L" xMin="45" yMin="0" xMax="507" yMax="732">
      <contour>
        <pt x="45" y="156" on="1"/>
        <pt x="45" y="732" on="1"/>
        <pt x="239" y="732" on="1"/>
        <pt x="239" y="226" on="1"/>
        <pt x="239" y="188" on="0"/>
        <pt x="260" y="180" on="1"/>
        <pt x="277" y="174" on="0"/>
        <pt x="301" y="174" on="1"/>
        <pt x="507" y="174" on="1"/>
        <pt x="507" y="0" on="1"/>
        <pt x="211" y="0" on="1"/>
        <pt x="137" y="0" on="0"/>
        <pt x="45" y="76" on="0"/>
      </contour>
    </TTGlyph>
    <TTGlyph name="Lacute" xMin="45" yMin="0" xMax="507" yMax="940">
      <contour>
        <pt x="88" y="797" on="1"/>
        <pt x="164" y="940" on="1"/>
        <pt x="310" y="940" on="1"/>
        <pt x="196" y="797" on="1"/>
      </contour>
      <contour>
        <pt x="45" y="156" on="1"/>
        <pt x="45" y="732" on="1"/>
        <pt x="239" y="732" on="1"/>
        <pt x="239" y="226" on="1"/>
        <pt x="239" y="188" on="0"/>
        <pt x="260" y="180" on="1"/>
        <pt x="277" y="174" on="0"/>
        <pt x="301" y="174" on="1"/>
        <pt x="507" y="174" on="1"/>
        <pt x="507" y="0" on="1"/>
        <pt x="211" y="0" on="1"/>
        <pt x="137" y="0" on="0"/>
        <pt x="45" y="76" on="0"/>
      </contour>
    </TTGlyph>
    <TTGlyph name="Lcaron" xMin="45" yMin="0" xMax="507" yMax="772">
      <contour>
        <pt x="45" y="156" on="1"/>
        <pt x="45" y="732" on="1"/>
        <pt x="239" y="732" on="1"/>
        <pt x="239" y="226" on="1"/>
        <pt x="239" y="188" on="0"/>
        <pt x="260" y="180" on="1"/>
        <pt x="277" y="174" on="0"/>
        <pt x="301" y="174" on="1"/>
        <pt x="507" y="174" on="1"/>
        <pt x="507" y="0" on="1"/>
        <pt x="211" y="0" on="1"/>
        <pt x="137" y="0" on="0"/>
        <pt x="45" y="76" on="0"/>
      </contour>
      <contour>
        <pt x="289" y="772" on="1"/>
        <pt x="403" y="772" on="1"/>
        <pt x="403" y="705" on="1"/>
        <pt x="393" y="571" on="1"/>
        <pt x="300" y="571" on="1"/>
        <pt x="289" y="705" on="1"/>
      </contour>
    </TTGlyph>
    <TTGlyph name="Lcommaaccent" xMin="45" yMin="-305" xMax="507" yMax="732">
      <contour>
        <pt x="209" y="-196" on="1"/>
        <pt x="209" y="-93" on="1"/>
        <pt x="209" y="-69" on="0"/>
        <pt x="232" y="-69" on="1"/>
        <pt x="332" y="-69" on="1"/>
        <pt x="353" y="-69" on="0"/>
        <pt x="353" y="-93" on="1"/>
        <pt x="353" y="-228" on="1"/>
        <pt x="353" y="-259" on="0"/>
        <pt x="324" y="-296" on="0"/>
        <pt x="284" y="-305" on="0"/>
        <pt x="265" y="-305" on="1"/>
        <pt x="263" y="-305" on="1"/>
        <pt x="242" y="-305" on="0"/>
        <pt x="228" y="-301" on="1"/>
        <pt x="214" y="-297" on="1"/>
        <pt x="214" y="-241" on="1"/>
        <pt x="233" y="-242" on="0"/>
        <pt x="237" y="-237" on="1"/>
        <pt x="242" y="-230" on="0"/>
        <pt x="242" y="-222" on="1"/>
        <pt x="242" y="-218" on="1"/>
        <pt x="232" y="-218" on="1"/>
        <pt x="209" y="-218" on="0"/>
      </contour>
      <contour>
        <pt x="45" y="156" on="1"/>
        <pt x="45" y="732" on="1"/>
        <pt x="239" y="732" on="1"/>
        <pt x="239" y="226" on="1"/>
        <pt x="239" y="188" on="0"/>
        <pt x="260" y="180" on="1"/>
        <pt x="277" y="174" on="0"/>
        <pt x="301" y="174" on="1"/>
        <pt x="507" y="174" on="1"/>
        <pt x="507" y="0" on="1"/>
        <pt x="211" y="0" on="1"/>
        <pt x="137" y="0" on="0"/>
        <pt x="45" y="76" on="0"/>
      </contour>
    </TTGlyph>
    <TTGlyph name="Lslash" xMin="28" yMin="0" xMax="564" yMax="732">
      <contour>
        <pt x="102" y="732" on="1"/>
        <pt x="296" y="732" on="1"/>
        <pt x="296" y="488" on="1"/>
        <pt x="386" y="526" on="1"/>
        <pt x="386" y="445" on="1"/>
        <pt x="296" y="407" on="1"/>
        <pt x="296" y="226" on="1"/>
        <pt x="296" y="188" on="0"/>
        <pt x="317" y="180" on="1"/>
        <pt x="333" y="174" on="0"/>
        <pt x="358" y="174" on="1"/>
        <pt x="564" y="174" on="1"/>
        <pt x="564" y="0" on="1"/>
        <pt x="268" y="0" on="1"/>
        <pt x="194" y="0" on="0"/>
        <pt x="102" y="76" on="0"/>
        <pt x="102" y="156" on="1"/>
        <pt x="102" y="324" on="1"/>
        <pt x="28" y="293" on="1"/>
        <pt x="28" y="374" on="1"/>
        <pt x="102" y="405" on="1"/>
      </contour>
    </TTGlyph>
    <TTGlyph name="M" xMin="31" yMin="0" xMax="856" yMax="732">
      <contour>
        <pt x="31" y="0" on="1"/>
        <pt x="109" y="732" on="1"/>
        <pt x="379" y="732" on="1"/>
        <pt x="441" y="321" on="1"/>
        <pt x="507" y="732" on="1"/>
        <pt x="777" y="732" on="1"/>
        <pt x="856" y="0" on="1"/>
        <pt x="665" y="0" on="1"/>
        <pt x="615" y="399" on="1"/>
        <pt x="554" y="0" on="1"/>
        <pt x="332" y="0" on="1"/>
        <pt x="268" y="399" on="1"/>
        <pt x="222" y="0" on="1"/>
      </contour>
    </TTGlyph>
    <TTGlyph name="M.salt" xMin="31" yMin="0" xMax="876" yMax="737">
      <contour>
        <pt x="195" y="730" on="1"/>
        <pt x="218" y="733" on="0"/>
        <pt x="244" y="733" on="1"/>
        <pt x="340" y="733" on="0"/>
        <pt x="394" y="676" on="1"/>
        <pt x="431" y="636" on="0"/>
        <pt x="431" y="578" on="1"/>
        <pt x="431" y="340" on="1"/>
        <pt x="431" y="326" on="0"/>
        <pt x="462" y="328" on="0"/>
        <pt x="462" y="340" on="1"/>
        <pt x="462" y="582" on="1"/>
        <pt x="462" y="623" on="0"/>
        <pt x="482" y="656" on="1"/>
        <pt x="517" y="711" on="0"/>
        <pt x="608" y="731" on="1"/>
        <pt x="633" y="737" on="0"/>
        <pt x="658" y="737" on="1"/>
        <pt x="688" y="734" on="1"/>
        <pt x="778" y="722" on="0"/>
        <pt x="817" y="674" on="1"/>
        <pt x="839" y="647" on="0"/>
        <pt x="841" y="612" on="1"/>
        <pt x="876" y="0" on="1"/>
        <pt x="680" y="0" on="1"/>
        <pt x="661" y="498" on="1"/>
        <pt x="660" y="512" on="0"/>
        <pt x="646" y="507" on="1"/>
        <pt x="636" y="502" on="0"/>
        <pt x="635" y="492" on="1"/>
        <pt x="632" y="270" on="1"/>
        <pt x="629" y="227" on="0"/>
        <pt x="591" y="196" on="1"/>
        <pt x="539" y="155" on="0"/>
        <pt x="448" y="155" on="1"/>
        <pt x="359" y="155" on="0"/>
        <pt x="308" y="196" on="1"/>
        <pt x="271" y="227" on="0"/>
        <pt x="268" y="273" on="1"/>
        <pt x="264" y="503" on="1"/>
        <pt x="264" y="516" on="0"/>
        <pt x="239" y="509" on="0"/>
        <pt x="238" y="496" on="1"/>
        <pt x="224" y="0" on="1"/>
        <pt x="31" y="0" on="1"/>
        <pt x="60" y="600" on="1"/>
        <pt x="63" y="652" on="0"/>
        <pt x="141" y="722" on="0"/>
      </contour>
    </TTGlyph>
    <TTGlyph name="N" xMin="45" yMin="0" xMax="644" yMax="732">
      <contour>
        <pt x="45" y="0" on="1"/>
        <pt x="45" y="732" on="1"/>
        <pt x="241" y="732" on="1"/>
        <pt x="450" y="358" on="1"/>
        <pt x="450" y="732" on="1"/>
        <pt x="644" y="732" on="1"/>
        <pt x="644" y="0" on="1"/>
        <pt x="450" y="0" on="1"/>
        <pt x="240" y="364" on="1"/>
        <pt x="240" y="0" on="1"/>
      </contour>
    </TTGlyph>
    <TTGlyph name="N.salt" xMin="45" yMin="-5" xMax="710" yMax="742">
      <contour>
        <pt x="45" y="0" on="1"/>
        <pt x="45" y="569" on="1"/>
        <pt x="45" y="623" on="0"/>
        <pt x="74" y="663" on="1"/>
        <pt x="130" y="742" on="0"/>
        <pt x="248" y="742" on="1"/>
        <pt x="352" y="742" on="0"/>
        <pt x="412" y="676" on="1"/>
        <pt x="444" y="641" on="0"/>
        <pt x="449" y="593" on="1"/>
        <pt x="492" y="182" on="1"/>
        <pt x="493" y="173" on="0"/>
        <pt x="505" y="168" on="0"/>
        <pt x="516" y="178" on="0"/>
        <pt x="516" y="185" on="1"/>
        <pt x="516" y="732" on="1"/>
        <pt x="710" y="732" on="1"/>
        <pt x="710" y="165" on="1"/>
        <pt x="710" y="114" on="0"/>
        <pt x="682" y="75" on="1"/>
        <pt x="625" y="-5" on="0"/>
        <pt x="503" y="-5" on="1"/>
        <pt x="402" y="-5" on="0"/>
        <pt x="346" y="61" on="1"/>
        <pt x="313" y="99" on="0"/>
        <pt x="308" y="153" on="1"/>
        <pt x="265" y="569" on="1"/>
        <pt x="263" y="582" on="0"/>
        <pt x="240" y="574" on="0"/>
        <pt x="240" y="562" on="1"/>
        <pt x="240" y="0" on="1"/>
      </contour>
    </TTGlyph>
    <TTGlyph name="Nacute" xMin="45" yMin="0" xMax="644" yMax="940">
      <contour>
        <pt x="290" y="797" on="1"/>
        <pt x="367" y="940" on="1"/>
        <pt x="512" y="940" on="1"/>
        <pt x="399" y="797" on="1"/>
      </contour>
      <contour>
        <pt x="45" y="0" on="1"/>
        <pt x="45" y="732" on="1"/>
        <pt x="241" y="732" on="1"/>
        <pt x="450" y="358" on="1"/>
        <pt x="450" y="732" on="1"/>
        <pt x="644" y="732" on="1"/>
        <pt x="644" y="0" on="1"/>
        <pt x="450" y="0" on="1"/>
        <pt x="240" y="364" on="1"/>
        <pt x="240" y="0" on="1"/>
      </contour>
    </TTGlyph>
    <TTGlyph name="Nacute.salt" xMin="45" yMin="-5" xMax="710" yMax="944">
      <contour>
        <pt x="299" y="801" on="1"/>
        <pt x="376" y="944" on="1"/>
        <pt x="521" y="944" on="1"/>
        <pt x="408" y="801" on="1"/>
      </contour>
      <contour>
        <pt x="45" y="0" on="1"/>
        <pt x="45" y="569" on="1"/>
        <pt x="45" y="623" on="0"/>
        <pt x="74" y="663" on="1"/>
        <pt x="130" y="742" on="0"/>
        <pt x="248" y="742" on="1"/>
        <pt x="352" y="742" on="0"/>
        <pt x="412" y="676" on="1"/>
        <pt x="444" y="641" on="0"/>
        <pt x="449" y="593" on="1"/>
        <pt x="492" y="182" on="1"/>
        <pt x="493" y="173" on="0"/>
        <pt x="505" y="168" on="0"/>
        <pt x="516" y="178" on="0"/>
        <pt x="516" y="185" on="1"/>
        <pt x="516" y="732" on="1"/>
        <pt x="710" y="732" on="1"/>
        <pt x="710" y="165" on="1"/>
        <pt x="710" y="114" on="0"/>
        <pt x="682" y="75" on="1"/>
        <pt x="625" y="-5" on="0"/>
        <pt x="503" y="-5" on="1"/>
        <pt x="402" y="-5" on="0"/>
        <pt x="346" y="61" on="1"/>
        <pt x="313" y="99" on="0"/>
        <pt x="308" y="153" on="1"/>
        <pt x="265" y="569" on="1"/>
        <pt x="263" y="582" on="0"/>
        <pt x="240" y="574" on="0"/>
        <pt x="240" y="562" on="1"/>
        <pt x="240" y="0" on="1"/>
      </contour>
    </TTGlyph>
    <TTGlyph name="Ncaron" xMin="45" yMin="0" xMax="644" yMax="937">
      <contour>
        <pt x="184" y="937" on="1"/>
        <pt x="294" y="937" on="1"/>
        <pt x="344" y="886" on="1"/>
        <pt x="394" y="937" on="1"/>
        <pt x="506" y="937" on="1"/>
        <pt x="406" y="797" on="1"/>
        <pt x="274" y="797" on="1"/>
      </contour>
      <contour>
        <pt x="45" y="0" on="1"/>
        <pt x="45" y="732" on="1"/>
        <pt x="241" y="732" on="1"/>
        <pt x="450" y="358" on="1"/>
        <pt x="450" y="732" on="1"/>
        <pt x="644" y="732" on="1"/>
        <pt x="644" y="0" on="1"/>
        <pt x="450" y="0" on="1"/>
        <pt x="240" y="364" on="1"/>
        <pt x="240" y="0" on="1"/>
      </contour>
    </TTGlyph>
    <TTGlyph name="Ncaron.salt" xMin="45" yMin="-5" xMax="710" yMax="941">
      <contour>
        <pt x="231" y="941" on="1"/>
        <pt x="342" y="941" on="1"/>
        <pt x="391" y="890" on="1"/>
        <pt x="441" y="941" on="1"/>
        <pt x="553" y="941" on="1"/>
        <pt x="453" y="801" on="1"/>
        <pt x="322" y="801" on="1"/>
      </contour>
      <contour>
        <pt x="45" y="0" on="1"/>
        <pt x="45" y="569" on="1"/>
        <pt x="45" y="623" on="0"/>
        <pt x="74" y="663" on="1"/>
        <pt x="130" y="742" on="0"/>
        <pt x="248" y="742" on="1"/>
        <pt x="352" y="742" on="0"/>
        <pt x="412" y="676" on="1"/>
        <pt x="444" y="641" on="0"/>
        <pt x="449" y="593" on="1"/>
        <pt x="492" y="182" on="1"/>
        <pt x="493" y="173" on="0"/>
        <pt x="505" y="168" on="0"/>
        <pt x="516" y="178" on="0"/>
        <pt x="516" y="185" on="1"/>
        <pt x="516" y="732" on="1"/>
        <pt x="710" y="732" on="1"/>
        <pt x="710" y="165" on="1"/>
        <pt x="710" y="114" on="0"/>
        <pt x="682" y="75" on="1"/>
        <pt x="625" y="-5" on="0"/>
        <pt x="503" y="-5" on="1"/>
        <pt x="402" y="-5" on="0"/>
        <pt x="346" y="61" on="1"/>
        <pt x="313" y="99" on="0"/>
        <pt x="308" y="153" on="1"/>
        <pt x="265" y="569" on="1"/>
        <pt x="263" y="582" on="0"/>
        <pt x="240" y="574" on="0"/>
        <pt x="240" y="562" on="1"/>
        <pt x="240" y="0" on="1"/>
      </contour>
    </TTGlyph>
    <TTGlyph name="Ncommaaccent" xMin="45" yMin="-310" xMax="644" yMax="732">
      <contour>
        <pt x="266" y="-200" on="1"/>
        <pt x="266" y="-98" on="1"/>
        <pt x="266" y="-74" on="0"/>
        <pt x="289" y="-74" on="1"/>
        <pt x="389" y="-74" on="1"/>
        <pt x="410" y="-74" on="0"/>
        <pt x="410" y="-98" on="1"/>
        <pt x="410" y="-233" on="1"/>
        <pt x="410" y="-264" on="0"/>
        <pt x="381" y="-301" on="0"/>
        <pt x="341" y="-310" on="0"/>
        <pt x="322" y="-310" on="1"/>
        <pt x="320" y="-310" on="1"/>
        <pt x="299" y="-310" on="0"/>
        <pt x="285" y="-306" on="1"/>
        <pt x="271" y="-302" on="1"/>
        <pt x="271" y="-246" on="1"/>
        <pt x="294" y="-247" on="0"/>
        <pt x="297" y="-237" on="1"/>
        <pt x="299" y="-233" on="0"/>
        <pt x="299" y="-228" on="1"/>
        <pt x="299" y="-223" on="1"/>
        <pt x="289" y="-223" on="1"/>
        <pt x="266" y="-223" on="0"/>
      </contour>
      <contour>
        <pt x="45" y="0" on="1"/>
        <pt x="45" y="732" on="1"/>
        <pt x="241" y="732" on="1"/>
        <pt x="450" y="358" on="1"/>
        <pt x="450" y="732" on="1"/>
        <pt x="644" y="732" on="1"/>
        <pt x="644" y="0" on="1"/>
        <pt x="450" y="0" on="1"/>
        <pt x="240" y="364" on="1"/>
        <pt x="240" y="0" on="1"/>
      </contour>
    </TTGlyph>
    <TTGlyph name="Ncommaaccent.salt" xMin="45" yMin="-315" xMax="710" yMax="742">
      <contour>
        <pt x="300" y="-206" on="1"/>
        <pt x="300" y="-103" on="1"/>
        <pt x="300" y="-79" on="0"/>
        <pt x="323" y="-79" on="1"/>
        <pt x="423" y="-79" on="1"/>
        <pt x="444" y="-79" on="0"/>
        <pt x="444" y="-103" on="1"/>
        <pt x="444" y="-238" on="1"/>
        <pt x="444" y="-269" on="0"/>
        <pt x="415" y="-306" on="0"/>
        <pt x="375" y="-315" on="0"/>
        <pt x="356" y="-315" on="1"/>
        <pt x="354" y="-315" on="1"/>
        <pt x="333" y="-315" on="0"/>
        <pt x="319" y="-311" on="1"/>
        <pt x="305" y="-307" on="1"/>
        <pt x="305" y="-251" on="1"/>
        <pt x="328" y="-252" on="0"/>
        <pt x="331" y="-242" on="1"/>
        <pt x="333" y="-238" on="0"/>
        <pt x="333" y="-232" on="1"/>
        <pt x="333" y="-228" on="1"/>
        <pt x="323" y="-228" on="1"/>
        <pt x="300" y="-228" on="0"/>
      </contour>
      <contour>
        <pt x="45" y="0" on="1"/>
        <pt x="45" y="569" on="1"/>
        <pt x="45" y="623" on="0"/>
        <pt x="74" y="663" on="1"/>
        <pt x="130" y="742" on="0"/>
        <pt x="248" y="742" on="1"/>
        <pt x="352" y="742" on="0"/>
        <pt x="412" y="676" on="1"/>
        <pt x="444" y="641" on="0"/>
        <pt x="449" y="593" on="1"/>
        <pt x="492" y="182" on="1"/>
        <pt x="493" y="173" on="0"/>
        <pt x="505" y="168" on="0"/>
        <pt x="516" y="178" on="0"/>
        <pt x="516" y="185" on="1"/>
        <pt x="516" y="732" on="1"/>
        <pt x="710" y="732" on="1"/>
        <pt x="710" y="165" on="1"/>
        <pt x="710" y="114" on="0"/>
        <pt x="682" y="75" on="1"/>
        <pt x="625" y="-5" on="0"/>
        <pt x="503" y="-5" on="1"/>
        <pt x="402" y="-5" on="0"/>
        <pt x="346" y="61" on="1"/>
        <pt x="313" y="99" on="0"/>
        <pt x="308" y="153" on="1"/>
        <pt x="265" y="569" on="1"/>
        <pt x="263" y="582" on="0"/>
        <pt x="240" y="574" on="0"/>
        <pt x="240" y="562" on="1"/>
        <pt x="240" y="0" on="1"/>
      </contour>
    </TTGlyph>
    <TTGlyph name="Ntilde" xMin="45" yMin="0" xMax="644" yMax="943">
      <contour>
        <pt x="294" y="938" on="1"/>
        <pt x="316" y="938" on="0"/>
        <pt x="380" y="903" on="0"/>
        <pt x="400" y="903" on="1"/>
        <pt x="403" y="903" on="0"/>
        <pt x="405" y="903" on="1"/>
        <pt x="454" y="903" on="0"/>
        <pt x="492" y="943" on="1"/>
        <pt x="518" y="869" on="1"/>
        <pt x="470" y="797" on="0"/>
        <pt x="406" y="797" on="1"/>
        <pt x="384" y="797" on="0"/>
        <pt x="310" y="832" on="0"/>
        <pt x="286" y="832" on="1"/>
        <pt x="243" y="832" on="0"/>
        <pt x="198" y="797" on="1"/>
        <pt x="170" y="864" on="1"/>
        <pt x="222" y="938" on="0"/>
      </contour>
      <contour>
        <pt x="45" y="0" on="1"/>
        <pt x="45" y="732" on="1"/>
        <pt x="241" y="732" on="1"/>
        <pt x="450" y="358" on="1"/>
        <pt x="450" y="732" on="1"/>
        <pt x="644" y="732" on="1"/>
        <pt x="644" y="0" on="1"/>
        <pt x="450" y="0" on="1"/>
        <pt x="240" y="364" on="1"/>
        <pt x="240" y="0" on="1"/>
      </contour>
    </TTGlyph>
    <TTGlyph name="Ntilde.salt" xMin="45" yMin="-5" xMax="710" yMax="947">
      <contour>
        <pt x="336" y="942" on="1"/>
        <pt x="358" y="942" on="0"/>
        <pt x="422" y="907" on="0"/>
        <pt x="442" y="907" on="1"/>
        <pt x="445" y="907" on="0"/>
        <pt x="449" y="907" on="1"/>
        <pt x="497" y="907" on="0"/>
        <pt x="535" y="947" on="1"/>
        <pt x="561" y="873" on="1"/>
        <pt x="513" y="801" on="0"/>
        <pt x="449" y="801" on="1"/>
        <pt x="427" y="801" on="0"/>
        <pt x="352" y="836" on="0"/>
        <pt x="333" y="836" on="1"/>
        <pt x="285" y="836" on="0"/>
        <pt x="240" y="801" on="1"/>
        <pt x="213" y="868" on="1"/>
        <pt x="264" y="942" on="0"/>
      </contour>
      <contour>
        <pt x="45" y="0" on="1"/>
        <pt x="45" y="569" on="1"/>
        <pt x="45" y="623" on="0"/>
        <pt x="74" y="663" on="1"/>
        <pt x="130" y="742" on="0"/>
        <pt x="248" y="742" on="1"/>
        <pt x="352" y="742" on="0"/>
        <pt x="412" y="676" on="1"/>
        <pt x="444" y="641" on="0"/>
        <pt x="449" y="593" on="1"/>
        <pt x="492" y="182" on="1"/>
        <pt x="493" y="173" on="0"/>
        <pt x="505" y="168" on="0"/>
        <pt x="516" y="178" on="0"/>
        <pt x="516" y="185" on="1"/>
        <pt x="516" y="732" on="1"/>
        <pt x="710" y="732" on="1"/>
        <pt x="710" y="165" on="1"/>
        <pt x="710" y="114" on="0"/>
        <pt x="682" y="75" on="1"/>
        <pt x="625" y="-5" on="0"/>
        <pt x="503" y="-5" on="1"/>
        <pt x="402" y="-5" on="0"/>
        <pt x="346" y="61" on="1"/>
        <pt x="313" y="99" on="0"/>
        <pt x="308" y="153" on="1"/>
        <pt x="265" y="569" on="1"/>
        <pt x="263" y="582" on="0"/>
        <pt x="240" y="574" on="0"/>
        <pt x="240" y="562" on="1"/>
        <pt x="240" y="0" on="1"/>
      </contour>
    </TTGlyph>
    <TTGlyph name="O" xMin="37" yMin="-4" xMax="643" yMax="737">
      <contour>
        <pt x="56" y="158" on="0"/>
        <pt x="37" y="279" on="0"/>
        <pt x="37" y="433" on="0"/>
        <pt x="54" y="546" on="0"/>
        <pt x="81" y="625" on="0"/>
        <pt x="126" y="681" on="0"/>
        <pt x="173" y="713" on="0"/>
        <pt x="206" y="722" on="1"/>
        <pt x="258" y="737" on="0"/>
        <pt x="381" y="737" on="0"/>
        <pt x="442" y="731" on="0"/>
        <pt x="509" y="713" on="0"/>
        <pt x="556" y="681" on="0"/>
        <pt x="600" y="625" on="0"/>
        <pt x="614" y="586" on="1"/>
        <pt x="643" y="499" on="0"/>
        <pt x="643" y="266" on="0"/>
        <pt x="613" y="132" on="0"/>
        <pt x="565" y="54" on="0"/>
        <pt x="483" y="10" on="0"/>
        <pt x="400" y="-4" on="0"/>
        <pt x="289" y="-4" on="0"/>
        <pt x="220" y="4" on="0"/>
        <pt x="144" y="29" on="0"/>
        <pt x="96" y="79" on="0"/>
      </contour>
      <contour>
        <pt x="250" y="536" on="0"/>
        <pt x="231" y="452" on="0"/>
        <pt x="231" y="242" on="0"/>
        <pt x="269" y="170" on="0"/>
        <pt x="405" y="170" on="0"/>
        <pt x="449" y="246" on="0"/>
        <pt x="449" y="428" on="0"/>
        <pt x="441" y="502" on="0"/>
        <pt x="416" y="549" on="0"/>
        <pt x="376" y="563" on="0"/>
        <pt x="293" y="563" on="0"/>
      </contour>
    </TTGlyph>
    <TTGlyph name="OE" xMin="37" yMin="-4" xMax="941" yMax="737">
      <contour>
        <pt x="250" y="536" on="0"/>
        <pt x="231" y="452" on="0"/>
        <pt x="231" y="242" on="0"/>
        <pt x="269" y="170" on="0"/>
        <pt x="405" y="170" on="0"/>
        <pt x="448" y="245" on="0"/>
        <pt x="448" y="489" on="0"/>
        <pt x="408" y="563" on="0"/>
        <pt x="340" y="563" on="1"/>
        <pt x="293" y="563" on="0"/>
      </contour>
      <contour>
        <pt x="46" y="218" on="1"/>
        <pt x="37" y="279" on="0"/>
        <pt x="37" y="433" on="0"/>
        <pt x="54" y="546" on="0"/>
        <pt x="81" y="625" on="0"/>
        <pt x="126" y="681" on="0"/>
        <pt x="173" y="713" on="0"/>
        <pt x="206" y="722" on="1"/>
        <pt x="258" y="737" on="0"/>
        <pt x="455" y="737" on="0"/>
        <pt x="514" y="707" on="1"/>
        <pt x="554" y="732" on="0"/>
        <pt x="616" y="732" on="1"/>
        <pt x="625" y="732" on="0"/>
        <pt x="634" y="732" on="1"/>
        <pt x="824" y="732" on="0"/>
        <pt x="941" y="716" on="1"/>
        <pt x="941" y="553" on="1"/>
        <pt x="694" y="553" on="1"/>
        <pt x="670" y="553" on="0"/>
        <pt x="645" y="534" on="0"/>
        <pt x="642" y="515" on="0"/>
        <pt x="642" y="497" on="1"/>
        <pt x="642" y="453" on="1"/>
        <pt x="891" y="442" on="1"/>
        <pt x="891" y="281" on="1"/>
        <pt x="642" y="272" on="1"/>
        <pt x="642" y="228" on="1"/>
        <pt x="642" y="190" on="0"/>
        <pt x="663" y="182" on="1"/>
        <pt x="680" y="176" on="0"/>
        <pt x="704" y="176" on="1"/>
        <pt x="941" y="176" on="1"/>
        <pt x="941" y="14" on="1"/>
        <pt x="840" y="1" on="0"/>
        <pt x="696" y="-2" on="1"/>
        <pt x="644" y="-3" on="1"/>
        <pt x="632" y="-4" on="0"/>
        <pt x="621" y="-4" on="1"/>
        <pt x="550" y="-4" on="0"/>
        <pt x="508" y="23" on="1"/>
        <pt x="450" y="-4" on="0"/>
        <pt x="340" y="-4" on="1"/>
        <pt x="176" y="-4" on="0"/>
        <pt x="120" y="54" on="1"/>
        <pt x="63" y="113" on="0"/>
      </contour>
    </TTGlyph>
    <TTGlyph name="Oacute" xMin="37" yMin="-4" xMax="643" yMax="940">
      <contour>
        <pt x="286" y="797" on="1"/>
        <pt x="362" y="940" on="1"/>
        <pt x="508" y="940" on="1"/>
        <pt x="394" y="797" on="1"/>
      </contour>
      <contour>
        <pt x="56" y="158" on="0"/>
        <pt x="37" y="279" on="0"/>
        <pt x="37" y="433" on="0"/>
        <pt x="54" y="546" on="0"/>
        <pt x="81" y="625" on="0"/>
        <pt x="126" y="681" on="0"/>
        <pt x="173" y="713" on="0"/>
        <pt x="206" y="722" on="1"/>
        <pt x="258" y="737" on="0"/>
        <pt x="381" y="737" on="0"/>
        <pt x="442" y="731" on="0"/>
        <pt x="509" y="713" on="0"/>
        <pt x="556" y="681" on="0"/>
        <pt x="600" y="625" on="0"/>
        <pt x="614" y="586" on="1"/>
        <pt x="643" y="499" on="0"/>
        <pt x="643" y="266" on="0"/>
        <pt x="613" y="132" on="0"/>
        <pt x="565" y="54" on="0"/>
        <pt x="483" y="10" on="0"/>
        <pt x="400" y="-4" on="0"/>
        <pt x="289" y="-4" on="0"/>
        <pt x="220" y="4" on="0"/>
        <pt x="144" y="29" on="0"/>
        <pt x="96" y="79" on="0"/>
      </contour>
      <contour>
        <pt x="250" y="536" on="0"/>
        <pt x="231" y="452" on="0"/>
        <pt x="231" y="242" on="0"/>
        <pt x="269" y="170" on="0"/>
        <pt x="405" y="170" on="0"/>
        <pt x="449" y="246" on="0"/>
        <pt x="449" y="428" on="0"/>
        <pt x="441" y="502" on="0"/>
        <pt x="416" y="549" on="0"/>
        <pt x="376" y="563" on="0"/>
        <pt x="293" y="563" on="0"/>
      </contour>
    </TTGlyph>
    <TTGlyph name="Ocircumflex" xMin="37" yMin="-4" xMax="643" yMax="937">
      <contour>
        <pt x="179" y="797" on="1"/>
        <pt x="279" y="937" on="1"/>
        <pt x="410" y="937" on="1"/>
        <pt x="501" y="797" on="1"/>
        <pt x="390" y="797" on="1"/>
        <pt x="341" y="848" on="1"/>
        <pt x="291" y="797" on="1"/>
      </contour>
      <contour>
        <pt x="56" y="158" on="0"/>
        <pt x="37" y="279" on="0"/>
        <pt x="37" y="433" on="0"/>
        <pt x="54" y="546" on="0"/>
        <pt x="81" y="625" on="0"/>
        <pt x="126" y="681" on="0"/>
        <pt x="173" y="713" on="0"/>
        <pt x="206" y="722" on="1"/>
        <pt x="258" y="737" on="0"/>
        <pt x="381" y="737" on="0"/>
        <pt x="442" y="731" on="0"/>
        <pt x="509" y="713" on="0"/>
        <pt x="556" y="681" on="0"/>
        <pt x="600" y="625" on="0"/>
        <pt x="614" y="586" on="1"/>
        <pt x="643" y="499" on="0"/>
        <pt x="643" y="266" on="0"/>
        <pt x="613" y="132" on="0"/>
        <pt x="565" y="54" on="0"/>
        <pt x="483" y="10" on="0"/>
        <pt x="400" y="-4" on="0"/>
        <pt x="289" y="-4" on="0"/>
        <pt x="220" y="4" on="0"/>
        <pt x="144" y="29" on="0"/>
        <pt x="96" y="79" on="0"/>
      </contour>
      <contour>
        <pt x="250" y="536" on="0"/>
        <pt x="231" y="452" on="0"/>
        <pt x="231" y="242" on="0"/>
        <pt x="269" y="170" on="0"/>
        <pt x="405" y="170" on="0"/>
        <pt x="449" y="246" on="0"/>
        <pt x="449" y="428" on="0"/>
        <pt x="441" y="502" on="0"/>
        <pt x="416" y="549" on="0"/>
        <pt x="376" y="563" on="0"/>
        <pt x="293" y="563" on="0"/>
      </contour>
    </TTGlyph>
    <TTGlyph name="Odieresis" xMin="37" yMin="-4" xMax="643" yMax="928">
      <contour>
        <pt x="147" y="836" on="0"/>
        <pt x="147" y="890" on="0"/>
        <pt x="186" y="928" on="0"/>
        <pt x="240" y="928" on="0"/>
        <pt x="278" y="890" on="0"/>
        <pt x="278" y="836" on="0"/>
        <pt x="240" y="797" on="0"/>
        <pt x="186" y="797" on="0"/>
      </contour>
      <contour>
        <pt x="402" y="836" on="0"/>
        <pt x="402" y="890" on="0"/>
        <pt x="441" y="928" on="0"/>
        <pt x="495" y="928" on="0"/>
        <pt x="533" y="890" on="0"/>
        <pt x="533" y="836" on="0"/>
        <pt x="495" y="797" on="0"/>
        <pt x="441" y="797" on="0"/>
      </contour>
      <contour>
        <pt x="56" y="158" on="0"/>
        <pt x="37" y="279" on="0"/>
        <pt x="37" y="433" on="0"/>
        <pt x="54" y="546" on="0"/>
        <pt x="81" y="625" on="0"/>
        <pt x="126" y="681" on="0"/>
        <pt x="173" y="713" on="0"/>
        <pt x="206" y="722" on="1"/>
        <pt x="258" y="737" on="0"/>
        <pt x="381" y="737" on="0"/>
        <pt x="442" y="731" on="0"/>
        <pt x="509" y="713" on="0"/>
        <pt x="556" y="681" on="0"/>
        <pt x="600" y="625" on="0"/>
        <pt x="614" y="586" on="1"/>
        <pt x="643" y="499" on="0"/>
        <pt x="643" y="266" on="0"/>
        <pt x="613" y="132" on="0"/>
        <pt x="565" y="54" on="0"/>
        <pt x="483" y="10" on="0"/>
        <pt x="400" y="-4" on="0"/>
        <pt x="289" y="-4" on="0"/>
        <pt x="220" y="4" on="0"/>
        <pt x="144" y="29" on="0"/>
        <pt x="96" y="79" on="0"/>
      </contour>
      <contour>
        <pt x="250" y="536" on="0"/>
        <pt x="231" y="452" on="0"/>
        <pt x="231" y="242" on="0"/>
        <pt x="269" y="170" on="0"/>
        <pt x="405" y="170" on="0"/>
        <pt x="449" y="246" on="0"/>
        <pt x="449" y="428" on="0"/>
        <pt x="441" y="502" on="0"/>
        <pt x="416" y="549" on="0"/>
        <pt x="376" y="563" on="0"/>
        <pt x="293" y="563" on="0"/>
      </contour>
    </TTGlyph>
    <TTGlyph name="Ograve" xMin="37" yMin="-4" xMax="643" yMax="940">
      <contour>
        <pt x="172" y="940" on="1"/>
        <pt x="318" y="940" on="1"/>
        <pt x="394" y="797" on="1"/>
        <pt x="286" y="797" on="1"/>
      </contour>
      <contour>
        <pt x="56" y="158" on="0"/>
        <pt x="37" y="279" on="0"/>
        <pt x="37" y="433" on="0"/>
        <pt x="54" y="546" on="0"/>
        <pt x="81" y="625" on="0"/>
        <pt x="126" y="681" on="0"/>
        <pt x="173" y="713" on="0"/>
        <pt x="206" y="722" on="1"/>
        <pt x="258" y="737" on="0"/>
        <pt x="381" y="737" on="0"/>
        <pt x="442" y="731" on="0"/>
        <pt x="509" y="713" on="0"/>
        <pt x="556" y="681" on="0"/>
        <pt x="600" y="625" on="0"/>
        <pt x="614" y="586" on="1"/>
        <pt x="643" y="499" on="0"/>
        <pt x="643" y="266" on="0"/>
        <pt x="613" y="132" on="0"/>
        <pt x="565" y="54" on="0"/>
        <pt x="483" y="10" on="0"/>
        <pt x="400" y="-4" on="0"/>
        <pt x="289" y="-4" on="0"/>
        <pt x="220" y="4" on="0"/>
        <pt x="144" y="29" on="0"/>
        <pt x="96" y="79" on="0"/>
      </contour>
      <contour>
        <pt x="250" y="536" on="0"/>
        <pt x="231" y="452" on="0"/>
        <pt x="231" y="242" on="0"/>
        <pt x="269" y="170" on="0"/>
        <pt x="405" y="170" on="0"/>
        <pt x="449" y="246" on="0"/>
        <pt x="449" y="428" on="0"/>
        <pt x="441" y="502" on="0"/>
        <pt x="416" y="549" on="0"/>
        <pt x="376" y="563" on="0"/>
        <pt x="293" y="563" on="0"/>
      </contour>
    </TTGlyph>
    <TTGlyph name="Ohungarumlaut" xMin="37" yMin="-4" xMax="643" yMax="940">
      <contour>
        <pt x="199" y="797" on="1"/>
        <pt x="276" y="940" on="1"/>
        <pt x="421" y="940" on="1"/>
        <pt x="308" y="797" on="1"/>
      </contour>
      <contour>
        <pt x="372" y="797" on="1"/>
        <pt x="449" y="940" on="1"/>
        <pt x="594" y="940" on="1"/>
        <pt x="481" y="797" on="1"/>
      </contour>
      <contour>
        <pt x="56" y="158" on="0"/>
        <pt x="37" y="279" on="0"/>
        <pt x="37" y="433" on="0"/>
        <pt x="54" y="546" on="0"/>
        <pt x="81" y="625" on="0"/>
        <pt x="126" y="681" on="0"/>
        <pt x="173" y="713" on="0"/>
        <pt x="206" y="722" on="1"/>
        <pt x="258" y="737" on="0"/>
        <pt x="381" y="737" on="0"/>
        <pt x="442" y="731" on="0"/>
        <pt x="509" y="713" on="0"/>
        <pt x="556" y="681" on="0"/>
        <pt x="600" y="625" on="0"/>
        <pt x="614" y="586" on="1"/>
        <pt x="643" y="499" on="0"/>
        <pt x="643" y="266" on="0"/>
        <pt x="613" y="132" on="0"/>
        <pt x="565" y="54" on="0"/>
        <pt x="483" y="10" on="0"/>
        <pt x="400" y="-4" on="0"/>
        <pt x="289" y="-4" on="0"/>
        <pt x="220" y="4" on="0"/>
        <pt x="144" y="29" on="0"/>
        <pt x="96" y="79" on="0"/>
      </contour>
      <contour>
        <pt x="250" y="536" on="0"/>
        <pt x="231" y="452" on="0"/>
        <pt x="231" y="242" on="0"/>
        <pt x="269" y="170" on="0"/>
        <pt x="405" y="170" on="0"/>
        <pt x="449" y="246" on="0"/>
        <pt x="449" y="428" on="0"/>
        <pt x="441" y="502" on="0"/>
        <pt x="416" y="549" on="0"/>
        <pt x="376" y="563" on="0"/>
        <pt x="293" y="563" on="0"/>
      </contour>
    </TTGlyph>
    <TTGlyph name="Omacron" xMin="37" yMin="-4" xMax="643" yMax="890">
      <contour>
        <pt x="194" y="797" on="1"/>
        <pt x="194" y="890" on="1"/>
        <pt x="486" y="890" on="1"/>
        <pt x="486" y="797" on="1"/>
      </contour>
      <contour>
        <pt x="56" y="158" on="0"/>
        <pt x="37" y="279" on="0"/>
        <pt x="37" y="433" on="0"/>
        <pt x="54" y="546" on="0"/>
        <pt x="81" y="625" on="0"/>
        <pt x="126" y="681" on="0"/>
        <pt x="173" y="713" on="0"/>
        <pt x="206" y="722" on="1"/>
        <pt x="258" y="737" on="0"/>
        <pt x="381" y="737" on="0"/>
        <pt x="442" y="731" on="0"/>
        <pt x="509" y="713" on="0"/>
        <pt x="556" y="681" on="0"/>
        <pt x="600" y="625" on="0"/>
        <pt x="614" y="586" on="1"/>
        <pt x="643" y="499" on="0"/>
        <pt x="643" y="266" on="0"/>
        <pt x="613" y="132" on="0"/>
        <pt x="565" y="54" on="0"/>
        <pt x="483" y="10" on="0"/>
        <pt x="400" y="-4" on="0"/>
        <pt x="289" y="-4" on="0"/>
        <pt x="220" y="4" on="0"/>
        <pt x="144" y="29" on="0"/>
        <pt x="96" y="79" on="0"/>
      </contour>
      <contour>
        <pt x="250" y="536" on="0"/>
        <pt x="231" y="452" on="0"/>
        <pt x="231" y="242" on="0"/>
        <pt x="269" y="170" on="0"/>
        <pt x="405" y="170" on="0"/>
        <pt x="449" y="246" on="0"/>
        <pt x="449" y="428" on="0"/>
        <pt x="441" y="502" on="0"/>
        <pt x="416" y="549" on="0"/>
        <pt x="376" y="563" on="0"/>
        <pt x="293" y="563" on="0"/>
      </contour>
    </TTGlyph>
    <TTGlyph name="Omega" xMin="36" yMin="0" xMax="715" yMax="739">
      <contour>
        <pt x="36" y="398" on="1"/>
        <pt x="36" y="527" on="0"/>
        <pt x="107" y="626" on="1"/>
        <pt x="144" y="677" on="0"/>
        <pt x="282" y="739" on="0"/>
        <pt x="466" y="739" on="0"/>
        <pt x="599" y="683" on="0"/>
        <pt x="636" y="634" on="1"/>
        <pt x="710" y="536" on="0"/>
        <pt x="710" y="393" on="1"/>
        <pt x="710" y="313" on="0"/>
        <pt x="670" y="220" on="0"/>
        <pt x="627" y="167" on="1"/>
        <pt x="715" y="157" on="1"/>
        <pt x="715" y="0" on="1"/>
        <pt x="447" y="0" on="1"/>
        <pt x="447" y="168" on="1"/>
        <pt x="486" y="207" on="0"/>
        <pt x="516" y="312" on="0"/>
        <pt x="516" y="407" on="0"/>
        <pt x="510" y="451" on="0"/>
        <pt x="492" y="502" on="0"/>
        <pt x="463" y="539" on="0"/>
        <pt x="410" y="565" on="0"/>
        <pt x="376" y="565" on="1"/>
        <pt x="230" y="565" on="0"/>
        <pt x="230" y="380" on="1"/>
        <pt x="230" y="307" on="0"/>
        <pt x="259" y="211" on="0"/>
        <pt x="302" y="168" on="1"/>
        <pt x="302" y="0" on="1"/>
        <pt x="42" y="0" on="1"/>
        <pt x="42" y="158" on="1"/>
        <pt x="135" y="168" on="1"/>
        <pt x="36" y="236" on="0"/>
      </contour>
    </TTGlyph>
    <TTGlyph name="Oslash" xMin="31" yMin="-4" xMax="652" yMax="737">
      <contour>
        <pt x="112" y="653" on="1"/>
        <pt x="135" y="681" on="0"/>
        <pt x="182" y="713" on="0"/>
        <pt x="216" y="722" on="1"/>
        <pt x="267" y="737" on="0"/>
        <pt x="349" y="737" on="1"/>
        <pt x="474" y="737" on="0"/>
        <pt x="534" y="701" on="1"/>
        <pt x="556" y="732" on="1"/>
        <pt x="642" y="732" on="1"/>
        <pt x="586" y="654" on="1"/>
        <pt x="652" y="565" on="0"/>
        <pt x="652" y="361" on="1"/>
        <pt x="652" y="181" on="0"/>
        <pt x="598" y="93" on="1"/>
        <pt x="574" y="54" on="0"/>
        <pt x="492" y="10" on="0"/>
        <pt x="409" y="-4" on="0"/>
        <pt x="349" y="-4" on="1"/>
        <pt x="206" y="-4" on="0"/>
        <pt x="146" y="40" on="1"/>
        <pt x="117" y="0" on="1"/>
        <pt x="31" y="0" on="1"/>
        <pt x="98" y="93" on="1"/>
        <pt x="46" y="178" on="0"/>
        <pt x="46" y="570" on="0"/>
      </contour>
      <contour>
        <pt x="259" y="536" on="0"/>
        <pt x="240" y="452" on="0"/>
        <pt x="240" y="313" on="0"/>
        <pt x="241" y="293" on="1"/>
        <pt x="422" y="545" on="1"/>
        <pt x="401" y="563" on="0"/>
        <pt x="302" y="563" on="0"/>
      </contour>
      <contour>
        <pt x="262" y="202" on="1"/>
        <pt x="283" y="170" on="0"/>
        <pt x="414" y="170" on="0"/>
        <pt x="458" y="246" on="0"/>
        <pt x="458" y="434" on="0"/>
        <pt x="453" y="469" on="1"/>
      </contour>
    </TTGlyph>
    <TTGlyph name="Otilde" xMin="37" yMin="-4" xMax="643" yMax="943">
      <contour>
        <pt x="289" y="938" on="1"/>
        <pt x="312" y="938" on="0"/>
        <pt x="376" y="903" on="0"/>
        <pt x="395" y="903" on="1"/>
        <pt x="398" y="903" on="0"/>
        <pt x="402" y="903" on="1"/>
        <pt x="450" y="903" on="0"/>
        <pt x="488" y="943" on="1"/>
        <pt x="514" y="869" on="1"/>
        <pt x="466" y="797" on="0"/>
        <pt x="402" y="797" on="1"/>
        <pt x="380" y="797" on="0"/>
        <pt x="305" y="832" on="0"/>
        <pt x="286" y="832" on="1"/>
        <pt x="238" y="832" on="0"/>
        <pt x="193" y="797" on="1"/>
        <pt x="166" y="864" on="1"/>
        <pt x="217" y="938" on="0"/>
      </contour>
      <contour>
        <pt x="56" y="158" on="0"/>
        <pt x="37" y="279" on="0"/>
        <pt x="37" y="433" on="0"/>
        <pt x="54" y="546" on="0"/>
        <pt x="81" y="625" on="0"/>
        <pt x="126" y="681" on="0"/>
        <pt x="173" y="713" on="0"/>
        <pt x="206" y="722" on="1"/>
        <pt x="258" y="737" on="0"/>
        <pt x="381" y="737" on="0"/>
        <pt x="442" y="731" on="0"/>
        <pt x="509" y="713" on="0"/>
        <pt x="556" y="681" on="0"/>
        <pt x="600" y="625" on="0"/>
        <pt x="614" y="586" on="1"/>
        <pt x="643" y="499" on="0"/>
        <pt x="643" y="266" on="0"/>
        <pt x="613" y="132" on="0"/>
        <pt x="565" y="54" on="0"/>
        <pt x="483" y="10" on="0"/>
        <pt x="400" y="-4" on="0"/>
        <pt x="289" y="-4" on="0"/>
        <pt x="220" y="4" on="0"/>
        <pt x="144" y="29" on="0"/>
        <pt x="96" y="79" on="0"/>
      </contour>
      <contour>
        <pt x="250" y="536" on="0"/>
        <pt x="231" y="452" on="0"/>
        <pt x="231" y="242" on="0"/>
        <pt x="269" y="170" on="0"/>
        <pt x="405" y="170" on="0"/>
        <pt x="449" y="246" on="0"/>
        <pt x="449" y="428" on="0"/>
        <pt x="441" y="502" on="0"/>
        <pt x="416" y="549" on="0"/>
        <pt x="376" y="563" on="0"/>
        <pt x="293" y="563" on="0"/>
      </contour>
    </TTGlyph>
    <TTGlyph name="P" xMin="44" yMin="0" xMax="596" yMax="732">
      <contour>
        <pt x="44" y="0" on="1"/>
        <pt x="44" y="732" on="1"/>
        <pt x="370" y="732" on="1"/>
        <pt x="493" y="732" on="0"/>
        <pt x="546" y="670" on="1"/>
        <pt x="568" y="646" on="0"/>
        <pt x="596" y="556" on="0"/>
        <pt x="596" y="428" on="0"/>
        <pt x="566" y="330" on="0"/>
        <pt x="521" y="279" on="0"/>
        <pt x="456" y="251" on="0"/>
        <pt x="414" y="247" on="0"/>
        <pt x="384" y="247" on="0"/>
        <pt x="342" y="250" on="0"/>
        <pt x="242" y="266" on="0"/>
        <pt x="238" y="268" on="1"/>
        <pt x="238" y="0" on="1"/>
      </contour>
      <contour>
        <pt x="238" y="412" on="1"/>
        <pt x="350" y="412" on="1"/>
        <pt x="401" y="412" on="0"/>
        <pt x="401" y="567" on="0"/>
        <pt x="350" y="567" on="1"/>
        <pt x="238" y="567" on="1"/>
      </contour>
    </TTGlyph>
    <TTGlyph name="Q" xMin="37" yMin="-213" xMax="643" yMax="737">
      <contour>
        <pt x="56" y="158" on="0"/>
        <pt x="37" y="279" on="0"/>
        <pt x="37" y="433" on="0"/>
        <pt x="54" y="546" on="0"/>
        <pt x="81" y="625" on="0"/>
        <pt x="126" y="681" on="0"/>
        <pt x="173" y="713" on="0"/>
        <pt x="206" y="722" on="1"/>
        <pt x="258" y="737" on="0"/>
        <pt x="381" y="737" on="0"/>
        <pt x="442" y="731" on="0"/>
        <pt x="509" y="713" on="0"/>
        <pt x="556" y="681" on="0"/>
        <pt x="600" y="625" on="0"/>
        <pt x="614" y="586" on="1"/>
        <pt x="643" y="499" on="0"/>
        <pt x="643" y="361" on="1"/>
        <pt x="643" y="199" on="0"/>
        <pt x="604" y="123" on="1"/>
        <pt x="584" y="84" on="0"/>
        <pt x="535" y="33" on="0"/>
        <pt x="498" y="20" on="1"/>
        <pt x="439" y="-2" on="0"/>
        <pt x="289" y="-4" on="0"/>
        <pt x="220" y="4" on="0"/>
        <pt x="144" y="29" on="0"/>
        <pt x="96" y="79" on="0"/>
      </contour>
      <contour>
        <pt x="250" y="536" on="0"/>
        <pt x="231" y="452" on="0"/>
        <pt x="231" y="242" on="0"/>
        <pt x="269" y="170" on="0"/>
        <pt x="405" y="170" on="0"/>
        <pt x="449" y="246" on="0"/>
        <pt x="449" y="428" on="0"/>
        <pt x="441" y="502" on="0"/>
        <pt x="416" y="549" on="0"/>
        <pt x="376" y="563" on="0"/>
        <pt x="293" y="563" on="0"/>
      </contour>
      <contour>
        <pt x="286" y="-33" on="1"/>
        <pt x="388" y="-33" on="1"/>
        <pt x="392" y="-77" on="0"/>
        <pt x="465" y="-77" on="1"/>
        <pt x="498" y="-77" on="0"/>
        <pt x="546" y="-68" on="1"/>
        <pt x="546" y="-208" on="1"/>
        <pt x="517" y="-212" on="0"/>
        <pt x="486" y="-212" on="1"/>
        <pt x="385" y="-212" on="0"/>
        <pt x="326" y="-149" on="1"/>
        <pt x="286" y="-105" on="0"/>
      </contour>
    </TTGlyph>
    <TTGlyph name="R" xMin="44" yMin="0" xMax="613" yMax="732">
      <contour>
        <pt x="44" y="0" on="1"/>
        <pt x="44" y="732" on="1"/>
        <pt x="371" y="732" on="1"/>
        <pt x="477" y="732" on="0"/>
        <pt x="595" y="625" on="0"/>
        <pt x="595" y="497" on="1"/>
        <pt x="595" y="372" on="0"/>
        <pt x="560" y="328" on="1"/>
        <pt x="541" y="306" on="0"/>
        <pt x="512" y="287" on="0"/>
        <pt x="487" y="277" on="1"/>
        <pt x="613" y="0" on="1"/>
        <pt x="392" y="0" on="1"/>
        <pt x="298" y="259" on="1"/>
        <pt x="238" y="273" on="1"/>
        <pt x="238" y="0" on="1"/>
      </contour>
      <contour>
        <pt x="239" y="419" on="1"/>
        <pt x="346" y="419" on="1"/>
        <pt x="381" y="419" on="0"/>
        <pt x="400" y="453" on="0"/>
        <pt x="400" y="533" on="0"/>
        <pt x="377" y="567" on="0"/>
        <pt x="346" y="567" on="1"/>
        <pt x="239" y="567" on="1"/>
      </contour>
    </TTGlyph>
    <TTGlyph name="Racute" xMin="44" yMin="0" xMax="613" yMax="940">
      <contour>
        <pt x="261" y="797" on="1"/>
        <pt x="338" y="940" on="1"/>
        <pt x="483" y="940" on="1"/>
        <pt x="370" y="797" on="1"/>
      </contour>
      <contour>
        <pt x="44" y="0" on="1"/>
        <pt x="44" y="732" on="1"/>
        <pt x="371" y="732" on="1"/>
        <pt x="477" y="732" on="0"/>
        <pt x="595" y="625" on="0"/>
        <pt x="595" y="497" on="1"/>
        <pt x="595" y="372" on="0"/>
        <pt x="560" y="328" on="1"/>
        <pt x="541" y="306" on="0"/>
        <pt x="512" y="287" on="0"/>
        <pt x="487" y="277" on="1"/>
        <pt x="613" y="0" on="1"/>
        <pt x="392" y="0" on="1"/>
        <pt x="298" y="259" on="1"/>
        <pt x="238" y="273" on="1"/>
        <pt x="238" y="0" on="1"/>
      </contour>
      <contour>
        <pt x="239" y="419" on="1"/>
        <pt x="346" y="419" on="1"/>
        <pt x="381" y="419" on="0"/>
        <pt x="400" y="453" on="0"/>
        <pt x="400" y="533" on="0"/>
        <pt x="377" y="567" on="0"/>
        <pt x="346" y="567" on="1"/>
        <pt x="239" y="567" on="1"/>
      </contour>
    </TTGlyph>
    <TTGlyph name="Rcaron" xMin="44" yMin="0" xMax="613" yMax="937">
      <contour>
        <pt x="159" y="937" on="1"/>
        <pt x="270" y="937" on="1"/>
        <pt x="319" y="886" on="1"/>
        <pt x="369" y="937" on="1"/>
        <pt x="481" y="937" on="1"/>
        <pt x="381" y="797" on="1"/>
        <pt x="250" y="797" on="1"/>
      </contour>
      <contour>
        <pt x="44" y="0" on="1"/>
        <pt x="44" y="732" on="1"/>
        <pt x="371" y="732" on="1"/>
        <pt x="477" y="732" on="0"/>
        <pt x="595" y="625" on="0"/>
        <pt x="595" y="497" on="1"/>
        <pt x="595" y="372" on="0"/>
        <pt x="560" y="328" on="1"/>
        <pt x="541" y="306" on="0"/>
        <pt x="512" y="287" on="0"/>
        <pt x="487" y="277" on="1"/>
        <pt x="613" y="0" on="1"/>
        <pt x="392" y="0" on="1"/>
        <pt x="298" y="259" on="1"/>
        <pt x="238" y="273" on="1"/>
        <pt x="238" y="0" on="1"/>
      </contour>
      <contour>
        <pt x="239" y="419" on="1"/>
        <pt x="346" y="419" on="1"/>
        <pt x="381" y="419" on="0"/>
        <pt x="400" y="453" on="0"/>
        <pt x="400" y="533" on="0"/>
        <pt x="377" y="567" on="0"/>
        <pt x="346" y="567" on="1"/>
        <pt x="239" y="567" on="1"/>
      </contour>
    </TTGlyph>
    <TTGlyph name="Rcommaaccent" xMin="44" yMin="-303" xMax="613" yMax="732">
      <contour>
        <pt x="226" y="-194" on="1"/>
        <pt x="226" y="-91" on="1"/>
        <pt x="226" y="-67" on="0"/>
        <pt x="249" y="-67" on="1"/>
        <pt x="349" y="-67" on="1"/>
        <pt x="370" y="-67" on="0"/>
        <pt x="370" y="-91" on="1"/>
        <pt x="370" y="-226" on="1"/>
        <pt x="370" y="-257" on="0"/>
        <pt x="341" y="-294" on="0"/>
        <pt x="301" y="-303" on="0"/>
        <pt x="282" y="-303" on="1"/>
        <pt x="280" y="-303" on="1"/>
        <pt x="259" y="-303" on="0"/>
        <pt x="245" y="-299" on="1"/>
        <pt x="231" y="-295" on="1"/>
        <pt x="231" y="-239" on="1"/>
        <pt x="254" y="-240" on="0"/>
        <pt x="257" y="-230" on="1"/>
        <pt x="259" y="-226" on="0"/>
        <pt x="259" y="-220" on="1"/>
        <pt x="259" y="-216" on="1"/>
        <pt x="249" y="-216" on="1"/>
        <pt x="226" y="-216" on="0"/>
      </contour>
      <contour>
        <pt x="44" y="0" on="1"/>
        <pt x="44" y="732" on="1"/>
        <pt x="371" y="732" on="1"/>
        <pt x="477" y="732" on="0"/>
        <pt x="595" y="625" on="0"/>
        <pt x="595" y="497" on="1"/>
        <pt x="595" y="372" on="0"/>
        <pt x="560" y="328" on="1"/>
        <pt x="541" y="306" on="0"/>
        <pt x="512" y="287" on="0"/>
        <pt x="487" y="277" on="1"/>
        <pt x="613" y="0" on="1"/>
        <pt x="392" y="0" on="1"/>
        <pt x="298" y="259" on="1"/>
        <pt x="238" y="273" on="1"/>
        <pt x="238" y="0" on="1"/>
      </contour>
      <contour>
        <pt x="239" y="419" on="1"/>
        <pt x="346" y="419" on="1"/>
        <pt x="381" y="419" on="0"/>
        <pt x="400" y="453" on="0"/>
        <pt x="400" y="533" on="0"/>
        <pt x="377" y="567" on="0"/>
        <pt x="346" y="567" on="1"/>
        <pt x="239" y="567" on="1"/>
      </contour>
    </TTGlyph>
    <TTGlyph name="S" xMin="37" yMin="-8" xMax="572" yMax="741">
      <contour>
        <pt x="37" y="479" on="1"/>
        <pt x="37" y="540" on="1"/>
        <pt x="37" y="634" on="0"/>
        <pt x="146" y="732" on="0"/>
        <pt x="235" y="738" on="1"/>
        <pt x="274" y="741" on="0"/>
        <pt x="311" y="741" on="1"/>
        <pt x="448" y="741" on="0"/>
        <pt x="545" y="705" on="1"/>
        <pt x="545" y="554" on="1"/>
        <pt x="454" y="564" on="0"/>
        <pt x="305" y="564" on="1"/>
        <pt x="261" y="564" on="0"/>
        <pt x="231" y="550" on="0"/>
        <pt x="231" y="520" on="1"/>
        <pt x="231" y="509" on="1"/>
        <pt x="231" y="483" on="0"/>
        <pt x="253" y="461" on="0"/>
        <pt x="291" y="461" on="1"/>
        <pt x="385" y="461" on="1"/>
        <pt x="504" y="461" on="0"/>
        <pt x="550" y="358" on="1"/>
        <pt x="572" y="308" on="0"/>
        <pt x="572" y="249" on="1"/>
        <pt x="572" y="216" on="1"/>
        <pt x="572" y="-8" on="0"/>
        <pt x="369" y="-8" on="1"/>
        <pt x="223" y="-8" on="0"/>
        <pt x="133" y="1" on="0"/>
        <pt x="60" y="26" on="1"/>
        <pt x="60" y="177" on="1"/>
        <pt x="170" y="166" on="0"/>
        <pt x="319" y="166" on="1"/>
        <pt x="351" y="166" on="0"/>
        <pt x="378" y="185" on="0"/>
        <pt x="378" y="207" on="1"/>
        <pt x="378" y="223" on="1"/>
        <pt x="378" y="246" on="0"/>
        <pt x="356" y="267" on="0"/>
        <pt x="325" y="267" on="1"/>
        <pt x="235" y="267" on="1"/>
        <pt x="181" y="267" on="0"/>
        <pt x="102" y="303" on="0"/>
        <pt x="64" y="351" on="0"/>
        <pt x="52" y="384" on="1"/>
        <pt x="37" y="430" on="0"/>
      </contour>
    </TTGlyph>
    <TTGlyph name="Sacute" xMin="37" yMin="-8" xMax="572" yMax="942">
      <contour>
        <pt x="252" y="799" on="1"/>
        <pt x="329" y="942" on="1"/>
        <pt x="474" y="942" on="1"/>
        <pt x="361" y="799" on="1"/>
      </contour>
      <contour>
        <pt x="37" y="479" on="1"/>
        <pt x="37" y="540" on="1"/>
        <pt x="37" y="634" on="0"/>
        <pt x="146" y="732" on="0"/>
        <pt x="235" y="738" on="1"/>
        <pt x="274" y="741" on="0"/>
        <pt x="311" y="741" on="1"/>
        <pt x="448" y="741" on="0"/>
        <pt x="545" y="705" on="1"/>
        <pt x="545" y="554" on="1"/>
        <pt x="454" y="564" on="0"/>
        <pt x="305" y="564" on="1"/>
        <pt x="261" y="564" on="0"/>
        <pt x="231" y="550" on="0"/>
        <pt x="231" y="520" on="1"/>
        <pt x="231" y="509" on="1"/>
        <pt x="231" y="483" on="0"/>
        <pt x="253" y="461" on="0"/>
        <pt x="291" y="461" on="1"/>
        <pt x="385" y="461" on="1"/>
        <pt x="504" y="461" on="0"/>
        <pt x="550" y="358" on="1"/>
        <pt x="572" y="308" on="0"/>
        <pt x="572" y="249" on="1"/>
        <pt x="572" y="216" on="1"/>
        <pt x="572" y="-8" on="0"/>
        <pt x="369" y="-8" on="1"/>
        <pt x="223" y="-8" on="0"/>
        <pt x="133" y="1" on="0"/>
        <pt x="60" y="26" on="1"/>
        <pt x="60" y="177" on="1"/>
        <pt x="170" y="166" on="0"/>
        <pt x="319" y="166" on="1"/>
        <pt x="351" y="166" on="0"/>
        <pt x="378" y="185" on="0"/>
        <pt x="378" y="207" on="1"/>
        <pt x="378" y="223" on="1"/>
        <pt x="378" y="246" on="0"/>
        <pt x="356" y="267" on="0"/>
        <pt x="325" y="267" on="1"/>
        <pt x="235" y="267" on="1"/>
        <pt x="181" y="267" on="0"/>
        <pt x="102" y="303" on="0"/>
        <pt x="64" y="351" on="0"/>
        <pt x="52" y="384" on="1"/>
        <pt x="37" y="430" on="0"/>
      </contour>
    </TTGlyph>
    <TTGlyph name="Scaron" xMin="37" yMin="-8" xMax="572" yMax="939">
      <contour>
        <pt x="153" y="939" on="1"/>
        <pt x="264" y="939" on="1"/>
        <pt x="313" y="888" on="1"/>
        <pt x="363" y="939" on="1"/>
        <pt x="475" y="939" on="1"/>
        <pt x="375" y="799" on="1"/>
        <pt x="244" y="799" on="1"/>
      </contour>
      <contour>
        <pt x="37" y="479" on="1"/>
        <pt x="37" y="540" on="1"/>
        <pt x="37" y="634" on="0"/>
        <pt x="146" y="732" on="0"/>
        <pt x="235" y="738" on="1"/>
        <pt x="274" y="741" on="0"/>
        <pt x="311" y="741" on="1"/>
        <pt x="448" y="741" on="0"/>
        <pt x="545" y="705" on="1"/>
        <pt x="545" y="554" on="1"/>
        <pt x="454" y="564" on="0"/>
        <pt x="305" y="564" on="1"/>
        <pt x="261" y="564" on="0"/>
        <pt x="231" y="550" on="0"/>
        <pt x="231" y="520" on="1"/>
        <pt x="231" y="509" on="1"/>
        <pt x="231" y="483" on="0"/>
        <pt x="253" y="461" on="0"/>
        <pt x="291" y="461" on="1"/>
        <pt x="385" y="461" on="1"/>
        <pt x="504" y="461" on="0"/>
        <pt x="550" y="358" on="1"/>
        <pt x="572" y="308" on="0"/>
        <pt x="572" y="249" on="1"/>
        <pt x="572" y="216" on="1"/>
        <pt x="572" y="-8" on="0"/>
        <pt x="369" y="-8" on="1"/>
        <pt x="223" y="-8" on="0"/>
        <pt x="133" y="1" on="0"/>
        <pt x="60" y="26" on="1"/>
        <pt x="60" y="177" on="1"/>
        <pt x="170" y="166" on="0"/>
        <pt x="319" y="166" on="1"/>
        <pt x="351" y="166" on="0"/>
        <pt x="378" y="185" on="0"/>
        <pt x="378" y="207" on="1"/>
        <pt x="378" y="223" on="1"/>
        <pt x="378" y="246" on="0"/>
        <pt x="356" y="267" on="0"/>
        <pt x="325" y="267" on="1"/>
        <pt x="235" y="267" on="1"/>
        <pt x="181" y="267" on="0"/>
        <pt x="102" y="303" on="0"/>
        <pt x="64" y="351" on="0"/>
        <pt x="52" y="384" on="1"/>
        <pt x="37" y="430" on="0"/>
      </contour>
    </TTGlyph>
    <TTGlyph name="Scedilla" xMin="37" yMin="-189" xMax="572" yMax="741">
      <contour>
        <pt x="261" y="-43" on="1"/>
        <pt x="378" y="-43" on="1"/>
        <pt x="378" y="-121" on="0"/>
        <pt x="325" y="-189" on="0"/>
        <pt x="257" y="-189" on="1"/>
        <pt x="196" y="-189" on="1"/>
        <pt x="196" y="-110" on="1"/>
        <pt x="233" y="-95" on="1"/>
        <pt x="254" y="-86" on="0"/>
        <pt x="261" y="-72" on="0"/>
      </contour>
      <contour>
        <pt x="37" y="479" on="1"/>
        <pt x="37" y="540" on="1"/>
        <pt x="37" y="634" on="0"/>
        <pt x="146" y="732" on="0"/>
        <pt x="235" y="738" on="1"/>
        <pt x="274" y="741" on="0"/>
        <pt x="311" y="741" on="1"/>
        <pt x="448" y="741" on="0"/>
        <pt x="545" y="705" on="1"/>
        <pt x="545" y="554" on="1"/>
        <pt x="454" y="564" on="0"/>
        <pt x="305" y="564" on="1"/>
        <pt x="261" y="564" on="0"/>
        <pt x="231" y="550" on="0"/>
        <pt x="231" y="520" on="1"/>
        <pt x="231" y="509" on="1"/>
        <pt x="231" y="483" on="0"/>
        <pt x="253" y="461" on="0"/>
        <pt x="291" y="461" on="1"/>
        <pt x="385" y="461" on="1"/>
        <pt x="504" y="461" on="0"/>
        <pt x="550" y="358" on="1"/>
        <pt x="572" y="308" on="0"/>
        <pt x="572" y="249" on="1"/>
        <pt x="572" y="216" on="1"/>
        <pt x="572" y="-8" on="0"/>
        <pt x="369" y="-8" on="1"/>
        <pt x="223" y="-8" on="0"/>
        <pt x="133" y="1" on="0"/>
        <pt x="60" y="26" on="1"/>
        <pt x="60" y="177" on="1"/>
        <pt x="170" y="166" on="0"/>
        <pt x="319" y="166" on="1"/>
        <pt x="351" y="166" on="0"/>
        <pt x="378" y="185" on="0"/>
        <pt x="378" y="207" on="1"/>
        <pt x="378" y="223" on="1"/>
        <pt x="378" y="246" on="0"/>
        <pt x="356" y="267" on="0"/>
        <pt x="325" y="267" on="1"/>
        <pt x="235" y="267" on="1"/>
        <pt x="181" y="267" on="0"/>
        <pt x="102" y="303" on="0"/>
        <pt x="64" y="351" on="0"/>
        <pt x="52" y="384" on="1"/>
        <pt x="37" y="430" on="0"/>
      </contour>
    </TTGlyph>
    <TTGlyph name="Scircumflex" xMin="37" yMin="-8" xMax="572" yMax="939">
      <contour>
        <pt x="146" y="799" on="1"/>
        <pt x="246" y="939" on="1"/>
        <pt x="377" y="939" on="1"/>
        <pt x="468" y="799" on="1"/>
        <pt x="357" y="799" on="1"/>
        <pt x="308" y="850" on="1"/>
        <pt x="258" y="799" on="1"/>
      </contour>
      <contour>
        <pt x="37" y="479" on="1"/>
        <pt x="37" y="540" on="1"/>
        <pt x="37" y="634" on="0"/>
        <pt x="146" y="732" on="0"/>
        <pt x="235" y="738" on="1"/>
        <pt x="274" y="741" on="0"/>
        <pt x="311" y="741" on="1"/>
        <pt x="448" y="741" on="0"/>
        <pt x="545" y="705" on="1"/>
        <pt x="545" y="554" on="1"/>
        <pt x="454" y="564" on="0"/>
        <pt x="305" y="564" on="1"/>
        <pt x="261" y="564" on="0"/>
        <pt x="231" y="550" on="0"/>
        <pt x="231" y="520" on="1"/>
        <pt x="231" y="509" on="1"/>
        <pt x="231" y="483" on="0"/>
        <pt x="253" y="461" on="0"/>
        <pt x="291" y="461" on="1"/>
        <pt x="385" y="461" on="1"/>
        <pt x="504" y="461" on="0"/>
        <pt x="550" y="358" on="1"/>
        <pt x="572" y="308" on="0"/>
        <pt x="572" y="249" on="1"/>
        <pt x="572" y="216" on="1"/>
        <pt x="572" y="-8" on="0"/>
        <pt x="369" y="-8" on="1"/>
        <pt x="223" y="-8" on="0"/>
        <pt x="133" y="1" on="0"/>
        <pt x="60" y="26" on="1"/>
        <pt x="60" y="177" on="1"/>
        <pt x="170" y="166" on="0"/>
        <pt x="319" y="166" on="1"/>
        <pt x="351" y="166" on="0"/>
        <pt x="378" y="185" on="0"/>
        <pt x="378" y="207" on="1"/>
        <pt x="378" y="223" on="1"/>
        <pt x="378" y="246" on="0"/>
        <pt x="356" y="267" on="0"/>
        <pt x="325" y="267" on="1"/>
        <pt x="235" y="267" on="1"/>
        <pt x="181" y="267" on="0"/>
        <pt x="102" y="303" on="0"/>
        <pt x="64" y="351" on="0"/>
        <pt x="52" y="384" on="1"/>
        <pt x="37" y="430" on="0"/>
      </contour>
    </TTGlyph>
    <TTGlyph name="T" xMin="20" yMin="0" xMax="588" yMax="732">
      <contour>
        <pt x="20" y="558" on="1"/>
        <pt x="20" y="732" on="1"/>
        <pt x="588" y="732" on="1"/>
        <pt x="588" y="558" on="1"/>
        <pt x="398" y="558" on="1"/>
        <pt x="398" y="0" on="1"/>
        <pt x="204" y="0" on="1"/>
        <pt x="204" y="558" on="1"/>
      </contour>
    </TTGlyph>
    <TTGlyph name="Tbar" xMin="11" yMin="0" xMax="579" yMax="732">
      <contour>
        <pt x="11" y="558" on="1"/>
        <pt x="11" y="732" on="1"/>
        <pt x="579" y="732" on="1"/>
        <pt x="579" y="558" on="1"/>
        <pt x="389" y="558" on="1"/>
        <pt x="389" y="424" on="1"/>
        <pt x="469" y="424" on="1"/>
        <pt x="469" y="350" on="1"/>
        <pt x="389" y="350" on="1"/>
        <pt x="389" y="0" on="1"/>
        <pt x="195" y="0" on="1"/>
        <pt x="195" y="350" on="1"/>
        <pt x="115" y="350" on="1"/>
        <pt x="115" y="424" on="1"/>
        <pt x="195" y="424" on="1"/>
        <pt x="195" y="558" on="1"/>
      </contour>
    </TTGlyph>
    <TTGlyph name="Tcaron" xMin="20" yMin="0" xMax="588" yMax="937">
      <contour>
        <pt x="143" y="937" on="1"/>
        <pt x="254" y="937" on="1"/>
        <pt x="303" y="886" on="1"/>
        <pt x="353" y="937" on="1"/>
        <pt x="465" y="937" on="1"/>
        <pt x="365" y="797" on="1"/>
        <pt x="234" y="797" on="1"/>
      </contour>
      <contour>
        <pt x="20" y="558" on="1"/>
        <pt x="20" y="732" on="1"/>
        <pt x="588" y="732" on="1"/>
        <pt x="588" y="558" on="1"/>
        <pt x="398" y="558" on="1"/>
        <pt x="398" y="0" on="1"/>
        <pt x="204" y="0" on="1"/>
        <pt x="204" y="558" on="1"/>
      </contour>
    </TTGlyph>
    <TTGlyph name="Tcommaaccent" xMin="20" yMin="-195" xMax="588" yMax="732">
      <contour>
        <pt x="20" y="558" on="1"/>
        <pt x="20" y="732" on="1"/>
        <pt x="588" y="732" on="1"/>
        <pt x="588" y="558" on="1"/>
        <pt x="398" y="558" on="1"/>
        <pt x="398" y="0" on="1"/>
        <pt x="204" y="0" on="1"/>
        <pt x="204" y="558" on="1"/>
      </contour>
      <contour>
        <pt x="246" y="-49" on="1"/>
        <pt x="363" y="-49" on="1"/>
        <pt x="363" y="-127" on="0"/>
        <pt x="310" y="-195" on="0"/>
        <pt x="242" y="-195" on="1"/>
        <pt x="181" y="-195" on="1"/>
        <pt x="181" y="-116" on="1"/>
        <pt x="218" y="-101" on="1"/>
        <pt x="239" y="-92" on="0"/>
        <pt x="246" y="-78" on="0"/>
      </contour>
    </TTGlyph>
    <TTGlyph name="Thorn" xMin="34" yMin="0" xMax="511" yMax="729">
      <contour>
        <pt x="34" y="0" on="1"/>
        <pt x="34" y="729" on="1"/>
        <pt x="228" y="729" on="1"/>
        <pt x="228" y="588" on="1"/>
        <pt x="335" y="588" on="1"/>
        <pt x="511" y="588" on="0"/>
        <pt x="511" y="375" on="1"/>
        <pt x="511" y="215" on="0"/>
        <pt x="428" y="172" on="1"/>
        <pt x="383" y="148" on="0"/>
        <pt x="308" y="148" on="1"/>
        <pt x="289" y="148" on="0"/>
        <pt x="258" y="153" on="0"/>
        <pt x="228" y="168" on="1"/>
        <pt x="228" y="0" on="1"/>
      </contour>
      <contour>
        <pt x="228" y="313" on="1"/>
        <pt x="255" y="313" on="1"/>
        <pt x="295" y="313" on="0"/>
        <pt x="316" y="332" on="0"/>
        <pt x="316" y="397" on="0"/>
        <pt x="300" y="420" on="0"/>
        <pt x="279" y="424" on="0"/>
        <pt x="255" y="424" on="1"/>
        <pt x="228" y="424" on="1"/>
      </contour>
    </TTGlyph>
    <TTGlyph name="U" xMin="45" yMin="-6" xMax="622" yMax="732">
      <contour>
        <pt x="45" y="320" on="1"/>
        <pt x="45" y="732" on="1"/>
        <pt x="239" y="732" on="1"/>
        <pt x="239" y="320" on="1"/>
        <pt x="239" y="218" on="0"/>
        <pt x="261" y="194" on="1"/>
        <pt x="285" y="169" on="0"/>
        <pt x="336" y="169" on="1"/>
        <pt x="383" y="169" on="0"/>
        <pt x="406" y="196" on="1"/>
        <pt x="427" y="218" on="0"/>
        <pt x="427" y="320" on="1"/>
        <pt x="427" y="732" on="1"/>
        <pt x="622" y="732" on="1"/>
        <pt x="622" y="320" on="1"/>
        <pt x="622" y="164" on="0"/>
        <pt x="574" y="92" on="1"/>
        <pt x="558" y="67" on="0"/>
        <pt x="528" y="36" on="0"/>
        <pt x="481" y="13" on="0"/>
        <pt x="448" y="2" on="0"/>
        <pt x="420" y="-1" on="1"/>
        <pt x="384" y="-5" on="0"/>
        <pt x="333" y="-5" on="0"/>
        <pt x="273" y="-5" on="0"/>
        <pt x="216" y="-1" on="0"/>
        <pt x="127" y="32" on="0"/>
        <pt x="81" y="97" on="0"/>
        <pt x="45" y="226" on="0"/>
      </contour>
    </TTGlyph>
    <TTGlyph name="Uacute" xMin="45" yMin="-6" xMax="622" yMax="940">
      <contour>
        <pt x="279" y="797" on="1"/>
        <pt x="356" y="940" on="1"/>
        <pt x="501" y="940" on="1"/>
        <pt x="388" y="797" on="1"/>
      </contour>
      <contour>
        <pt x="45" y="320" on="1"/>
        <pt x="45" y="732" on="1"/>
        <pt x="239" y="732" on="1"/>
        <pt x="239" y="320" on="1"/>
        <pt x="239" y="218" on="0"/>
        <pt x="261" y="194" on="1"/>
        <pt x="285" y="169" on="0"/>
        <pt x="336" y="169" on="1"/>
        <pt x="383" y="169" on="0"/>
        <pt x="406" y="196" on="1"/>
        <pt x="427" y="218" on="0"/>
        <pt x="427" y="320" on="1"/>
        <pt x="427" y="732" on="1"/>
        <pt x="622" y="732" on="1"/>
        <pt x="622" y="320" on="1"/>
        <pt x="622" y="164" on="0"/>
        <pt x="574" y="92" on="1"/>
        <pt x="558" y="67" on="0"/>
        <pt x="528" y="36" on="0"/>
        <pt x="481" y="13" on="0"/>
        <pt x="448" y="2" on="0"/>
        <pt x="420" y="-1" on="1"/>
        <pt x="384" y="-5" on="0"/>
        <pt x="333" y="-5" on="0"/>
        <pt x="273" y="-5" on="0"/>
        <pt x="216" y="-1" on="0"/>
        <pt x="127" y="32" on="0"/>
        <pt x="81" y="97" on="0"/>
        <pt x="45" y="226" on="0"/>
      </contour>
    </TTGlyph>
    <TTGlyph name="Ubreve" xMin="45" yMin="-6" xMax="622" yMax="911">
      <contour>
        <pt x="286" y="911" on="1"/>
        <pt x="286" y="864" on="0"/>
        <pt x="382" y="864" on="0"/>
        <pt x="382" y="911" on="1"/>
        <pt x="448" y="911" on="1"/>
        <pt x="448" y="841" on="0"/>
        <pt x="394" y="811" on="1"/>
        <pt x="368" y="797" on="0"/>
        <pt x="298" y="797" on="0"/>
        <pt x="272" y="811" on="1"/>
        <pt x="218" y="841" on="0"/>
        <pt x="218" y="911" on="1"/>
      </contour>
      <contour>
        <pt x="45" y="320" on="1"/>
        <pt x="45" y="732" on="1"/>
        <pt x="239" y="732" on="1"/>
        <pt x="239" y="320" on="1"/>
        <pt x="239" y="218" on="0"/>
        <pt x="261" y="194" on="1"/>
        <pt x="285" y="169" on="0"/>
        <pt x="336" y="169" on="1"/>
        <pt x="383" y="169" on="0"/>
        <pt x="406" y="196" on="1"/>
        <pt x="427" y="218" on="0"/>
        <pt x="427" y="320" on="1"/>
        <pt x="427" y="732" on="1"/>
        <pt x="622" y="732" on="1"/>
        <pt x="622" y="320" on="1"/>
        <pt x="622" y="164" on="0"/>
        <pt x="574" y="92" on="1"/>
        <pt x="558" y="67" on="0"/>
        <pt x="528" y="36" on="0"/>
        <pt x="481" y="13" on="0"/>
        <pt x="448" y="2" on="0"/>
        <pt x="420" y="-1" on="1"/>
        <pt x="384" y="-5" on="0"/>
        <pt x="333" y="-5" on="0"/>
        <pt x="273" y="-5" on="0"/>
        <pt x="216" y="-1" on="0"/>
        <pt x="127" y="32" on="0"/>
        <pt x="81" y="97" on="0"/>
        <pt x="45" y="226" on="0"/>
      </contour>
    </TTGlyph>
    <TTGlyph name="Ucircumflex" xMin="45" yMin="-6" xMax="622" yMax="937">
      <contour>
        <pt x="172" y="797" on="1"/>
        <pt x="272" y="937" on="1"/>
        <pt x="404" y="937" on="1"/>
        <pt x="494" y="797" on="1"/>
        <pt x="384" y="797" on="1"/>
        <pt x="334" y="848" on="1"/>
        <pt x="284" y="797" on="1"/>
      </contour>
      <contour>
        <pt x="45" y="320" on="1"/>
        <pt x="45" y="732" on="1"/>
        <pt x="239" y="732" on="1"/>
        <pt x="239" y="320" on="1"/>
        <pt x="239" y="218" on="0"/>
        <pt x="261" y="194" on="1"/>
        <pt x="285" y="169" on="0"/>
        <pt x="336" y="169" on="1"/>
        <pt x="383" y="169" on="0"/>
        <pt x="406" y="196" on="1"/>
        <pt x="427" y="218" on="0"/>
        <pt x="427" y="320" on="1"/>
        <pt x="427" y="732" on="1"/>
        <pt x="622" y="732" on="1"/>
        <pt x="622" y="320" on="1"/>
        <pt x="622" y="164" on="0"/>
        <pt x="574" y="92" on="1"/>
        <pt x="558" y="67" on="0"/>
        <pt x="528" y="36" on="0"/>
        <pt x="481" y="13" on="0"/>
        <pt x="448" y="2" on="0"/>
        <pt x="420" y="-1" on="1"/>
        <pt x="384" y="-5" on="0"/>
        <pt x="333" y="-5" on="0"/>
        <pt x="273" y="-5" on="0"/>
        <pt x="216" y="-1" on="0"/>
        <pt x="127" y="32" on="0"/>
        <pt x="81" y="97" on="0"/>
        <pt x="45" y="226" on="0"/>
      </contour>
    </TTGlyph>
    <TTGlyph name="Udieresis" xMin="45" yMin="-6" xMax="622" yMax="928">
      <contour>
        <pt x="140" y="836" on="0"/>
        <pt x="140" y="890" on="0"/>
        <pt x="179" y="928" on="0"/>
        <pt x="234" y="928" on="0"/>
        <pt x="272" y="890" on="0"/>
        <pt x="272" y="836" on="0"/>
        <pt x="233" y="797" on="0"/>
        <pt x="180" y="797" on="0"/>
      </contour>
      <contour>
        <pt x="396" y="836" on="0"/>
        <pt x="396" y="890" on="0"/>
        <pt x="434" y="928" on="0"/>
        <pt x="488" y="928" on="0"/>
        <pt x="526" y="890" on="0"/>
        <pt x="526" y="836" on="0"/>
        <pt x="488" y="797" on="0"/>
        <pt x="434" y="797" on="0"/>
      </contour>
      <contour>
        <pt x="45" y="320" on="1"/>
        <pt x="45" y="732" on="1"/>
        <pt x="239" y="732" on="1"/>
        <pt x="239" y="320" on="1"/>
        <pt x="239" y="218" on="0"/>
        <pt x="261" y="194" on="1"/>
        <pt x="285" y="169" on="0"/>
        <pt x="336" y="169" on="1"/>
        <pt x="383" y="169" on="0"/>
        <pt x="406" y="196" on="1"/>
        <pt x="427" y="218" on="0"/>
        <pt x="427" y="320" on="1"/>
        <pt x="427" y="732" on="1"/>
        <pt x="622" y="732" on="1"/>
        <pt x="622" y="320" on="1"/>
        <pt x="622" y="164" on="0"/>
        <pt x="574" y="92" on="1"/>
        <pt x="558" y="67" on="0"/>
        <pt x="528" y="36" on="0"/>
        <pt x="481" y="13" on="0"/>
        <pt x="448" y="2" on="0"/>
        <pt x="420" y="-1" on="1"/>
        <pt x="384" y="-5" on="0"/>
        <pt x="333" y="-5" on="0"/>
        <pt x="273" y="-5" on="0"/>
        <pt x="216" y="-1" on="0"/>
        <pt x="127" y="32" on="0"/>
        <pt x="81" y="97" on="0"/>
        <pt x="45" y="226" on="0"/>
      </contour>
    </TTGlyph>
    <TTGlyph name="Ugrave" xMin="45" yMin="-6" xMax="622" yMax="940">
      <contour>
        <pt x="166" y="940" on="1"/>
        <pt x="311" y="940" on="1"/>
        <pt x="388" y="797" on="1"/>
        <pt x="279" y="797" on="1"/>
      </contour>
      <contour>
        <pt x="45" y="320" on="1"/>
        <pt x="45" y="732" on="1"/>
        <pt x="239" y="732" on="1"/>
        <pt x="239" y="320" on="1"/>
        <pt x="239" y="218" on="0"/>
        <pt x="261" y="194" on="1"/>
        <pt x="285" y="169" on="0"/>
        <pt x="336" y="169" on="1"/>
        <pt x="383" y="169" on="0"/>
        <pt x="406" y="196" on="1"/>
        <pt x="427" y="218" on="0"/>
        <pt x="427" y="320" on="1"/>
        <pt x="427" y="732" on="1"/>
        <pt x="622" y="732" on="1"/>
        <pt x="622" y="320" on="1"/>
        <pt x="622" y="164" on="0"/>
        <pt x="574" y="92" on="1"/>
        <pt x="558" y="67" on="0"/>
        <pt x="528" y="36" on="0"/>
        <pt x="481" y="13" on="0"/>
        <pt x="448" y="2" on="0"/>
        <pt x="420" y="-1" on="1"/>
        <pt x="384" y="-5" on="0"/>
        <pt x="333" y="-5" on="0"/>
        <pt x="273" y="-5" on="0"/>
        <pt x="216" y="-1" on="0"/>
        <pt x="127" y="32" on="0"/>
        <pt x="81" y="97" on="0"/>
        <pt x="45" y="226" on="0"/>
      </contour>
    </TTGlyph>
    <TTGlyph name="Uhungarumlaut" xMin="45" yMin="-6" xMax="622" yMax="940">
      <contour>
        <pt x="192" y="797" on="1"/>
        <pt x="270" y="940" on="1"/>
        <pt x="414" y="940" on="1"/>
        <pt x="302" y="797" on="1"/>
      </contour>
      <contour>
        <pt x="366" y="797" on="1"/>
        <pt x="442" y="940" on="1"/>
        <pt x="588" y="940" on="1"/>
        <pt x="474" y="797" on="1"/>
      </contour>
      <contour>
        <pt x="45" y="320" on="1"/>
        <pt x="45" y="732" on="1"/>
        <pt x="239" y="732" on="1"/>
        <pt x="239" y="320" on="1"/>
        <pt x="239" y="218" on="0"/>
        <pt x="261" y="194" on="1"/>
        <pt x="285" y="169" on="0"/>
        <pt x="336" y="169" on="1"/>
        <pt x="383" y="169" on="0"/>
        <pt x="406" y="196" on="1"/>
        <pt x="427" y="218" on="0"/>
        <pt x="427" y="320" on="1"/>
        <pt x="427" y="732" on="1"/>
        <pt x="622" y="732" on="1"/>
        <pt x="622" y="320" on="1"/>
        <pt x="622" y="164" on="0"/>
        <pt x="574" y="92" on="1"/>
        <pt x="558" y="67" on="0"/>
        <pt x="528" y="36" on="0"/>
        <pt x="481" y="13" on="0"/>
        <pt x="448" y="2" on="0"/>
        <pt x="420" y="-1" on="1"/>
        <pt x="384" y="-5" on="0"/>
        <pt x="333" y="-5" on="0"/>
        <pt x="273" y="-5" on="0"/>
        <pt x="216" y="-1" on="0"/>
        <pt x="127" y="32" on="0"/>
        <pt x="81" y="97" on="0"/>
        <pt x="45" y="226" on="0"/>
      </contour>
    </TTGlyph>
    <TTGlyph name="Umacron" xMin="45" yMin="-6" xMax="622" yMax="890">
      <contour>
        <pt x="188" y="797" on="1"/>
        <pt x="188" y="890" on="1"/>
        <pt x="480" y="890" on="1"/>
        <pt x="480" y="797" on="1"/>
      </contour>
      <contour>
        <pt x="45" y="320" on="1"/>
        <pt x="45" y="732" on="1"/>
        <pt x="239" y="732" on="1"/>
        <pt x="239" y="320" on="1"/>
        <pt x="239" y="218" on="0"/>
        <pt x="261" y="194" on="1"/>
        <pt x="285" y="169" on="0"/>
        <pt x="336" y="169" on="1"/>
        <pt x="383" y="169" on="0"/>
        <pt x="406" y="196" on="1"/>
        <pt x="427" y="218" on="0"/>
        <pt x="427" y="320" on="1"/>
        <pt x="427" y="732" on="1"/>
        <pt x="622" y="732" on="1"/>
        <pt x="622" y="320" on="1"/>
        <pt x="622" y="164" on="0"/>
        <pt x="574" y="92" on="1"/>
        <pt x="558" y="67" on="0"/>
        <pt x="528" y="36" on="0"/>
        <pt x="481" y="13" on="0"/>
        <pt x="448" y="2" on="0"/>
        <pt x="420" y="-1" on="1"/>
        <pt x="384" y="-5" on="0"/>
        <pt x="333" y="-5" on="0"/>
        <pt x="273" y="-5" on="0"/>
        <pt x="216" y="-1" on="0"/>
        <pt x="127" y="32" on="0"/>
        <pt x="81" y="97" on="0"/>
        <pt x="45" y="226" on="0"/>
      </contour>
    </TTGlyph>
    <TTGlyph name="Uogonek" xMin="45" yMin="-197" xMax="622" yMax="732">
      <contour>
        <pt x="386" y="-191" on="1"/>
        <pt x="370" y="-196" on="0"/>
        <pt x="346" y="-196" on="0"/>
        <pt x="313" y="-188" on="0"/>
        <pt x="291" y="-174" on="1"/>
        <pt x="248" y="-147" on="0"/>
        <pt x="242" y="-92" on="1"/>
        <pt x="242" y="-89" on="0"/>
        <pt x="242" y="-66" on="0"/>
        <pt x="272" y="-19" on="0"/>
        <pt x="304" y="0" on="1"/>
        <pt x="373" y="0" on="1"/>
        <pt x="351" y="-15" on="0"/>
        <pt x="332" y="-48" on="0"/>
        <pt x="336" y="-73" on="0"/>
        <pt x="344" y="-83" on="1"/>
        <pt x="362" y="-105" on="0"/>
        <pt x="386" y="-101" on="1"/>
      </contour>
      <contour>
        <pt x="45" y="320" on="1"/>
        <pt x="45" y="732" on="1"/>
        <pt x="239" y="732" on="1"/>
        <pt x="239" y="320" on="1"/>
        <pt x="239" y="218" on="0"/>
        <pt x="261" y="194" on="1"/>
        <pt x="285" y="169" on="0"/>
        <pt x="336" y="169" on="1"/>
        <pt x="383" y="169" on="0"/>
        <pt x="406" y="196" on="1"/>
        <pt x="427" y="218" on="0"/>
        <pt x="427" y="320" on="1"/>
        <pt x="427" y="732" on="1"/>
        <pt x="622" y="732" on="1"/>
        <pt x="622" y="320" on="1"/>
        <pt x="622" y="164" on="0"/>
        <pt x="574" y="92" on="1"/>
        <pt x="558" y="67" on="0"/>
        <pt x="528" y="36" on="0"/>
        <pt x="481" y="13" on="0"/>
        <pt x="448" y="2" on="0"/>
        <pt x="420" y="-1" on="1"/>
        <pt x="384" y="-5" on="0"/>
        <pt x="333" y="-5" on="0"/>
        <pt x="273" y="-5" on="0"/>
        <pt x="216" y="-1" on="0"/>
        <pt x="127" y="32" on="0"/>
        <pt x="81" y="97" on="0"/>
        <pt x="45" y="226" on="0"/>
      </contour>
    </TTGlyph>
    <TTGlyph name="Uring" xMin="45" yMin="-6" xMax="622" yMax="1002">
      <contour>
        <pt x="232" y="856" on="0"/>
        <pt x="232" y="942" on="0"/>
        <pt x="292" y="1002" on="0"/>
        <pt x="376" y="1002" on="0"/>
        <pt x="435" y="942" on="0"/>
        <pt x="435" y="856" on="0"/>
        <pt x="376" y="797" on="0"/>
        <pt x="292" y="797" on="0"/>
      </contour>
      <contour>
        <pt x="300" y="913" on="0"/>
        <pt x="300" y="885" on="0"/>
        <pt x="320" y="866" on="0"/>
        <pt x="348" y="866" on="0"/>
        <pt x="367" y="885" on="0"/>
        <pt x="367" y="913" on="0"/>
        <pt x="348" y="933" on="0"/>
        <pt x="320" y="933" on="0"/>
      </contour>
      <contour>
        <pt x="45" y="320" on="1"/>
        <pt x="45" y="732" on="1"/>
        <pt x="239" y="732" on="1"/>
        <pt x="239" y="320" on="1"/>
        <pt x="239" y="218" on="0"/>
        <pt x="261" y="194" on="1"/>
        <pt x="285" y="169" on="0"/>
        <pt x="336" y="169" on="1"/>
        <pt x="383" y="169" on="0"/>
        <pt x="406" y="196" on="1"/>
        <pt x="427" y="218" on="0"/>
        <pt x="427" y="320" on="1"/>
        <pt x="427" y="732" on="1"/>
        <pt x="622" y="732" on="1"/>
        <pt x="622" y="320" on="1"/>
        <pt x="622" y="164" on="0"/>
        <pt x="574" y="92" on="1"/>
        <pt x="558" y="67" on="0"/>
        <pt x="528" y="36" on="0"/>
        <pt x="481" y="13" on="0"/>
        <pt x="448" y="2" on="0"/>
        <pt x="420" y="-1" on="1"/>
        <pt x="384" y="-5" on="0"/>
        <pt x="333" y="-5" on="0"/>
        <pt x="273" y="-5" on="0"/>
        <pt x="216" y="-1" on="0"/>
        <pt x="127" y="32" on="0"/>
        <pt x="81" y="97" on="0"/>
        <pt x="45" y="226" on="0"/>
      </contour>
    </TTGlyph>
    <TTGlyph name="Utilde" xMin="45" yMin="-6" xMax="622" yMax="943">
      <contour>
        <pt x="282" y="938" on="1"/>
        <pt x="305" y="938" on="0"/>
        <pt x="369" y="903" on="0"/>
        <pt x="388" y="903" on="1"/>
        <pt x="392" y="903" on="0"/>
        <pt x="394" y="903" on="1"/>
        <pt x="443" y="903" on="0"/>
        <pt x="482" y="943" on="1"/>
        <pt x="508" y="869" on="1"/>
        <pt x="460" y="797" on="0"/>
        <pt x="396" y="797" on="1"/>
        <pt x="374" y="797" on="0"/>
        <pt x="298" y="832" on="0"/>
        <pt x="275" y="832" on="1"/>
        <pt x="232" y="832" on="0"/>
        <pt x="186" y="797" on="1"/>
        <pt x="160" y="864" on="1"/>
        <pt x="211" y="938" on="0"/>
      </contour>
      <contour>
        <pt x="45" y="320" on="1"/>
        <pt x="45" y="732" on="1"/>
        <pt x="239" y="732" on="1"/>
        <pt x="239" y="320" on="1"/>
        <pt x="239" y="218" on="0"/>
        <pt x="261" y="194" on="1"/>
        <pt x="285" y="169" on="0"/>
        <pt x="336" y="169" on="1"/>
        <pt x="383" y="169" on="0"/>
        <pt x="406" y="196" on="1"/>
        <pt x="427" y="218" on="0"/>
        <pt x="427" y="320" on="1"/>
        <pt x="427" y="732" on="1"/>
        <pt x="622" y="732" on="1"/>
        <pt x="622" y="320" on="1"/>
        <pt x="622" y="164" on="0"/>
        <pt x="574" y="92" on="1"/>
        <pt x="558" y="67" on="0"/>
        <pt x="528" y="36" on="0"/>
        <pt x="481" y="13" on="0"/>
        <pt x="448" y="2" on="0"/>
        <pt x="420" y="-1" on="1"/>
        <pt x="384" y="-5" on="0"/>
        <pt x="333" y="-5" on="0"/>
        <pt x="273" y="-5" on="0"/>
        <pt x="216" y="-1" on="0"/>
        <pt x="127" y="32" on="0"/>
        <pt x="81" y="97" on="0"/>
        <pt x="45" y="226" on="0"/>
      </contour>
    </TTGlyph>
    <TTGlyph name="V" xMin="25" yMin="0" xMax="685" yMax="732">
      <contour>
        <pt x="25" y="732" on="1"/>
        <pt x="229" y="732" on="1"/>
        <pt x="350" y="238" on="1"/>
        <pt x="481" y="732" on="1"/>
        <pt x="685" y="732" on="1"/>
        <pt x="466" y="0" on="1"/>
        <pt x="232" y="0" on="1"/>
      </contour>
    </TTGlyph>
    <TTGlyph name="W" xMin="25" yMin="0" xMax="1005" yMax="732">
      <contour>
        <pt x="25" y="732" on="1"/>
        <pt x="229" y="732" on="1"/>
        <pt x="350" y="238" on="1"/>
        <pt x="441" y="732" on="1"/>
        <pt x="645" y="732" on="1"/>
        <pt x="608" y="580" on="1"/>
        <pt x="710" y="238" on="1"/>
        <pt x="801" y="732" on="1"/>
        <pt x="1005" y="732" on="1"/>
        <pt x="826" y="0" on="1"/>
        <pt x="592" y="0" on="1"/>
        <pt x="525" y="239" on="1"/>
        <pt x="466" y="0" on="1"/>
        <pt x="232" y="0" on="1"/>
      </contour>
    </TTGlyph>
    <TTGlyph name="Wacute" xMin="25" yMin="0" xMax="1005" yMax="940">
      <contour>
        <pt x="460" y="797" on="1"/>
        <pt x="538" y="940" on="1"/>
        <pt x="682" y="940" on="1"/>
        <pt x="570" y="797" on="1"/>
      </contour>
      <contour>
        <pt x="25" y="732" on="1"/>
        <pt x="229" y="732" on="1"/>
        <pt x="350" y="238" on="1"/>
        <pt x="441" y="732" on="1"/>
        <pt x="645" y="732" on="1"/>
        <pt x="608" y="580" on="1"/>
        <pt x="710" y="238" on="1"/>
        <pt x="801" y="732" on="1"/>
        <pt x="1005" y="732" on="1"/>
        <pt x="826" y="0" on="1"/>
        <pt x="592" y="0" on="1"/>
        <pt x="525" y="239" on="1"/>
        <pt x="466" y="0" on="1"/>
        <pt x="232" y="0" on="1"/>
      </contour>
    </TTGlyph>
    <TTGlyph name="Wcircumflex" xMin="25" yMin="0" xMax="1005" yMax="937">
      <contour>
        <pt x="362" y="797" on="1"/>
        <pt x="462" y="937" on="1"/>
        <pt x="593" y="937" on="1"/>
        <pt x="684" y="797" on="1"/>
        <pt x="573" y="797" on="1"/>
        <pt x="524" y="848" on="1"/>
        <pt x="474" y="797" on="1"/>
      </contour>
      <contour>
        <pt x="25" y="732" on="1"/>
        <pt x="229" y="732" on="1"/>
        <pt x="350" y="238" on="1"/>
        <pt x="441" y="732" on="1"/>
        <pt x="645" y="732" on="1"/>
        <pt x="608" y="580" on="1"/>
        <pt x="710" y="238" on="1"/>
        <pt x="801" y="732" on="1"/>
        <pt x="1005" y="732" on="1"/>
        <pt x="826" y="0" on="1"/>
        <pt x="592" y="0" on="1"/>
        <pt x="525" y="239" on="1"/>
        <pt x="466" y="0" on="1"/>
        <pt x="232" y="0" on="1"/>
      </contour>
    </TTGlyph>
    <TTGlyph name="Wdieresis" xMin="25" yMin="0" xMax="1005" yMax="928">
      <contour>
        <pt x="315" y="836" on="0"/>
        <pt x="315" y="890" on="0"/>
        <pt x="354" y="928" on="0"/>
        <pt x="408" y="928" on="0"/>
        <pt x="446" y="890" on="0"/>
        <pt x="446" y="836" on="0"/>
        <pt x="408" y="797" on="0"/>
        <pt x="354" y="797" on="0"/>
      </contour>
      <contour>
        <pt x="570" y="836" on="0"/>
        <pt x="570" y="890" on="0"/>
        <pt x="609" y="928" on="0"/>
        <pt x="663" y="928" on="0"/>
        <pt x="701" y="890" on="0"/>
        <pt x="701" y="836" on="0"/>
        <pt x="663" y="797" on="0"/>
        <pt x="609" y="797" on="0"/>
      </contour>
      <contour>
        <pt x="25" y="732" on="1"/>
        <pt x="229" y="732" on="1"/>
        <pt x="350" y="238" on="1"/>
        <pt x="441" y="732" on="1"/>
        <pt x="645" y="732" on="1"/>
        <pt x="608" y="580" on="1"/>
        <pt x="710" y="238" on="1"/>
        <pt x="801" y="732" on="1"/>
        <pt x="1005" y="732" on="1"/>
        <pt x="826" y="0" on="1"/>
        <pt x="592" y="0" on="1"/>
        <pt x="525" y="239" on="1"/>
        <pt x="466" y="0" on="1"/>
        <pt x="232" y="0" on="1"/>
      </contour>
    </TTGlyph>
    <TTGlyph name="Wgrave" xMin="25" yMin="0" xMax="1005" yMax="940">
      <contour>
        <pt x="348" y="940" on="1"/>
        <pt x="492" y="940" on="1"/>
        <pt x="570" y="797" on="1"/>
        <pt x="460" y="797" on="1"/>
      </contour>
      <contour>
        <pt x="25" y="732" on="1"/>
        <pt x="229" y="732" on="1"/>
        <pt x="350" y="238" on="1"/>
        <pt x="441" y="732" on="1"/>
        <pt x="645" y="732" on="1"/>
        <pt x="608" y="580" on="1"/>
        <pt x="710" y="238" on="1"/>
        <pt x="801" y="732" on="1"/>
        <pt x="1005" y="732" on="1"/>
        <pt x="826" y="0" on="1"/>
        <pt x="592" y="0" on="1"/>
        <pt x="525" y="239" on="1"/>
        <pt x="466" y="0" on="1"/>
        <pt x="232" y="0" on="1"/>
      </contour>
    </TTGlyph>
    <TTGlyph name="X" xMin="25" yMin="0" xMax="665" yMax="732">
      <contour>
        <pt x="25" y="732" on="1"/>
        <pt x="240" y="732" on="1"/>
        <pt x="345" y="529" on="1"/>
        <pt x="450" y="732" on="1"/>
        <pt x="665" y="732" on="1"/>
        <pt x="442" y="363" on="1"/>
        <pt x="660" y="0" on="1"/>
        <pt x="445" y="0" on="1"/>
        <pt x="345" y="196" on="1"/>
        <pt x="243" y="0" on="1"/>
        <pt x="28" y="0" on="1"/>
        <pt x="247" y="363" on="1"/>
      </contour>
    </TTGlyph>
    <TTGlyph name="X.salt" xMin="11" yMin="0" xMax="682" yMax="732">
      <contour>
        <pt x="139" y="305" on="1"/>
        <pt x="155" y="350" on="0"/>
        <pt x="155" y="396" on="0"/>
        <pt x="129" y="457" on="1"/>
        <pt x="11" y="732" on="1"/>
        <pt x="211" y="732" on="1"/>
        <pt x="331" y="487" on="1"/>
        <pt x="331" y="261" on="1"/>
        <pt x="221" y="0" on="1"/>
        <pt x="11" y="0" on="1"/>
      </contour>
      <contour>
        <pt x="360" y="373" on="0"/>
        <pt x="360" y="486" on="0"/>
        <pt x="361" y="487" on="1"/>
        <pt x="482" y="732" on="1"/>
        <pt x="682" y="732" on="1"/>
        <pt x="564" y="457" on="1"/>
        <pt x="538" y="396" on="0"/>
        <pt x="538" y="350" on="0"/>
        <pt x="554" y="305" on="1"/>
        <pt x="682" y="0" on="1"/>
        <pt x="472" y="0" on="1"/>
        <pt x="361" y="261" on="1"/>
      </contour>
    </TTGlyph>
    <TTGlyph name="Y" xMin="25" yMin="0" xMax="665" yMax="732">
      <contour>
        <pt x="434" y="0" on="1"/>
        <pt x="240" y="0" on="1"/>
        <pt x="240" y="200" on="1"/>
        <pt x="25" y="732" on="1"/>
        <pt x="236" y="732" on="1"/>
        <pt x="341" y="408" on="1"/>
        <pt x="454" y="732" on="1"/>
        <pt x="665" y="732" on="1"/>
        <pt x="434" y="200" on="1"/>
      </contour>
    </TTGlyph>
    <TTGlyph name="Yacute" xMin="25" yMin="0" xMax="665" yMax="940">
      <contour>
        <pt x="290" y="797" on="1"/>
        <pt x="368" y="940" on="1"/>
        <pt x="512" y="940" on="1"/>
        <pt x="400" y="797" on="1"/>
      </contour>
      <contour>
        <pt x="434" y="0" on="1"/>
        <pt x="240" y="0" on="1"/>
        <pt x="240" y="200" on="1"/>
        <pt x="25" y="732" on="1"/>
        <pt x="236" y="732" on="1"/>
        <pt x="341" y="408" on="1"/>
        <pt x="454" y="732" on="1"/>
        <pt x="665" y="732" on="1"/>
        <pt x="434" y="200" on="1"/>
      </contour>
    </TTGlyph>
    <TTGlyph name="Ycircumflex" xMin="25" yMin="0" xMax="665" yMax="937">
      <contour>
        <pt x="184" y="797" on="1"/>
        <pt x="284" y="937" on="1"/>
        <pt x="415" y="937" on="1"/>
        <pt x="506" y="797" on="1"/>
        <pt x="395" y="797" on="1"/>
        <pt x="346" y="848" on="1"/>
        <pt x="296" y="797" on="1"/>
      </contour>
      <contour>
        <pt x="434" y="0" on="1"/>
        <pt x="240" y="0" on="1"/>
        <pt x="240" y="200" on="1"/>
        <pt x="25" y="732" on="1"/>
        <pt x="236" y="732" on="1"/>
        <pt x="341" y="408" on="1"/>
        <pt x="454" y="732" on="1"/>
        <pt x="665" y="732" on="1"/>
        <pt x="434" y="200" on="1"/>
      </contour>
    </TTGlyph>
    <TTGlyph name="Ydieresis" xMin="25" yMin="0" xMax="665" yMax="928">
      <contour>
        <pt x="152" y="836" on="0"/>
        <pt x="152" y="890" on="0"/>
        <pt x="191" y="928" on="0"/>
        <pt x="245" y="928" on="0"/>
        <pt x="283" y="890" on="0"/>
        <pt x="283" y="836" on="0"/>
        <pt x="245" y="797" on="0"/>
        <pt x="191" y="797" on="0"/>
      </contour>
      <contour>
        <pt x="407" y="836" on="0"/>
        <pt x="407" y="890" on="0"/>
        <pt x="446" y="928" on="0"/>
        <pt x="500" y="928" on="0"/>
        <pt x="538" y="890" on="0"/>
        <pt x="538" y="836" on="0"/>
        <pt x="500" y="797" on="0"/>
        <pt x="446" y="797" on="0"/>
      </contour>
      <contour>
        <pt x="434" y="0" on="1"/>
        <pt x="240" y="0" on="1"/>
        <pt x="240" y="200" on="1"/>
        <pt x="25" y="732" on="1"/>
        <pt x="236" y="732" on="1"/>
        <pt x="341" y="408" on="1"/>
        <pt x="454" y="732" on="1"/>
        <pt x="665" y="732" on="1"/>
        <pt x="434" y="200" on="1"/>
      </contour>
    </TTGlyph>
    <TTGlyph name="Ygrave" xMin="25" yMin="0" xMax="665" yMax="940">
      <contour>
        <pt x="178" y="940" on="1"/>
        <pt x="322" y="940" on="1"/>
        <pt x="400" y="797" on="1"/>
        <pt x="290" y="797" on="1"/>
      </contour>
      <contour>
        <pt x="434" y="0" on="1"/>
        <pt x="240" y="0" on="1"/>
        <pt x="240" y="200" on="1"/>
        <pt x="25" y="732" on="1"/>
        <pt x="236" y="732" on="1"/>
        <pt x="341" y="408" on="1"/>
        <pt x="454" y="732" on="1"/>
        <pt x="665" y="732" on="1"/>
        <pt x="434" y="200" on="1"/>
      </contour>
    </TTGlyph>
    <TTGlyph name="Z" xMin="20" yMin="0" xMax="533" yMax="732">
      <contour>
        <pt x="20" y="0" on="1"/>
        <pt x="20" y="174" on="1"/>
        <pt x="306" y="558" on="1"/>
        <pt x="20" y="558" on="1"/>
        <pt x="20" y="732" on="1"/>
        <pt x="533" y="732" on="1"/>
        <pt x="533" y="558" on="1"/>
        <pt x="277" y="174" on="1"/>
        <pt x="533" y="174" on="1"/>
        <pt x="533" y="0" on="1"/>
      </contour>
    </TTGlyph>
    <TTGlyph name="Zacute" xMin="20" yMin="0" xMax="533" yMax="940">
      <contour>
        <pt x="222" y="797" on="1"/>
        <pt x="299" y="940" on="1"/>
        <pt x="444" y="940" on="1"/>
        <pt x="331" y="797" on="1"/>
      </contour>
      <contour>
        <pt x="20" y="0" on="1"/>
        <pt x="20" y="174" on="1"/>
        <pt x="306" y="558" on="1"/>
        <pt x="20" y="558" on="1"/>
        <pt x="20" y="732" on="1"/>
        <pt x="533" y="732" on="1"/>
        <pt x="533" y="558" on="1"/>
        <pt x="277" y="174" on="1"/>
        <pt x="533" y="174" on="1"/>
        <pt x="533" y="0" on="1"/>
      </contour>
    </TTGlyph>
    <TTGlyph name="Zcaron" xMin="20" yMin="0" xMax="533" yMax="937">
      <contour>
        <pt x="116" y="937" on="1"/>
        <pt x="226" y="937" on="1"/>
        <pt x="276" y="886" on="1"/>
        <pt x="326" y="937" on="1"/>
        <pt x="438" y="937" on="1"/>
        <pt x="338" y="797" on="1"/>
        <pt x="206" y="797" on="1"/>
      </contour>
      <contour>
        <pt x="20" y="0" on="1"/>
        <pt x="20" y="174" on="1"/>
        <pt x="306" y="558" on="1"/>
        <pt x="20" y="558" on="1"/>
        <pt x="20" y="732" on="1"/>
        <pt x="533" y="732" on="1"/>
        <pt x="533" y="558" on="1"/>
        <pt x="277" y="174" on="1"/>
        <pt x="533" y="174" on="1"/>
        <pt x="533" y="0" on="1"/>
      </contour>
    </TTGlyph>
    <TTGlyph name="Zdotaccent" xMin="20" yMin="0" xMax="533" yMax="939">
      <contour>
        <pt x="208" y="820" on="1"/>
        <pt x="208" y="914" on="1"/>
        <pt x="208" y="939" on="0"/>
        <pt x="232" y="939" on="1"/>
        <pt x="322" y="939" on="1"/>
        <pt x="345" y="939" on="0"/>
        <pt x="345" y="914" on="1"/>
        <pt x="345" y="820" on="1"/>
        <pt x="345" y="797" on="0"/>
        <pt x="322" y="797" on="1"/>
        <pt x="232" y="797" on="1"/>
        <pt x="208" y="797" on="0"/>
      </contour>
      <contour>
        <pt x="20" y="0" on="1"/>
        <pt x="20" y="174" on="1"/>
        <pt x="306" y="558" on="1"/>
        <pt x="20" y="558" on="1"/>
        <pt x="20" y="732" on="1"/>
        <pt x="533" y="732" on="1"/>
        <pt x="533" y="558" on="1"/>
        <pt x="277" y="174" on="1"/>
        <pt x="533" y="174" on="1"/>
        <pt x="533" y="0" on="1"/>
      </contour>
    </TTGlyph>
    <TTGlyph name="a" xMin="22" yMin="-7" xMax="492" yMax="541">
      <contour>
        <pt x="22" y="143" on="1"/>
        <pt x="22" y="184" on="1"/>
        <pt x="22" y="251" on="0"/>
        <pt x="101" y="340" on="0"/>
        <pt x="196" y="340" on="1"/>
        <pt x="247" y="340" on="0"/>
        <pt x="298" y="340" on="0"/>
        <pt x="298" y="340" on="1"/>
        <pt x="299" y="346" on="0"/>
        <pt x="298" y="363" on="0"/>
        <pt x="292" y="383" on="0"/>
        <pt x="285" y="394" on="0"/>
        <pt x="275" y="396" on="1"/>
        <pt x="260" y="399" on="0"/>
        <pt x="236" y="399" on="1"/>
        <pt x="40" y="388" on="1"/>
        <pt x="40" y="501" on="1"/>
        <pt x="90" y="525" on="0"/>
        <pt x="189" y="541" on="0"/>
        <pt x="268" y="541" on="1"/>
        <pt x="382" y="541" on="0"/>
        <pt x="492" y="463" on="0"/>
        <pt x="492" y="357" on="1"/>
        <pt x="492" y="0" on="1"/>
        <pt x="336" y="0" on="1"/>
        <pt x="298" y="54" on="1"/>
        <pt x="288" y="31" on="0"/>
        <pt x="237" y="-6" on="0"/>
        <pt x="195" y="-6" on="1"/>
        <pt x="146" y="-6" on="0"/>
        <pt x="74" y="27" on="0"/>
        <pt x="56" y="50" on="1"/>
        <pt x="22" y="95" on="0"/>
      </contour>
      <contour>
        <pt x="248" y="138" on="1"/>
        <pt x="258" y="138" on="1"/>
        <pt x="276" y="138" on="0"/>
        <pt x="296" y="154" on="0"/>
        <pt x="297" y="162" on="1"/>
        <pt x="298" y="171" on="1"/>
        <pt x="298" y="231" on="1"/>
        <pt x="246" y="226" on="1"/>
        <pt x="231" y="225" on="0"/>
        <pt x="217" y="206" on="0"/>
        <pt x="216" y="194" on="0"/>
        <pt x="216" y="181" on="1"/>
        <pt x="216" y="175" on="1"/>
        <pt x="216" y="147" on="0"/>
        <pt x="228" y="142" on="1"/>
        <pt x="231" y="141" on="0"/>
        <pt x="232" y="140" on="1"/>
        <pt x="236" y="138" on="0"/>
      </contour>
    </TTGlyph>
    <TTGlyph name="a.salt" xMin="28" yMin="0" xMax="504" yMax="537">
      <contour>
        <pt x="28" y="151" on="1"/>
        <pt x="28" y="175" on="1"/>
        <pt x="28" y="203" on="0"/>
        <pt x="32" y="239" on="0"/>
        <pt x="51" y="284" on="0"/>
        <pt x="69" y="296" on="1"/>
        <pt x="113" y="327" on="0"/>
        <pt x="205" y="327" on="1"/>
        <pt x="310" y="327" on="1"/>
        <pt x="310" y="378" on="0"/>
        <pt x="275" y="399" on="0"/>
        <pt x="131" y="399" on="0"/>
        <pt x="39" y="387" on="1"/>
        <pt x="39" y="498" on="1"/>
        <pt x="56" y="504" on="0"/>
        <pt x="86" y="515" on="0"/>
        <pt x="109" y="523" on="0"/>
        <pt x="138" y="528" on="0"/>
        <pt x="154" y="532" on="0"/>
        <pt x="186" y="535" on="0"/>
        <pt x="198" y="536" on="0"/>
        <pt x="237" y="537" on="0"/>
        <pt x="244" y="537" on="1"/>
        <pt x="276" y="537" on="0"/>
        <pt x="359" y="537" on="0"/>
        <pt x="431" y="509" on="0"/>
        <pt x="473" y="465" on="0"/>
        <pt x="485" y="428" on="1"/>
        <pt x="504" y="368" on="0"/>
        <pt x="504" y="262" on="1"/>
        <pt x="504" y="176" on="1"/>
        <pt x="504" y="83" on="0"/>
        <pt x="429" y="0" on="0"/>
        <pt x="349" y="0" on="1"/>
        <pt x="205" y="0" on="1"/>
        <pt x="28" y="0" on="0"/>
      </contour>
      <contour>
        <pt x="222" y="171" on="1"/>
        <pt x="222" y="148" on="0"/>
        <pt x="235" y="134" on="0"/>
        <pt x="256" y="134" on="1"/>
        <pt x="277" y="134" on="1"/>
        <pt x="294" y="134" on="0"/>
        <pt x="310" y="146" on="0"/>
        <pt x="310" y="168" on="1"/>
        <pt x="310" y="218" on="1"/>
        <pt x="255" y="214" on="1"/>
        <pt x="234" y="213" on="0"/>
        <pt x="222" y="196" on="0"/>
        <pt x="222" y="175" on="1"/>
      </contour>
    </TTGlyph>
    <TTGlyph name="a.smcp" xMin="20" yMin="0" xMax="601" yMax="570">
      <contour>
        <pt x="20" y="0" on="1"/>
        <pt x="193" y="570" on="1"/>
        <pt x="437" y="570" on="1"/>
        <pt x="601" y="0" on="1"/>
        <pt x="400" y="0" on="1"/>
        <pt x="378" y="87" on="1"/>
        <pt x="245" y="87" on="1"/>
        <pt x="221" y="0" on="1"/>
      </contour>
      <contour>
        <pt x="283" y="231" on="1"/>
        <pt x="342" y="231" on="1"/>
        <pt x="314" y="344" on="1"/>
      </contour>
    </TTGlyph>
    <TTGlyph name="a.superior" xMin="17" yMin="373" xMax="352" yMax="738">
      <contour>
        <pt x="17" y="469" on="1"/>
        <pt x="17" y="495" on="1"/>
        <pt x="17" y="594" on="0"/>
        <pt x="137" y="594" on="1"/>
        <pt x="172" y="594" on="0"/>
        <pt x="189" y="594" on="1"/>
        <pt x="210" y="594" on="0"/>
        <pt x="206" y="598" on="1"/>
        <pt x="206" y="624" on="0"/>
        <pt x="196" y="627" on="1"/>
        <pt x="184" y="631" on="0"/>
        <pt x="163" y="631" on="1"/>
        <pt x="29" y="622" on="1"/>
        <pt x="29" y="708" on="1"/>
        <pt x="85" y="738" on="0"/>
        <pt x="270" y="738" on="0"/>
        <pt x="352" y="686" on="0"/>
        <pt x="352" y="616" on="1"/>
        <pt x="352" y="378" on="1"/>
        <pt x="236" y="378" on="1"/>
        <pt x="206" y="419" on="1"/>
        <pt x="189" y="374" on="0"/>
        <pt x="135" y="374" on="1"/>
        <pt x="73" y="374" on="0"/>
        <pt x="17" y="435" on="0"/>
      </contour>
      <contour>
        <pt x="151" y="492" on="1"/>
        <pt x="151" y="482" on="0"/>
        <pt x="160" y="471" on="0"/>
        <pt x="169" y="470" on="0"/>
        <pt x="191" y="470" on="0"/>
        <pt x="205" y="480" on="0"/>
        <pt x="206" y="490" on="1"/>
        <pt x="206" y="526" on="1"/>
        <pt x="170" y="523" on="1"/>
        <pt x="151" y="521" on="0"/>
        <pt x="151" y="498" on="1"/>
        <pt x="151" y="497" on="0"/>
        <pt x="151" y="496" on="1"/>
      </contour>
    </TTGlyph>
    <TTGlyph name="aacute" xMin="22" yMin="-7" xMax="492" yMax="744">
      <contour>
        <pt x="214" y="601" on="1"/>
        <pt x="290" y="744" on="1"/>
        <pt x="436" y="744" on="1"/>
        <pt x="322" y="601" on="1"/>
      </contour>
      <contour>
        <pt x="22" y="143" on="1"/>
        <pt x="22" y="184" on="1"/>
        <pt x="22" y="251" on="0"/>
        <pt x="101" y="340" on="0"/>
        <pt x="196" y="340" on="1"/>
        <pt x="247" y="340" on="0"/>
        <pt x="298" y="340" on="0"/>
        <pt x="298" y="340" on="1"/>
        <pt x="299" y="346" on="0"/>
        <pt x="298" y="363" on="0"/>
        <pt x="292" y="383" on="0"/>
        <pt x="285" y="394" on="0"/>
        <pt x="275" y="396" on="1"/>
        <pt x="260" y="399" on="0"/>
        <pt x="236" y="399" on="1"/>
        <pt x="40" y="388" on="1"/>
        <pt x="40" y="501" on="1"/>
        <pt x="90" y="525" on="0"/>
        <pt x="189" y="541" on="0"/>
        <pt x="268" y="541" on="1"/>
        <pt x="382" y="541" on="0"/>
        <pt x="492" y="463" on="0"/>
        <pt x="492" y="357" on="1"/>
        <pt x="492" y="0" on="1"/>
        <pt x="336" y="0" on="1"/>
        <pt x="298" y="54" on="1"/>
        <pt x="288" y="31" on="0"/>
        <pt x="237" y="-6" on="0"/>
        <pt x="195" y="-6" on="1"/>
        <pt x="146" y="-6" on="0"/>
        <pt x="74" y="27" on="0"/>
        <pt x="56" y="50" on="1"/>
        <pt x="22" y="95" on="0"/>
      </contour>
      <contour>
        <pt x="248" y="138" on="1"/>
        <pt x="258" y="138" on="1"/>
        <pt x="276" y="138" on="0"/>
        <pt x="296" y="154" on="0"/>
        <pt x="297" y="162" on="1"/>
        <pt x="298" y="171" on="1"/>
        <pt x="298" y="231" on="1"/>
        <pt x="246" y="226" on="1"/>
        <pt x="231" y="225" on="0"/>
        <pt x="217" y="206" on="0"/>
        <pt x="216" y="194" on="0"/>
        <pt x="216" y="181" on="1"/>
        <pt x="216" y="175" on="1"/>
        <pt x="216" y="147" on="0"/>
        <pt x="228" y="142" on="1"/>
        <pt x="231" y="141" on="0"/>
        <pt x="232" y="140" on="1"/>
        <pt x="236" y="138" on="0"/>
      </contour>
    </TTGlyph>
    <TTGlyph name="aacute.salt" xMin="28" yMin="0" xMax="504" yMax="741">
      <contour>
        <pt x="228" y="597" on="1"/>
        <pt x="305" y="740" on="1"/>
        <pt x="450" y="740" on="1"/>
        <pt x="337" y="597" on="1"/>
      </contour>
      <contour>
        <pt x="28" y="151" on="1"/>
        <pt x="28" y="175" on="1"/>
        <pt x="28" y="203" on="0"/>
        <pt x="32" y="239" on="0"/>
        <pt x="51" y="284" on="0"/>
        <pt x="69" y="296" on="1"/>
        <pt x="113" y="327" on="0"/>
        <pt x="205" y="327" on="1"/>
        <pt x="310" y="327" on="1"/>
        <pt x="310" y="378" on="0"/>
        <pt x="275" y="399" on="0"/>
        <pt x="131" y="399" on="0"/>
        <pt x="39" y="387" on="1"/>
        <pt x="39" y="498" on="1"/>
        <pt x="56" y="504" on="0"/>
        <pt x="86" y="515" on="0"/>
        <pt x="109" y="523" on="0"/>
        <pt x="138" y="528" on="0"/>
        <pt x="154" y="532" on="0"/>
        <pt x="186" y="535" on="0"/>
        <pt x="198" y="536" on="0"/>
        <pt x="237" y="537" on="0"/>
        <pt x="244" y="537" on="1"/>
        <pt x="276" y="537" on="0"/>
        <pt x="359" y="537" on="0"/>
        <pt x="431" y="509" on="0"/>
        <pt x="473" y="465" on="0"/>
        <pt x="485" y="428" on="1"/>
        <pt x="504" y="368" on="0"/>
        <pt x="504" y="262" on="1"/>
        <pt x="504" y="176" on="1"/>
        <pt x="504" y="83" on="0"/>
        <pt x="429" y="0" on="0"/>
        <pt x="349" y="0" on="1"/>
        <pt x="205" y="0" on="1"/>
        <pt x="28" y="0" on="0"/>
      </contour>
      <contour>
        <pt x="222" y="171" on="1"/>
        <pt x="222" y="148" on="0"/>
        <pt x="235" y="134" on="0"/>
        <pt x="256" y="134" on="1"/>
        <pt x="277" y="134" on="1"/>
        <pt x="294" y="134" on="0"/>
        <pt x="310" y="146" on="0"/>
        <pt x="310" y="168" on="1"/>
        <pt x="310" y="218" on="1"/>
        <pt x="255" y="214" on="1"/>
        <pt x="234" y="213" on="0"/>
        <pt x="222" y="196" on="0"/>
        <pt x="222" y="175" on="1"/>
      </contour>
    </TTGlyph>
    <TTGlyph name="aacute.smcp" xMin="20" yMin="0" xMax="601" yMax="773">
      <contour>
        <pt x="260" y="630" on="1"/>
        <pt x="338" y="773" on="1"/>
        <pt x="482" y="773" on="1"/>
        <pt x="370" y="630" on="1"/>
      </contour>
      <contour>
        <pt x="20" y="0" on="1"/>
        <pt x="193" y="570" on="1"/>
        <pt x="437" y="570" on="1"/>
        <pt x="601" y="0" on="1"/>
        <pt x="400" y="0" on="1"/>
        <pt x="378" y="87" on="1"/>
        <pt x="245" y="87" on="1"/>
        <pt x="221" y="0" on="1"/>
      </contour>
      <contour>
        <pt x="283" y="231" on="1"/>
        <pt x="342" y="231" on="1"/>
        <pt x="314" y="344" on="1"/>
      </contour>
    </TTGlyph>
    <TTGlyph name="abreve" xMin="22" yMin="-7" xMax="492" yMax="715">
      <contour>
        <pt x="153" y="715" on="1"/>
        <pt x="220" y="715" on="1"/>
        <pt x="220" y="668" on="0"/>
        <pt x="316" y="668" on="0"/>
        <pt x="316" y="715" on="1"/>
        <pt x="383" y="715" on="1"/>
        <pt x="383" y="664" on="0"/>
        <pt x="320" y="601" on="0"/>
        <pt x="215" y="601" on="0"/>
        <pt x="153" y="664" on="0"/>
      </contour>
      <contour>
        <pt x="22" y="143" on="1"/>
        <pt x="22" y="184" on="1"/>
        <pt x="22" y="251" on="0"/>
        <pt x="101" y="340" on="0"/>
        <pt x="196" y="340" on="1"/>
        <pt x="247" y="340" on="0"/>
        <pt x="298" y="340" on="0"/>
        <pt x="298" y="340" on="1"/>
        <pt x="299" y="346" on="0"/>
        <pt x="298" y="363" on="0"/>
        <pt x="292" y="383" on="0"/>
        <pt x="285" y="394" on="0"/>
        <pt x="275" y="396" on="1"/>
        <pt x="260" y="399" on="0"/>
        <pt x="236" y="399" on="1"/>
        <pt x="40" y="388" on="1"/>
        <pt x="40" y="501" on="1"/>
        <pt x="90" y="525" on="0"/>
        <pt x="189" y="541" on="0"/>
        <pt x="268" y="541" on="1"/>
        <pt x="382" y="541" on="0"/>
        <pt x="492" y="463" on="0"/>
        <pt x="492" y="357" on="1"/>
        <pt x="492" y="0" on="1"/>
        <pt x="336" y="0" on="1"/>
        <pt x="298" y="54" on="1"/>
        <pt x="288" y="31" on="0"/>
        <pt x="237" y="-6" on="0"/>
        <pt x="195" y="-6" on="1"/>
        <pt x="146" y="-6" on="0"/>
        <pt x="74" y="27" on="0"/>
        <pt x="56" y="50" on="1"/>
        <pt x="22" y="95" on="0"/>
      </contour>
      <contour>
        <pt x="248" y="138" on="1"/>
        <pt x="258" y="138" on="1"/>
        <pt x="276" y="138" on="0"/>
        <pt x="296" y="154" on="0"/>
        <pt x="297" y="162" on="1"/>
        <pt x="298" y="171" on="1"/>
        <pt x="298" y="231" on="1"/>
        <pt x="246" y="226" on="1"/>
        <pt x="231" y="225" on="0"/>
        <pt x="217" y="206" on="0"/>
        <pt x="216" y="194" on="0"/>
        <pt x="216" y="181" on="1"/>
        <pt x="216" y="175" on="1"/>
        <pt x="216" y="147" on="0"/>
        <pt x="228" y="142" on="1"/>
        <pt x="231" y="141" on="0"/>
        <pt x="232" y="140" on="1"/>
        <pt x="236" y="138" on="0"/>
      </contour>
    </TTGlyph>
    <TTGlyph name="abreve.salt" xMin="28" yMin="0" xMax="504" yMax="712">
      <contour>
        <pt x="234" y="711" on="1"/>
        <pt x="234" y="664" on="0"/>
        <pt x="330" y="664" on="0"/>
        <pt x="330" y="711" on="1"/>
        <pt x="397" y="711" on="1"/>
        <pt x="397" y="641" on="0"/>
        <pt x="343" y="611" on="1"/>
        <pt x="316" y="597" on="0"/>
        <pt x="247" y="597" on="0"/>
        <pt x="221" y="611" on="1"/>
        <pt x="167" y="641" on="0"/>
        <pt x="167" y="711" on="1"/>
      </contour>
      <contour>
        <pt x="28" y="151" on="1"/>
        <pt x="28" y="175" on="1"/>
        <pt x="28" y="203" on="0"/>
        <pt x="32" y="239" on="0"/>
        <pt x="51" y="284" on="0"/>
        <pt x="69" y="296" on="1"/>
        <pt x="113" y="327" on="0"/>
        <pt x="205" y="327" on="1"/>
        <pt x="310" y="327" on="1"/>
        <pt x="310" y="378" on="0"/>
        <pt x="275" y="399" on="0"/>
        <pt x="131" y="399" on="0"/>
        <pt x="39" y="387" on="1"/>
        <pt x="39" y="498" on="1"/>
        <pt x="56" y="504" on="0"/>
        <pt x="86" y="515" on="0"/>
        <pt x="109" y="523" on="0"/>
        <pt x="138" y="528" on="0"/>
        <pt x="154" y="532" on="0"/>
        <pt x="186" y="535" on="0"/>
        <pt x="198" y="536" on="0"/>
        <pt x="237" y="537" on="0"/>
        <pt x="244" y="537" on="1"/>
        <pt x="276" y="537" on="0"/>
        <pt x="359" y="537" on="0"/>
        <pt x="431" y="509" on="0"/>
        <pt x="473" y="465" on="0"/>
        <pt x="485" y="428" on="1"/>
        <pt x="504" y="368" on="0"/>
        <pt x="504" y="262" on="1"/>
        <pt x="504" y="176" on="1"/>
        <pt x="504" y="83" on="0"/>
        <pt x="429" y="0" on="0"/>
        <pt x="349" y="0" on="1"/>
        <pt x="205" y="0" on="1"/>
        <pt x="28" y="0" on="0"/>
      </contour>
      <contour>
        <pt x="222" y="171" on="1"/>
        <pt x="222" y="148" on="0"/>
        <pt x="235" y="134" on="0"/>
        <pt x="256" y="134" on="1"/>
        <pt x="277" y="134" on="1"/>
        <pt x="294" y="134" on="0"/>
        <pt x="310" y="146" on="0"/>
        <pt x="310" y="168" on="1"/>
        <pt x="310" y="218" on="1"/>
        <pt x="255" y="214" on="1"/>
        <pt x="234" y="213" on="0"/>
        <pt x="222" y="196" on="0"/>
        <pt x="222" y="175" on="1"/>
      </contour>
    </TTGlyph>
    <TTGlyph name="abreve.smcp" xMin="20" yMin="0" xMax="601" yMax="744">
      <contour>
        <pt x="200" y="744" on="1"/>
        <pt x="267" y="744" on="1"/>
        <pt x="267" y="697" on="0"/>
        <pt x="363" y="697" on="0"/>
        <pt x="363" y="744" on="1"/>
        <pt x="430" y="744" on="1"/>
        <pt x="430" y="693" on="0"/>
        <pt x="367" y="630" on="0"/>
        <pt x="262" y="630" on="0"/>
        <pt x="200" y="693" on="0"/>
      </contour>
      <contour>
        <pt x="20" y="0" on="1"/>
        <pt x="193" y="570" on="1"/>
        <pt x="437" y="570" on="1"/>
        <pt x="601" y="0" on="1"/>
        <pt x="400" y="0" on="1"/>
        <pt x="378" y="87" on="1"/>
        <pt x="245" y="87" on="1"/>
        <pt x="221" y="0" on="1"/>
      </contour>
      <contour>
        <pt x="283" y="231" on="1"/>
        <pt x="342" y="231" on="1"/>
        <pt x="314" y="344" on="1"/>
      </contour>
    </TTGlyph>
    <TTGlyph name="acircumflex" xMin="22" yMin="-7" xMax="492" yMax="741">
      <contour>
        <pt x="107" y="601" on="1"/>
        <pt x="207" y="741" on="1"/>
        <pt x="338" y="741" on="1"/>
        <pt x="429" y="601" on="1"/>
        <pt x="318" y="601" on="1"/>
        <pt x="269" y="652" on="1"/>
        <pt x="219" y="601" on="1"/>
      </contour>
      <contour>
        <pt x="22" y="143" on="1"/>
        <pt x="22" y="184" on="1"/>
        <pt x="22" y="251" on="0"/>
        <pt x="101" y="340" on="0"/>
        <pt x="196" y="340" on="1"/>
        <pt x="247" y="340" on="0"/>
        <pt x="298" y="340" on="0"/>
        <pt x="298" y="340" on="1"/>
        <pt x="299" y="346" on="0"/>
        <pt x="298" y="363" on="0"/>
        <pt x="292" y="383" on="0"/>
        <pt x="285" y="394" on="0"/>
        <pt x="275" y="396" on="1"/>
        <pt x="260" y="399" on="0"/>
        <pt x="236" y="399" on="1"/>
        <pt x="40" y="388" on="1"/>
        <pt x="40" y="501" on="1"/>
        <pt x="90" y="525" on="0"/>
        <pt x="189" y="541" on="0"/>
        <pt x="268" y="541" on="1"/>
        <pt x="382" y="541" on="0"/>
        <pt x="492" y="463" on="0"/>
        <pt x="492" y="357" on="1"/>
        <pt x="492" y="0" on="1"/>
        <pt x="336" y="0" on="1"/>
        <pt x="298" y="54" on="1"/>
        <pt x="288" y="31" on="0"/>
        <pt x="237" y="-6" on="0"/>
        <pt x="195" y="-6" on="1"/>
        <pt x="146" y="-6" on="0"/>
        <pt x="74" y="27" on="0"/>
        <pt x="56" y="50" on="1"/>
        <pt x="22" y="95" on="0"/>
      </contour>
      <contour>
        <pt x="248" y="138" on="1"/>
        <pt x="258" y="138" on="1"/>
        <pt x="276" y="138" on="0"/>
        <pt x="296" y="154" on="0"/>
        <pt x="297" y="162" on="1"/>
        <pt x="298" y="171" on="1"/>
        <pt x="298" y="231" on="1"/>
        <pt x="246" y="226" on="1"/>
        <pt x="231" y="225" on="0"/>
        <pt x="217" y="206" on="0"/>
        <pt x="216" y="194" on="0"/>
        <pt x="216" y="181" on="1"/>
        <pt x="216" y="175" on="1"/>
        <pt x="216" y="147" on="0"/>
        <pt x="228" y="142" on="1"/>
        <pt x="231" y="141" on="0"/>
        <pt x="232" y="140" on="1"/>
        <pt x="236" y="138" on="0"/>
      </contour>
    </TTGlyph>
    <TTGlyph name="acircumflex.salt" xMin="28" yMin="0" xMax="504" yMax="738">
      <contour>
        <pt x="121" y="597" on="1"/>
        <pt x="221" y="737" on="1"/>
        <pt x="352" y="737" on="1"/>
        <pt x="443" y="597" on="1"/>
        <pt x="332" y="597" on="1"/>
        <pt x="283" y="648" on="1"/>
        <pt x="233" y="597" on="1"/>
      </contour>
      <contour>
        <pt x="28" y="151" on="1"/>
        <pt x="28" y="175" on="1"/>
        <pt x="28" y="203" on="0"/>
        <pt x="32" y="239" on="0"/>
        <pt x="51" y="284" on="0"/>
        <pt x="69" y="296" on="1"/>
        <pt x="113" y="327" on="0"/>
        <pt x="205" y="327" on="1"/>
        <pt x="310" y="327" on="1"/>
        <pt x="310" y="378" on="0"/>
        <pt x="275" y="399" on="0"/>
        <pt x="131" y="399" on="0"/>
        <pt x="39" y="387" on="1"/>
        <pt x="39" y="498" on="1"/>
        <pt x="56" y="504" on="0"/>
        <pt x="86" y="515" on="0"/>
        <pt x="109" y="523" on="0"/>
        <pt x="138" y="528" on="0"/>
        <pt x="154" y="532" on="0"/>
        <pt x="186" y="535" on="0"/>
        <pt x="198" y="536" on="0"/>
        <pt x="237" y="537" on="0"/>
        <pt x="244" y="537" on="1"/>
        <pt x="276" y="537" on="0"/>
        <pt x="359" y="537" on="0"/>
        <pt x="431" y="509" on="0"/>
        <pt x="473" y="465" on="0"/>
        <pt x="485" y="428" on="1"/>
        <pt x="504" y="368" on="0"/>
        <pt x="504" y="262" on="1"/>
        <pt x="504" y="176" on="1"/>
        <pt x="504" y="83" on="0"/>
        <pt x="429" y="0" on="0"/>
        <pt x="349" y="0" on="1"/>
        <pt x="205" y="0" on="1"/>
        <pt x="28" y="0" on="0"/>
      </contour>
      <contour>
        <pt x="222" y="171" on="1"/>
        <pt x="222" y="148" on="0"/>
        <pt x="235" y="134" on="0"/>
        <pt x="256" y="134" on="1"/>
        <pt x="277" y="134" on="1"/>
        <pt x="294" y="134" on="0"/>
        <pt x="310" y="146" on="0"/>
        <pt x="310" y="168" on="1"/>
        <pt x="310" y="218" on="1"/>
        <pt x="255" y="214" on="1"/>
        <pt x="234" y="213" on="0"/>
        <pt x="222" y="196" on="0"/>
        <pt x="222" y="175" on="1"/>
      </contour>
    </TTGlyph>
    <TTGlyph name="acircumflex.smcp" xMin="20" yMin="0" xMax="601" yMax="770">
      <contour>
        <pt x="154" y="630" on="1"/>
        <pt x="254" y="770" on="1"/>
        <pt x="385" y="770" on="1"/>
        <pt x="476" y="630" on="1"/>
        <pt x="365" y="630" on="1"/>
        <pt x="316" y="681" on="1"/>
        <pt x="266" y="630" on="1"/>
      </contour>
      <contour>
        <pt x="20" y="0" on="1"/>
        <pt x="193" y="570" on="1"/>
        <pt x="437" y="570" on="1"/>
        <pt x="601" y="0" on="1"/>
        <pt x="400" y="0" on="1"/>
        <pt x="378" y="87" on="1"/>
        <pt x="245" y="87" on="1"/>
        <pt x="221" y="0" on="1"/>
      </contour>
      <contour>
        <pt x="283" y="231" on="1"/>
        <pt x="342" y="231" on="1"/>
        <pt x="314" y="344" on="1"/>
      </contour>
    </TTGlyph>
    <TTGlyph name="acute" xMin="11" yMin="531" xMax="233" yMax="674">
      <contour>
        <pt x="11" y="531" on="1"/>
        <pt x="88" y="674" on="1"/>
        <pt x="233" y="674" on="1"/>
        <pt x="120" y="531" on="1"/>
      </contour>
    </TTGlyph>
    <TTGlyph name="acute.smcp" xMin="11" yMin="531" xMax="233" yMax="674">
      <contour>
        <pt x="11" y="531" on="1"/>
        <pt x="88" y="674" on="1"/>
        <pt x="233" y="674" on="1"/>
        <pt x="120" y="531" on="1"/>
      </contour>
    </TTGlyph>
    <TTGlyph name="adieresis" xMin="22" yMin="-7" xMax="492" yMax="732">
      <contour>
        <pt x="75" y="640" on="0"/>
        <pt x="75" y="694" on="0"/>
        <pt x="114" y="732" on="0"/>
        <pt x="168" y="732" on="0"/>
        <pt x="206" y="694" on="0"/>
        <pt x="206" y="640" on="0"/>
        <pt x="168" y="601" on="0"/>
        <pt x="114" y="601" on="0"/>
      </contour>
      <contour>
        <pt x="330" y="640" on="0"/>
        <pt x="330" y="694" on="0"/>
        <pt x="369" y="732" on="0"/>
        <pt x="423" y="732" on="0"/>
        <pt x="461" y="694" on="0"/>
        <pt x="461" y="640" on="0"/>
        <pt x="423" y="601" on="0"/>
        <pt x="369" y="601" on="0"/>
      </contour>
      <contour>
        <pt x="22" y="143" on="1"/>
        <pt x="22" y="184" on="1"/>
        <pt x="22" y="251" on="0"/>
        <pt x="101" y="340" on="0"/>
        <pt x="196" y="340" on="1"/>
        <pt x="247" y="340" on="0"/>
        <pt x="298" y="340" on="0"/>
        <pt x="298" y="340" on="1"/>
        <pt x="299" y="346" on="0"/>
        <pt x="298" y="363" on="0"/>
        <pt x="292" y="383" on="0"/>
        <pt x="285" y="394" on="0"/>
        <pt x="275" y="396" on="1"/>
        <pt x="260" y="399" on="0"/>
        <pt x="236" y="399" on="1"/>
        <pt x="40" y="388" on="1"/>
        <pt x="40" y="501" on="1"/>
        <pt x="90" y="525" on="0"/>
        <pt x="189" y="541" on="0"/>
        <pt x="268" y="541" on="1"/>
        <pt x="382" y="541" on="0"/>
        <pt x="492" y="463" on="0"/>
        <pt x="492" y="357" on="1"/>
        <pt x="492" y="0" on="1"/>
        <pt x="336" y="0" on="1"/>
        <pt x="298" y="54" on="1"/>
        <pt x="288" y="31" on="0"/>
        <pt x="237" y="-6" on="0"/>
        <pt x="195" y="-6" on="1"/>
        <pt x="146" y="-6" on="0"/>
        <pt x="74" y="27" on="0"/>
        <pt x="56" y="50" on="1"/>
        <pt x="22" y="95" on="0"/>
      </contour>
      <contour>
        <pt x="248" y="138" on="1"/>
        <pt x="258" y="138" on="1"/>
        <pt x="276" y="138" on="0"/>
        <pt x="296" y="154" on="0"/>
        <pt x="297" y="162" on="1"/>
        <pt x="298" y="171" on="1"/>
        <pt x="298" y="231" on="1"/>
        <pt x="246" y="226" on="1"/>
        <pt x="231" y="225" on="0"/>
        <pt x="217" y="206" on="0"/>
        <pt x="216" y="194" on="0"/>
        <pt x="216" y="181" on="1"/>
        <pt x="216" y="175" on="1"/>
        <pt x="216" y="147" on="0"/>
        <pt x="228" y="142" on="1"/>
        <pt x="231" y="141" on="0"/>
        <pt x="232" y="140" on="1"/>
        <pt x="236" y="138" on="0"/>
      </contour>
    </TTGlyph>
    <TTGlyph name="adieresis.salt" xMin="28" yMin="0" xMax="504" yMax="729">
      <contour>
        <pt x="89" y="636" on="0"/>
        <pt x="89" y="690" on="0"/>
        <pt x="128" y="728" on="0"/>
        <pt x="182" y="728" on="0"/>
        <pt x="220" y="690" on="0"/>
        <pt x="220" y="636" on="0"/>
        <pt x="182" y="597" on="0"/>
        <pt x="128" y="597" on="0"/>
      </contour>
      <contour>
        <pt x="344" y="636" on="0"/>
        <pt x="344" y="690" on="0"/>
        <pt x="383" y="728" on="0"/>
        <pt x="437" y="728" on="0"/>
        <pt x="475" y="690" on="0"/>
        <pt x="475" y="636" on="0"/>
        <pt x="437" y="597" on="0"/>
        <pt x="383" y="597" on="0"/>
      </contour>
      <contour>
        <pt x="28" y="151" on="1"/>
        <pt x="28" y="175" on="1"/>
        <pt x="28" y="203" on="0"/>
        <pt x="32" y="239" on="0"/>
        <pt x="51" y="284" on="0"/>
        <pt x="69" y="296" on="1"/>
        <pt x="113" y="327" on="0"/>
        <pt x="205" y="327" on="1"/>
        <pt x="310" y="327" on="1"/>
        <pt x="310" y="378" on="0"/>
        <pt x="275" y="399" on="0"/>
        <pt x="131" y="399" on="0"/>
        <pt x="39" y="387" on="1"/>
        <pt x="39" y="498" on="1"/>
        <pt x="56" y="504" on="0"/>
        <pt x="86" y="515" on="0"/>
        <pt x="109" y="523" on="0"/>
        <pt x="138" y="528" on="0"/>
        <pt x="154" y="532" on="0"/>
        <pt x="186" y="535" on="0"/>
        <pt x="198" y="536" on="0"/>
        <pt x="237" y="537" on="0"/>
        <pt x="244" y="537" on="1"/>
        <pt x="276" y="537" on="0"/>
        <pt x="359" y="537" on="0"/>
        <pt x="431" y="509" on="0"/>
        <pt x="473" y="465" on="0"/>
        <pt x="485" y="428" on="1"/>
        <pt x="504" y="368" on="0"/>
        <pt x="504" y="262" on="1"/>
        <pt x="504" y="176" on="1"/>
        <pt x="504" y="83" on="0"/>
        <pt x="429" y="0" on="0"/>
        <pt x="349" y="0" on="1"/>
        <pt x="205" y="0" on="1"/>
        <pt x="28" y="0" on="0"/>
      </contour>
      <contour>
        <pt x="222" y="171" on="1"/>
        <pt x="222" y="148" on="0"/>
        <pt x="235" y="134" on="0"/>
        <pt x="256" y="134" on="1"/>
        <pt x="277" y="134" on="1"/>
        <pt x="294" y="134" on="0"/>
        <pt x="310" y="146" on="0"/>
        <pt x="310" y="168" on="1"/>
        <pt x="310" y="218" on="1"/>
        <pt x="255" y="214" on="1"/>
        <pt x="234" y="213" on="0"/>
        <pt x="222" y="196" on="0"/>
        <pt x="222" y="175" on="1"/>
      </contour>
    </TTGlyph>
    <TTGlyph name="adieresis.smcp" xMin="20" yMin="0" xMax="601" yMax="761">
      <contour>
        <pt x="122" y="669" on="0"/>
        <pt x="122" y="723" on="0"/>
        <pt x="161" y="761" on="0"/>
        <pt x="215" y="761" on="0"/>
        <pt x="253" y="723" on="0"/>
        <pt x="253" y="669" on="0"/>
        <pt x="215" y="630" on="0"/>
        <pt x="161" y="630" on="0"/>
      </contour>
      <contour>
        <pt x="377" y="669" on="0"/>
        <pt x="377" y="723" on="0"/>
        <pt x="416" y="761" on="0"/>
        <pt x="470" y="761" on="0"/>
        <pt x="508" y="723" on="0"/>
        <pt x="508" y="669" on="0"/>
        <pt x="470" y="630" on="0"/>
        <pt x="416" y="630" on="0"/>
      </contour>
      <contour>
        <pt x="20" y="0" on="1"/>
        <pt x="193" y="570" on="1"/>
        <pt x="437" y="570" on="1"/>
        <pt x="601" y="0" on="1"/>
        <pt x="400" y="0" on="1"/>
        <pt x="378" y="87" on="1"/>
        <pt x="245" y="87" on="1"/>
        <pt x="221" y="0" on="1"/>
      </contour>
      <contour>
        <pt x="283" y="231" on="1"/>
        <pt x="342" y="231" on="1"/>
        <pt x="314" y="344" on="1"/>
      </contour>
    </TTGlyph>
    <TTGlyph name="ae" xMin="22" yMin="-7" xMax="798" yMax="541">
      <contour>
        <pt x="788" y="23" on="1"/>
        <pt x="732" y="-5" on="0"/>
        <pt x="581" y="-5" on="1"/>
        <pt x="540" y="-5" on="0"/>
        <pt x="498" y="-5" on="1"/>
        <pt x="401" y="-5" on="0"/>
        <pt x="360" y="63" on="1"/>
        <pt x="347" y="34" on="0"/>
        <pt x="242" y="-6" on="0"/>
        <pt x="195" y="-6" on="1"/>
        <pt x="146" y="-6" on="0"/>
        <pt x="74" y="27" on="0"/>
        <pt x="56" y="50" on="1"/>
        <pt x="22" y="95" on="0"/>
        <pt x="22" y="143" on="1"/>
        <pt x="22" y="174" on="1"/>
        <pt x="22" y="241" on="0"/>
        <pt x="101" y="330" on="0"/>
        <pt x="196" y="330" on="1"/>
        <pt x="247" y="330" on="0"/>
        <pt x="298" y="330" on="0"/>
        <pt x="298" y="330" on="1"/>
        <pt x="299" y="346" on="0"/>
        <pt x="298" y="363" on="0"/>
        <pt x="292" y="383" on="0"/>
        <pt x="285" y="394" on="0"/>
        <pt x="275" y="396" on="1"/>
        <pt x="260" y="399" on="0"/>
        <pt x="236" y="399" on="1"/>
        <pt x="40" y="387" on="1"/>
        <pt x="40" y="501" on="1"/>
        <pt x="90" y="525" on="0"/>
        <pt x="189" y="541" on="0"/>
        <pt x="268" y="541" on="1"/>
        <pt x="378" y="537" on="0"/>
        <pt x="418" y="511" on="1"/>
        <pt x="471" y="535" on="0"/>
        <pt x="554" y="535" on="1"/>
        <pt x="693" y="535" on="0"/>
        <pt x="798" y="463" on="0"/>
        <pt x="798" y="349" on="1"/>
        <pt x="798" y="272" on="0"/>
        <pt x="719" y="217" on="0"/>
        <pt x="640" y="217" on="1"/>
        <pt x="517" y="217" on="1"/>
        <pt x="517" y="167" on="0"/>
        <pt x="574" y="138" on="0"/>
        <pt x="713" y="138" on="0"/>
        <pt x="788" y="149" on="1"/>
      </contour>
      <contour>
        <pt x="239" y="137" on="1"/>
        <pt x="258" y="138" on="1"/>
        <pt x="276" y="138" on="0"/>
        <pt x="296" y="154" on="0"/>
        <pt x="297" y="162" on="1"/>
        <pt x="298" y="171" on="1"/>
        <pt x="298" y="221" on="1"/>
        <pt x="246" y="216" on="1"/>
        <pt x="231" y="215" on="0"/>
        <pt x="217" y="196" on="0"/>
        <pt x="216" y="184" on="0"/>
        <pt x="216" y="171" on="1"/>
        <pt x="216" y="170" on="1"/>
        <pt x="216" y="146" on="0"/>
        <pt x="224" y="142" on="1"/>
        <pt x="232" y="137" on="0"/>
      </contour>
      <contour>
        <pt x="574" y="330" on="1"/>
        <pt x="587" y="330" on="0"/>
        <pt x="604" y="348" on="0"/>
        <pt x="604" y="389" on="0"/>
        <pt x="593" y="401" on="0"/>
        <pt x="565" y="401" on="0"/>
        <pt x="544" y="401" on="0"/>
        <pt x="532" y="399" on="0"/>
        <pt x="526" y="392" on="1"/>
        <pt x="517" y="384" on="0"/>
        <pt x="517" y="341" on="0"/>
        <pt x="517" y="330" on="1"/>
      </contour>
    </TTGlyph>
    <TTGlyph name="ae.smcp" xMin="13" yMin="-5" xMax="802" yMax="571">
      <contour>
        <pt x="802" y="15" on="1"/>
        <pt x="718" y="-5" on="0"/>
        <pt x="568" y="-5" on="1"/>
        <pt x="552" y="-5" on="0"/>
        <pt x="539" y="-4" on="1"/>
        <pt x="485" y="-3" on="1"/>
        <pt x="483" y="-3" on="0"/>
        <pt x="481" y="-3" on="1"/>
        <pt x="434" y="-3" on="0"/>
        <pt x="361" y="49" on="0"/>
        <pt x="361" y="111" on="1"/>
        <pt x="361" y="118" on="1"/>
        <pt x="266" y="118" on="1"/>
        <pt x="221" y="0" on="1"/>
        <pt x="13" y="0" on="1"/>
        <pt x="183" y="445" on="1"/>
        <pt x="204" y="504" on="0"/>
        <pt x="269" y="538" on="1"/>
        <pt x="319" y="564" on="0"/>
        <pt x="392" y="568" on="1"/>
        <pt x="412" y="569" on="0"/>
        <pt x="443" y="570" on="0"/>
        <pt x="452" y="570" on="1"/>
        <pt x="488" y="570" on="1"/>
        <pt x="497" y="570" on="0"/>
        <pt x="505" y="570" on="1"/>
        <pt x="709" y="570" on="0"/>
        <pt x="802" y="553" on="1"/>
        <pt x="802" y="407" on="1"/>
        <pt x="587" y="407" on="1"/>
        <pt x="566" y="407" on="0"/>
        <pt x="555" y="394" on="0"/>
        <pt x="555" y="374" on="1"/>
        <pt x="555" y="361" on="1"/>
        <pt x="761" y="353" on="1"/>
        <pt x="761" y="212" on="1"/>
        <pt x="555" y="205" on="1"/>
        <pt x="555" y="193" on="1"/>
        <pt x="555" y="173" on="0"/>
        <pt x="573" y="161" on="0"/>
        <pt x="591" y="161" on="1"/>
        <pt x="802" y="161" on="1"/>
      </contour>
      <contour>
        <pt x="361" y="242" on="1"/>
        <pt x="361" y="366" on="1"/>
        <pt x="314" y="242" on="1"/>
      </contour>
    </TTGlyph>
    <TTGlyph name="afii61289" xMin="17" yMin="1" xMax="490" yMax="739">
      <contour>
        <pt x="74" y="552" on="1"/>
        <pt x="74" y="739" on="0"/>
        <pt x="307" y="739" on="1"/>
        <pt x="381" y="739" on="0"/>
        <pt x="490" y="647" on="0"/>
        <pt x="490" y="548" on="1"/>
        <pt x="490" y="498" on="0"/>
        <pt x="443" y="400" on="0"/>
        <pt x="406" y="362" on="1"/>
        <pt x="338" y="293" on="0"/>
        <pt x="268" y="254" on="1"/>
        <pt x="268" y="250" on="1"/>
        <pt x="268" y="224" on="0"/>
        <pt x="273" y="194" on="0"/>
        <pt x="283" y="175" on="1"/>
        <pt x="303" y="137" on="0"/>
        <pt x="384" y="125" on="1"/>
        <pt x="437" y="114" on="0"/>
        <pt x="444" y="114" on="1"/>
        <pt x="444" y="1" on="1"/>
        <pt x="236" y="1" on="1"/>
        <pt x="158" y="1" on="0"/>
        <pt x="74" y="81" on="0"/>
        <pt x="74" y="177" on="1"/>
        <pt x="74" y="185" on="1"/>
        <pt x="65" y="178" on="0"/>
        <pt x="40" y="165" on="1"/>
        <pt x="17" y="258" on="1"/>
        <pt x="42" y="281" on="0"/>
        <pt x="74" y="314" on="1"/>
      </contour>
      <contour>
        <pt x="330" y="561" on="1"/>
        <pt x="330" y="580" on="0"/>
        <pt x="311" y="590" on="1"/>
        <pt x="302" y="595" on="0"/>
        <pt x="283" y="595" on="0"/>
        <pt x="268" y="574" on="0"/>
        <pt x="268" y="559" on="1"/>
        <pt x="268" y="436" on="1"/>
        <pt x="314" y="488" on="0"/>
        <pt x="329" y="550" on="1"/>
        <pt x="330" y="556" on="0"/>
      </contour>
    </TTGlyph>
    <TTGlyph name="afii61352" xMin="40" yMin="-5" xMax="1120" yMax="742">
      <contour>
        <pt x="40" y="0" on="1"/>
        <pt x="40" y="569" on="1"/>
        <pt x="40" y="623" on="0"/>
        <pt x="68" y="663" on="1"/>
        <pt x="125" y="742" on="0"/>
        <pt x="243" y="742" on="1"/>
        <pt x="347" y="742" on="0"/>
        <pt x="408" y="676" on="1"/>
        <pt x="440" y="641" on="0"/>
        <pt x="445" y="593" on="1"/>
        <pt x="488" y="182" on="1"/>
        <pt x="489" y="173" on="0"/>
        <pt x="501" y="168" on="0"/>
        <pt x="512" y="178" on="0"/>
        <pt x="512" y="185" on="1"/>
        <pt x="512" y="565" on="1"/>
        <pt x="512" y="653" on="0"/>
        <pt x="604" y="734" on="0"/>
        <pt x="680" y="734" on="1"/>
        <pt x="978" y="734" on="1"/>
        <pt x="1056" y="734" on="0"/>
        <pt x="1120" y="655" on="0"/>
        <pt x="1120" y="459" on="0"/>
        <pt x="1049" y="385" on="0"/>
        <pt x="958" y="381" on="1"/>
        <pt x="932" y="381" on="1"/>
        <pt x="882" y="383" on="0"/>
        <pt x="831" y="394" on="0"/>
        <pt x="786" y="433" on="0"/>
        <pt x="770" y="509" on="0"/>
        <pt x="770" y="575" on="1"/>
        <pt x="912" y="575" on="1"/>
        <pt x="912" y="532" on="0"/>
        <pt x="920" y="513" on="0"/>
        <pt x="938" y="513" on="1"/>
        <pt x="952" y="513" on="1"/>
        <pt x="971" y="513" on="0"/>
        <pt x="978" y="524" on="0"/>
        <pt x="978" y="572" on="0"/>
        <pt x="977" y="584" on="0"/>
        <pt x="969" y="597" on="0"/>
        <pt x="962" y="598" on="1"/>
        <pt x="947" y="600" on="0"/>
        <pt x="795" y="600" on="0"/>
        <pt x="766" y="599" on="0"/>
        <pt x="729" y="592" on="0"/>
        <pt x="722" y="585" on="1"/>
        <pt x="706" y="567" on="0"/>
        <pt x="706" y="531" on="1"/>
        <pt x="706" y="165" on="1"/>
        <pt x="706" y="114" on="0"/>
        <pt x="678" y="75" on="1"/>
        <pt x="621" y="-5" on="0"/>
        <pt x="499" y="-5" on="1"/>
        <pt x="398" y="-5" on="0"/>
        <pt x="342" y="61" on="1"/>
        <pt x="309" y="99" on="0"/>
        <pt x="304" y="153" on="1"/>
        <pt x="260" y="569" on="1"/>
        <pt x="258" y="582" on="0"/>
        <pt x="235" y="574" on="0"/>
        <pt x="235" y="562" on="1"/>
        <pt x="235" y="0" on="1"/>
      </contour>
    </TTGlyph>
</ttFont>
